<svg xmlns="http://www.w3.org/2000/svg" viewBox="0 0 73.39 80.77"><defs><style>.cls-1{fill:#ede937;}.cls-2{fill:#00aec7;}.cls-3{fill:#fff;}</style></defs><g id="Capa_2" data-name="Capa 2"><g id="Elementos"><path class="cls-1" d="M28.62,13.38.61,71.89a6.2,6.2,0,1,0,11.18,5.35l28-58.51a10.85,10.85,0,0,1,5.1-5.15s0,0,0,0a11.25,11.25,0,0,1,9.76-.08,11.82,11.82,0,0,1,2,1.23,11.18,11.18,0,0,1,3.67,5,11.1,11.1,0,0,1-3.41,12.43,6.2,6.2,0,1,0,7.84,9.61,23.65,23.65,0,0,0,6.33-8.07,20.47,20.47,0,0,0,1.19-3,22.54,22.54,0,0,0,1.11-7A23.47,23.47,0,0,0,68.32,9,22.77,22.77,0,0,0,63.4,4.29a23.56,23.56,0,0,0-3.38-2A23.29,23.29,0,0,0,47.75.1a23.88,23.88,0,0,0-6.56,1.56A23.47,23.47,0,0,0,28.62,13.38Z"/><path class="cls-2" d="M56.14,32.93c5.64.75,11.78-.75,16.14-2.25a22.54,22.54,0,0,0,1.11-7,42.05,42.05,0,0,1-12.91,3.26,10.8,10.8,0,0,1-3.56,5.26A6.25,6.25,0,0,0,56.14,32.93Z"/><path class="cls-3" d="M56.66,14.71a11.18,11.18,0,0,1,3.67,5A26.4,26.4,0,0,0,68.32,9,22.77,22.77,0,0,0,63.4,4.29,20.89,20.89,0,0,1,56.66,14.71Z"/><path class="cls-2" d="M41.19,1.66c2.43,2.69,5,6.91,3.72,11.9a11.1,11.1,0,0,1,6.49-1.05A17.84,17.84,0,0,0,48.52,1.27C48.28.86,48,.47,47.75.1A23.88,23.88,0,0,0,41.19,1.66Z"/><path class="cls-3" d="M28.55,13.51l-2.7,5.65c3.37,2.09,7.29,5.56,8.59,10.77L38,22.54A27.51,27.51,0,0,0,28.55,13.51Z"/><path class="cls-2" d="M19.83,31.73l-2.7,5.62c3.3,1.9,7.26,4.92,9.32,9.27L29.61,40A32,32,0,0,0,19.83,31.73Z"/><path class="cls-3" d="M11.4,49.36,8.71,55C12,56.88,16,59.89,18,64.24l3.16-6.6A31.84,31.84,0,0,0,11.4,49.36Z"/></g></g></svg>