<svg xmlns="http://www.w3.org/2000/svg" viewBox="0 0 60.37 72.76"><defs><style>.cls-1{fill:#676565;}.cls-2{fill:#ede937;}.cls-3{fill:#fff;}.cls-4{fill:#00b1e8;}.cls-5{fill:#0e369e;}</style></defs><g id="Capa_2" data-name="Capa 2"><g id="Elementos"><path class="cls-1" d="M25.44,8.43l-1.19.36C22.77,3.87,20,.67,17.75,1.34S15,6.22,16.44,11.14l-1.19.36C13.51,5.72,14.39,1.05,17.39.14S23.7,2.65,25.44,8.43Z"/><path class="cls-1" d="M27.41,17.14l-8.95,2.7a1.52,1.52,0,0,1-2-.84l-2.09-6.94a1.21,1.21,0,0,1,.11-1,1.74,1.74,0,0,1,1.06-.83l9-2.7a1.81,1.81,0,0,1,1.22,0,1.26,1.26,0,0,1,.74.79l2.09,6.94A1.51,1.51,0,0,1,27.41,17.14Z"/><path class="cls-2" d="M59.08,33.87a29.86,29.86,0,0,1,1.1,12.06,30.22,30.22,0,1,1-1.1-12.06Z"/><circle class="cls-3" cx="12.62" cy="27.32" r="3.35" transform="translate(-17.41 25.39) rotate(-61.52)"/><path class="cls-4" d="M59.08,33.87c.18.58.33,1.15.46,1.73a29.44,29.44,0,0,1,.64,10.33L7,61.94a29.75,29.75,0,0,1-5.17-9c-.21-.55-.4-1.12-.57-1.69S1,50.34.91,49.87A27.7,27.7,0,0,1,.16,45.6,31.36,31.36,0,0,1,0,42.39a30.42,30.42,0,0,1,.43-4.88L52.19,21.92a29.87,29.87,0,0,1,3.06,3.83,30.56,30.56,0,0,1,1.64,2.77,28.18,28.18,0,0,1,1.73,4C58.79,32.94,58.94,33.4,59.08,33.87Z"/><path class="cls-3" d="M58.62,32.49c-2.45,1.23-3.22,3.78-3.86,5.86-.7,2.29-1.21,3.72-2.82,4.2s-2.83-.42-4.67-1.94S43,37.08,39.7,38.08,35.52,42,34.8,44.36s-1.21,3.72-2.82,4.2-2.82-.42-4.67-1.94-4.26-3.53-7.56-2.53-4.18,3.92-4.9,6.28-1.21,3.72-2.82,4.2-2.82-.42-4.66-2C5.68,51.24,3.64,49.54.91,49.87c.11.47.24.94.38,1.41s.36,1.14.57,1.69C3,53.09,4,53.89,5.38,55c1.9,1.57,4.26,3.53,7.56,2.53s4.18-3.93,4.9-6.28,1.2-3.71,2.82-4.2,2.82.42,4.66,2,4.27,3.52,7.56,2.53,4.19-3.93,4.91-6.29,1.2-3.71,2.81-4.2,2.83.42,4.68,2,4.27,3.52,7.56,2.53,4.18-3.93,4.9-6.29c.53-1.72.95-2.95,1.8-3.66Z"/><path class="cls-3" d="M56.89,28.52a9.94,9.94,0,0,0-1.4,3.26c-.72,2.36-1.61,5.29-4.91,6.29s-5.66-1-7.56-2.53S40,33.1,38.35,33.59s-2.12,1.91-2.81,4.2-1.62,5.29-4.91,6.28-5.66-1-7.56-2.53S20,39.11,18.4,39.6s-2.12,1.91-2.81,4.2S14,49.09,10.68,50.08s-5.66-1-7.56-2.53a9.93,9.93,0,0,0-3-1.95A31.36,31.36,0,0,1,0,42.39c2.07.25,3.72,1.6,5.11,2.75,1.85,1.53,3.05,2.44,4.67,2s2.12-1.91,2.82-4.2,1.6-5.29,4.9-6.29,5.66,1,7.56,2.53,3.06,2.44,4.67,1.95,2.12-1.91,2.81-4.2,1.62-5.29,4.91-6.28,5.67,1,7.57,2.52,3,2.44,4.66,2,2.13-1.91,2.83-4.2c.52-1.73,1.14-3.77,2.74-5.12A30.56,30.56,0,0,1,56.89,28.52Z"/><path class="cls-5" d="M9.92,42.2a1.52,1.52,0,0,1-1,1.89,1.51,1.51,0,1,1,1-1.89Z"/><path class="cls-5" d="M30,36.66a1.52,1.52,0,1,1-1.89-1A1.52,1.52,0,0,1,30,36.66Z"/><path class="cls-5" d="M50.34,30.53a1.51,1.51,0,1,1-1.89-1A1.52,1.52,0,0,1,50.34,30.53Z"/><path class="cls-5" d="M23.16,51c.24.81.11,1-.69,1.29s-2,.39-2.21-.41a1.52,1.52,0,0,1,2.9-.88Z"/><path class="cls-5" d="M43.53,44.82a1.52,1.52,0,0,1-1,1.89c-.8.24-1.33-.81-1.57-1.61s-.1-1.05.7-1.29A1.51,1.51,0,0,1,43.53,44.82Z"/></g></g></svg>