<svg xmlns="http://www.w3.org/2000/svg" xmlns:xlink="http://www.w3.org/1999/xlink" viewBox="0 0 124.17 126.36"><defs><style>.cls-1,.cls-6{fill:none;}.cls-1{stroke:#fff;stroke-miterlimit:10;stroke-width:0.6px;}.cls-2{fill:#cac8c8;}.cls-3{fill:#00b1e8;}.cls-4{fill:#fff;}.cls-5{fill:url(#radial-gradient);}.cls-6{stroke:#00b1e8;stroke-linecap:round;stroke-linejoin:round;stroke-width:1.2px;}.cls-7{fill:url(#radial-gradient-2);}</style><radialGradient id="radial-gradient" cx="56.05" cy="48.89" r="6.75" gradientUnits="userSpaceOnUse"><stop offset="0" stop-color="#ede96f"/><stop offset="0.88" stop-color="#ede937"/></radialGradient><radialGradient id="radial-gradient-2" cx="62.08" cy="15.85" r="16.05" xlink:href="#radial-gradient"/></defs><g id="Capa_2" data-name="Capa 2"><g id="Elementos"><polyline class="cls-1" points="66.9 114.6 66.9 126.06 57.27 126.06 57.27 114.33"/><path class="cls-1" d="M30.45,76.83c-6.12,7.1-13.68,13.46-20.83,12.9,0,0,2.71,3,9.66,3.62-5.86,5.5-12.34,9.49-18.55,9,0,0,3.74,4.12,13.54,4.37A14,14,0,0,1,8,110.33s6.1,3.56,18-2.46c1-.52,1.93-1,2.73-1.52A17.61,17.61,0,0,1,21,112.27s5.1,2.24,14.15-1.55a14,14,0,0,1-4.27,5.86s7,.75,15.4-9.59c-1.37,4.69-3.54,8.64-6.88,11,0,0,5.52.76,13.18-5.36a14.06,14.06,0,0,1-2.5,6.81s4.33-.76,8.72-7.07c1.59,4.76,3.11,9.73,3.13,9.69s1.6-5.13,3.22-10c4.46,6.58,8.91,7.36,8.91,7.36a14.05,14.05,0,0,1-2.49-6.81c7.66,6.12,13.18,5.36,13.18,5.36-3.34-2.38-5.51-6.33-6.88-11,8.37,10.34,15.39,9.59,15.39,9.59A14,14,0,0,1,89,110.72c9,3.79,14.14,1.55,14.14,1.55a17.59,17.59,0,0,1-7.67-5.92c.8.49,1.7,1,2.73,1.52,11.88,6,18,2.46,18,2.46a14,14,0,0,1-6.29-3.6c9.8-.25,13.54-4.37,13.54-4.37-6.21.48-12.69-3.51-18.55-9,7-.64,9.66-3.62,9.66-3.62-7.15.56-14.71-5.8-20.83-12.9"/><path class="cls-1" d="M51.76,48.35c-3.06-.6-6.34,4.36-10.78,10.1-5.77,6.7-12.91,12.7-19.65,12.17,0,0,3,3.34,10.94,3.53-1.54,1.45-9.4,7.59-12.85,7.32,0,0,2.92,3.22,10.57,3.41a10.87,10.87,0,0,1-4.91,2.82s4.77,2.77,14-1.92c.8-.41,1.5-.81,2.13-1.2a13.62,13.62,0,0,1-6,4.63s4,.63,11-2.33c-.79,1.88-1.87,4.59-3.33,5.7,0,0,5.48,2.82,12-5.25C53.92,91,55.08,89,53,93.7c0,0,3,.57,9.1-4.85,3,4.39,9.11,4.85,9.11,4.85-1.6-3.73-.94-2.71-2-6.37,6.54,8.07,12,5.25,12,5.25-1.46-1.11-2.54-3.82-3.33-5.7,7.06,3,11,2.33,11,2.33a13.62,13.62,0,0,1-6-4.63q.93.58,2.13,1.2c9.27,4.69,14,1.92,14,1.92a10.89,10.89,0,0,1-4.9-2.82c7.65-.19,10.56-3.41,10.56-3.41-3.44.27-11.3-5.87-12.84-7.32,7.92-.19,10.94-3.53,10.94-3.53-6.75.53-13.88-5.47-19.65-12.17-3.45-4.36-7.72-10.7-10.78-10.1"/><path class="cls-1" d="M84.31,55.94a10.18,10.18,0,0,0,4.57,2.62s-4.43,2.58-13.06-1.79c-.75-.38-1.4-.75-2-1.11A12.77,12.77,0,0,0,79.4,60s-3.7.5-10.26-2.25c.72,1.74,1.72,4.33,3.07,5.37C71.66,63,63,61.45,62.08,58.68A15.58,15.58,0,0,1,51.94,63.1c1.35-1,2.36-3.63,3.09-5.38C48.46,60.47,44.76,60,44.76,60a12.85,12.85,0,0,0,5.58-4.31c-.59.36-1.24.73-2,1.11-8.63,4.37-13.06,1.79-13.06,1.79a10.15,10.15,0,0,0,4.56-2.62C32.74,55.76,30,52.77,30,52.77c4.79.37,9.79-2.92,14.24-7.27A11.79,11.79,0,0,1,39,43.26c9.21-1.66,18.76-22.87,22.8-31.11,4,8.24,13.59,29.45,22.8,31.11a11.43,11.43,0,0,1-4.76,2.12c4.47,4.42,9.51,7.76,14.35,7.39C94.16,52.77,91.43,55.76,84.31,55.94Z"/><path class="cls-2" d="M81.17,69.75H79.41a.31.31,0,0,1-.31-.31V67.82a.28.28,0,0,1,.08-.2.28.28,0,0,1,.23-.11h1.76a.31.31,0,0,1,.21.09.29.29,0,0,1,.09.22v1.62A.3.3,0,0,1,81.17,69.75Z"/><path class="cls-3" d="M87,75.37a6.75,6.75,0,1,1-6.75-6.75A6.76,6.76,0,0,1,87,75.37Z"/><circle class="cls-4" cx="78.64" cy="73.23" r="2.56"/><path class="cls-2" d="M56.93,43.26H55.17a.3.3,0,0,1-.3-.31V41.33a.31.31,0,0,1,.07-.2.32.32,0,0,1,.23-.11h1.76a.31.31,0,0,1,.31.31V43A.31.31,0,0,1,56.93,43.26Z"/><path class="cls-5" d="M62.8,48.89a6.75,6.75,0,1,1-6.75-6.75A6.75,6.75,0,0,1,62.8,48.89Z"/><circle class="cls-4" cx="54.4" cy="46.75" r="2.56"/><path class="cls-2" d="M43.29,90.3H41.53a.31.31,0,0,1-.31-.31V88.37a.37.37,0,0,1,.07-.2.36.36,0,0,1,.24-.11h1.76a.31.31,0,0,1,.3.31V90A.31.31,0,0,1,43.29,90.3Z"/><path class="cls-4" d="M49.16,95.93a6.75,6.75,0,1,1-6.75-6.76A6.75,6.75,0,0,1,49.16,95.93Z"/><circle class="cls-6" cx="40.78" cy="93.97" r="2.56"/><polygon class="cls-7" points="62.08 0 65.7 9.16 75.12 6.28 70.21 14.82 78.34 20.38 68.6 21.87 69.32 31.7 62.08 25.01 54.85 31.7 55.57 21.87 45.83 20.38 53.96 14.82 49.05 6.28 58.47 9.16 62.08 0"/><polygon class="cls-4" points="62.08 20.43 58.82 23.44 59.15 19.02 54.76 18.34 58.42 15.84 56.21 11.99 60.45 13.29 62.08 9.16 63.71 13.29 67.96 11.99 65.75 15.84 69.41 18.34 65.02 19.02 65.34 23.44 62.08 20.43"/></g></g></svg>