<svg xmlns="http://www.w3.org/2000/svg" viewBox="0 0 196.07 154.63"><defs><style>.cls-1{fill:#fff;}.cls-2{fill:#ede937;}.cls-3,.cls-4,.cls-6,.cls-7{fill:none;stroke-linecap:round;}.cls-3{stroke:#00b1e8;stroke-miterlimit:10;}.cls-3,.cls-4{stroke-width:2px;}.cls-4{stroke:#ede937;}.cls-4,.cls-6,.cls-7{stroke-linejoin:round;}.cls-5{fill:#00b1e8;}.cls-6{stroke:#0e369e;}.cls-6,.cls-7{stroke-width:1.08px;}.cls-7{stroke:#fff;}.cls-8{fill:#0e369e;}</style></defs><g id="Capa_2" data-name="Capa 2"><g id="Elementos"><path class="cls-1" d="M166.37,0s27.59,22.85,10,37.71c-8.57,7.24-17.47.13-18.6-7.1a18.67,18.67,0,0,1,2.11-12C162.71,13.54,166.74,5.24,166.37,0Z"/><path class="cls-1" d="M115.14,0s27.59,22.85,10,37.71c-8.57,7.24-17.47.13-18.6-7.1a18.67,18.67,0,0,1,2.11-12C111.48,13.54,115.51,5.24,115.14,0Z"/><path class="cls-1" d="M63.91,0s27.59,22.85,10,37.71c-8.57,7.24-17.47.13-18.6-7.1a18.67,18.67,0,0,1,2.11-12C60.25,13.54,64.28,5.24,63.91,0Z"/><path class="cls-1" d="M12.68,0s27.59,22.85,10,37.71c-8.58,7.24-17.47.13-18.6-7.1a18.73,18.73,0,0,1,2.1-12C9,13.54,13.05,5.24,12.68,0Z"/><path class="cls-2" d="M161.77,47.11H178a8.07,8.07,0,0,1,8.07,8.07v94.53a3.63,3.63,0,0,1-3.63,3.63H157.33a3.63,3.63,0,0,1-3.63-3.63V55.18a8.07,8.07,0,0,1,8.07-8.07Z"/><path class="cls-3" d="M110.53,47.4h16.24a8.07,8.07,0,0,1,8.07,8.07V150a3.63,3.63,0,0,1-3.63,3.63H106.1a3.63,3.63,0,0,1-3.63-3.63V55.47a8.07,8.07,0,0,1,8.07-8.07Z"/><path class="cls-4" d="M59.3,47.4H75.55a8.07,8.07,0,0,1,8.07,8.07V150A3.63,3.63,0,0,1,80,153.63H54.86A3.63,3.63,0,0,1,51.23,150V55.47A8.07,8.07,0,0,1,59.3,47.4Z"/><path class="cls-5" d="M8.07,47.4H24.32a8.07,8.07,0,0,1,8.07,8.07V150a3.63,3.63,0,0,1-3.63,3.63H3.63A3.63,3.63,0,0,1,0,150V55.47A8.07,8.07,0,0,1,8.07,47.4Z"/><line class="cls-6" x1="20.33" y1="128.83" x2="23.17" y2="127.72"/><line class="cls-6" x1="26.5" y1="126.41" x2="29.33" y2="125.29"/><line class="cls-6" x1="26.6" y1="131.56" x2="25.49" y2="128.73"/><line class="cls-6" x1="24.18" y1="125.39" x2="23.06" y2="122.56"/><line class="cls-7" x1="57.71" y1="60.34" x2="58.89" y2="57.53"/><line class="cls-7" x1="60.28" y1="54.23" x2="61.46" y2="51.42"/><line class="cls-7" x1="64.04" y1="57.76" x2="61.23" y2="56.57"/><line class="cls-7" x1="57.93" y1="55.19" x2="55.12" y2="54"/><line class="cls-7" x1="188.68" y1="50.82" x2="190.84" y2="48.66"/><line class="cls-7" x1="193.37" y1="46.13" x2="195.52" y2="43.97"/><line class="cls-7" x1="195.52" y1="50.82" x2="193.37" y2="48.66"/><line class="cls-7" x1="190.84" y1="46.13" x2="188.68" y2="43.97"/><path class="cls-8" d="M118.9,129.77a.72.72,0,0,0,0-1.43.72.72,0,0,0,0,1.43Z"/><path class="cls-8" d="M131.14,95.42a.72.72,0,0,0,0-1.44.72.72,0,0,0,0,1.44Z"/><path class="cls-1" d="M147.08,65.3a.72.72,0,0,0,0-1.44.72.72,0,0,0,0,1.44Z"/><path class="cls-1" d="M62,109.54a.72.72,0,0,0,0-1.44.72.72,0,0,0,0,1.44Z"/><path class="cls-1" d="M21,54.47A.72.72,0,0,0,21,53a.72.72,0,0,0,0,1.43Z"/><path class="cls-1" d="M110,80.83a.72.72,0,0,0,0-1.44.72.72,0,0,0,0,1.44Z"/><path class="cls-5" d="M66.41,47.4a19.53,19.53,0,0,1-.62-4.71l-.3-4.7c-.17-3.13-.33-6.27-.41-9.4a2.35,2.35,0,1,1,4.69-.12v.12c-.08,3.13-.24,6.27-.41,9.4l-.3,4.7a19.53,19.53,0,0,1-.62,4.71,1.07,1.07,0,0,1-2,0Z"/><path class="cls-5" d="M117.64,55.88l-1.33-27.29a2.35,2.35,0,1,1,4.69-.23.88.88,0,0,1,0,.23l-1.33,27.29a1,1,0,0,1-2,0Z"/><path class="cls-5" d="M168.87,55.88l-1.33-27.29a2.35,2.35,0,1,1,4.69-.23.88.88,0,0,1,0,.23L170.9,55.88a1,1,0,0,1-2,0Z"/><path class="cls-5" d="M15.18,55.88,13.85,28.59a2.35,2.35,0,1,1,4.69-.23.88.88,0,0,1,0,.23L17.21,55.88a1,1,0,0,1-2,0Z"/><path class="cls-8" d="M166.41,71.84a.72.72,0,0,0,0-1.44.72.72,0,0,0,0,1.44Z"/><path class="cls-8" d="M179.4,133.47a.72.72,0,0,0,0-1.44.72.72,0,0,0,0,1.44Z"/><path class="cls-8" d="M166,140.2l.31-.3a.49.49,0,0,0,.14-.23.53.53,0,0,0,.07-.28.52.52,0,0,0-.07-.27.49.49,0,0,0-.14-.23l-.15-.12a.74.74,0,0,0-.36-.09l-.19,0a.8.8,0,0,0-.32.19l-.3.3a.51.51,0,0,0-.15.23.55.55,0,0,0-.06.28.49.49,0,0,0,.06.27.51.51,0,0,0,.15.23l.14.12a.81.81,0,0,0,.37.09l.19,0a.77.77,0,0,0,.31-.19Z"/></g></g></svg>