<svg xmlns="http://www.w3.org/2000/svg" xmlns:xlink="http://www.w3.org/1999/xlink" viewBox="0 0 84.83 61.34"><defs><style>.cls-1{fill:#00aec7;}.cls-2{fill:#fff;}.cls-3{fill:url(#radial-gradient);}.cls-4{fill:url(#radial-gradient-2);}.cls-5{fill:url(#radial-gradient-3);}</style><radialGradient id="radial-gradient" cx="58.57" cy="16.56" r="11.31" gradientUnits="userSpaceOnUse"><stop offset="0" stop-color="#ede96f"/><stop offset="0.88" stop-color="#ede937"/></radialGradient><radialGradient id="radial-gradient-2" cx="26.31" cy="16.09" r="11.3" xlink:href="#radial-gradient"/><radialGradient id="radial-gradient-3" cx="42.42" cy="14.82" r="3.37" xlink:href="#radial-gradient"/></defs><g id="Capa_2" data-name="Capa 2"><g id="Elementos"><path class="cls-1" d="M40.1,57.34c-2.54,4.08-10,3.06-20.3-2.64-1.28-.7-2.59-1.48-4-2.33S13.21,50.68,12,49.85C2.38,43.1-1.81,36.84.73,32.77c1.14-1.83,7.46-3.24,10.86-4,2.59-.58,3.07-.71,3.26-1,1.72-2.75,10.88-16.12,22.44-8.9s3.58,21.32,1.86,24.07c-.22.35-.12,1,.38,3.83C40.13,50.1,41.13,55.69,40.1,57.34Z"/><path class="cls-1" d="M84,32.86c2.71,4-1.21,10.39-10.55,17.54-1.16.89-2.4,1.78-3.72,2.69s-2.61,1.74-3.85,2.5c-10.05,6.13-17.46,7.46-20.17,3.5-1.22-1.78,0-8.14.69-11.55.5-2.61.58-3.1.38-3.39C44.93,41.47,36.35,27.72,47.6,20s21,5.26,22.8,7.94c.23.33.9.52,3.66,1.18C77.36,29.93,82.89,31.25,84,32.86Z"/><path class="cls-2" d="M44.28,17s6,.29,10.35,8S67,38.79,67,38.79l-9.35-.51-4.29,6.16s-2.76-11.35-5.23-16.15a46.16,46.16,0,0,0-5.86-8.58Z"/><path class="cls-2" d="M39.41,18.73s-5.81,1.54-8.45,10-9.24,16.08-9.24,16.08l9.33-4.06,5.19,6.74S36.56,35.83,38,30.61A46.31,46.31,0,0,1,41.92,21Z"/><path class="cls-2" d="M56.68,2.73A18.64,18.64,0,0,1,67.2.58a4.07,4.07,0,0,1,2,.67,4.68,4.68,0,0,1,1.39,2.3,80.66,80.66,0,0,1,3,10.66c.25,1.2.43,2.57-.32,3.54.39-1.07-18.37,0-25.19,2.08-3.13.94-5.19,1.2-5-.29C43.11,18.54,45.29,9.87,56.68,2.73Z"/><path class="cls-3" d="M73.72,15.9c.36,2.88-1,4.33-3.23,5.18-2.51,1-26.37.16-27.1-.81s15.31-7.63,20-8.48S73.36,13,73.72,15.9Z"/><path class="cls-2" d="M28.31,2.31A18.7,18.7,0,0,0,17.8.09a4.09,4.09,0,0,0-2,.66A4.71,4.71,0,0,0,14.45,3a78.79,78.79,0,0,0-3.06,10.64c-.25,1.2-.45,2.57.3,3.54-.39-1.07,19.36.61,26,2.49,2.66.76,4.35.86,4.2-.49C41.77,18.22,39.65,9.53,28.31,2.31Z"/><path class="cls-4" d="M11.18,15.37c-.38,2.87,1,4.34,3.19,5.2,2.51,1,26.37.34,27.11-.63s-15.26-7.73-19.93-8.61S11.56,12.5,11.18,15.37Z"/><path class="cls-2" d="M24.44,24.4c.53.61-.26,2.16-1.76,3.47S19.53,29.74,19,29.13s.25-2.17,1.76-3.47S23.91,23.79,24.44,24.4Z"/><path class="cls-2" d="M46.08,30.1c.78-.21,1.83,1.18,2.35,3.1s.3,3.66-.48,3.87S46.12,35.89,45.6,34,45.3,30.31,46.08,30.1Z"/><path class="cls-2" d="M44,26.19H40.88a3.74,3.74,0,0,1-3.74-3.75V16.61a3.74,3.74,0,0,1,3.74-3.74H44a3.72,3.72,0,0,1,2.84,1.31,3.68,3.68,0,0,1,.9,2.43v5.83A3.74,3.74,0,0,1,44,26.19Z"/><path class="cls-5" d="M47,15.91c-.36.52-2.3-.15-4.54-.11s-4.19.63-4.55.11,1.51-2.38,4.55-2.38S47.35,15.43,47,15.91Z"/></g></g></svg>