<svg xmlns="http://www.w3.org/2000/svg" viewBox="0 0 86.94 86.94"><defs><style>.cls-1{fill:#fff;opacity:0.2;}</style></defs><g id="Capa_2" data-name="Capa 2"><g id="Elementos"><path class="cls-1" d="M82.49,24.91,49.66,37.57,63.92,5.4a3.27,3.27,0,0,0-6-2.65L43.68,34.92,31,2.1a3.27,3.27,0,1,0-6.1,2.35L37.57,37.28,5.41,23a3.28,3.28,0,0,0-2.66,6L34.92,43.26,2.1,55.93A3.27,3.27,0,0,0,4.45,62L37.28,49.37,23,81.54a3.28,3.28,0,0,0,4.17,4.38A3.34,3.34,0,0,0,29,84.19L43.26,52,55.93,84.85A3.27,3.27,0,0,0,62,82.49L49.37,49.66,81.54,63.92a3.28,3.28,0,0,0,2.65-6L52,43.68,84.85,31a3.27,3.27,0,1,0-2.36-6.1Z"/></g></g></svg>