<svg xmlns="http://www.w3.org/2000/svg" viewBox="0 0 59.34 59.34"><defs><style>.cls-1{fill:#fff;opacity:0.5;}</style></defs><g id="Capa_2" data-name="Capa 2"><g id="Elementos"><path class="cls-1" d="M57.38,38.48a1.13,1.13,0,0,0-.73-1.42l-4.07-1.29L58.79,32A1.14,1.14,0,0,0,57.61,30l-7.89,4.81-4.87-1.54,4.64-2.54a1.13,1.13,0,1,0-1.09-2l-6.53,3.58-9.25-2.94L41.24,25l7,2.43h0A1.14,1.14,0,0,0,49,25.24l-5-1.72,4.53-2.35,8.6,3.42.08,0A1.14,1.14,0,0,0,58,22.48l-6.77-2.69,3.79-2a1.13,1.13,0,1,0-1-2l-3.79,2,1.71-7.07a1.13,1.13,0,0,0-2.2-.54l-2.18,9L43,21.5l1.48-5.07A1.11,1.11,0,0,0,43.69,15a1.14,1.14,0,0,0-1.41.78l-2.09,7.14L31.58,27.4l2.94-9.24,6.69-3.26a1.13,1.13,0,1,0-1-2l-4.75,2.31L37,10.31l8.49-3.66a1.14,1.14,0,0,0-.9-2.09L37.93,7.44l1.29-4.06a1.13,1.13,0,1,0-2.16-.69l-1.3,4.07L32,.54A1.14,1.14,0,0,0,30,1.73l4.81,7.89-1.54,4.86L30.77,9.85a1.13,1.13,0,1,0-2,1.09l3.58,6.53-2.94,9.24L25,18.1l2.43-7a1.13,1.13,0,0,0-.71-1.44h0a1.14,1.14,0,0,0-1.42.71l-1.72,5-2.35-4.53,3.42-8.59A1.13,1.13,0,0,0,24,.72a1.12,1.12,0,0,0-1.47.63L19.79,8.11l-2-3.78a1.13,1.13,0,1,0-2,1l2,3.79L10.71,7.44a1.14,1.14,0,0,0-.62,2.19l.08,0,9,2.18,2.34,4.53-5.07-1.48a1.13,1.13,0,0,0-.66,2.17h0l7.14,2.08,4.46,8.62-9.24-2.94-3.26-6.7a1.15,1.15,0,0,0-1.52-.52,1.13,1.13,0,0,0-.52,1.52l2.31,4.75-4.86-1.55L6.65,13.83a1.14,1.14,0,0,0-2.09.9l2.88,6.68L3.38,20.12a1.13,1.13,0,1,0-.69,2.16l4.07,1.29L.54,27.36a1.14,1.14,0,0,0-.37,1.56,1.11,1.11,0,0,0,.62.49,1.13,1.13,0,0,0,.94-.11l7.89-4.82L14.48,26,9.85,28.57a1.13,1.13,0,0,0-.45,1.54,1.15,1.15,0,0,0,.65.54,1.11,1.11,0,0,0,.89-.09L17.47,27l9.24,2.94L18.1,34.38l-7-2.43h0a1.14,1.14,0,0,0-.71,2.16l5,1.72-4.53,2.34L2.19,34.75a1.14,1.14,0,1,0-.84,2.11l6.76,2.68-3.78,2a1.14,1.14,0,0,0,.17,2.09,1.15,1.15,0,0,0,.87-.07l3.79-2L7.44,48.63A1.14,1.14,0,0,0,8.2,50l.08,0a1.13,1.13,0,0,0,1.37-.83l2.18-9,4.53-2.35-1.48,5.08a1.13,1.13,0,0,0,.74,1.4h0a1.14,1.14,0,0,0,1.41-.77l2.08-7.15,8.62-4.45-2.94,9.24-6.7,3.26A1.15,1.15,0,0,0,17.6,46a1.15,1.15,0,0,0,1.52.52l4.75-2.31L22.32,49l-8.49,3.66a1.13,1.13,0,0,0-.59,1.49,1.11,1.11,0,0,0,.7.64,1.14,1.14,0,0,0,.79,0l6.68-2.89L20.12,56a1.13,1.13,0,0,0,2.16.69l1.29-4.07,3.79,6.21a1.14,1.14,0,0,0,1.56.38,1.14,1.14,0,0,0,.38-1.56l-4.82-7.89L26,44.86l2.54,4.63a1.13,1.13,0,0,0,.65.53,1.15,1.15,0,0,0,.89-.08,1.13,1.13,0,0,0,.45-1.54L27,41.87l2.94-9.25,4.46,8.62-2.43,7a1.14,1.14,0,0,0,.7,1.44h0A1.14,1.14,0,0,0,34.1,49l1.72-5,2.34,4.53-3.41,8.6a1.13,1.13,0,0,0,.63,1.47l.08,0a1.14,1.14,0,0,0,1.4-.66l2.68-6.77,2,3.79a1.15,1.15,0,0,0,.67.56A1.13,1.13,0,0,0,43.52,54l-2-3.79,7.07,1.72A1.14,1.14,0,0,0,50,51.06a1.13,1.13,0,0,0-.83-1.37l-9-2.18L37.83,43l5.08,1.48a1.12,1.12,0,0,0,1.4-.77,1.1,1.1,0,0,0-.77-1.41L36.39,40.2l-4.45-8.62,9.24,2.94,3.26,6.69a1.13,1.13,0,0,0,.68.59,1.17,1.17,0,0,0,.84-.06,1.14,1.14,0,0,0,.52-1.52l-2.31-4.75L49,37l3.66,8.49a1.17,1.17,0,0,0,.7.63,1.14,1.14,0,0,0,1.39-1.53l-2.89-6.68L56,39.22A1.13,1.13,0,0,0,57.38,38.48Z"/></g></g></svg>