<svg xmlns="http://www.w3.org/2000/svg" viewBox="0 0 211.8 211.8"><defs><style>.cls-1{fill:#fff;opacity:0.2;}</style></defs><g id="Capa_2" data-name="Capa 2"><g id="Elementos"><path class="cls-1" d="M211.29,98.92a4.12,4.12,0,0,0-4.39-3.84l-15.45,1,16-21a4.12,4.12,0,0,0-6.57-5L180.56,96.83l-18.49,1.22,12.29-14.73A4.12,4.12,0,1,0,168,78L150.71,98.8l-35.15,2.33,23.2-26.5,27-1.14h.1a4.12,4.12,0,0,0-.44-8.23l-19.17.81,12.2-13.94,33.59.14h.29a4.12,4.12,0,0,0-.26-8.23l-26.42-.11,10.2-11.65a4.12,4.12,0,1,0-6.2-5.43L159.46,38.48,155.87,12.3a4.12,4.12,0,0,0-8.16,1.12l4.56,33.27-12.2,13.94-1.73-19.11a4,4,0,0,0-4.48-3.73,4.12,4.12,0,0,0-3.73,4.47l2.43,26.94L109.35,95.7,107,60.55l18.29-19.91a4.12,4.12,0,1,0-6.06-5.58l-13,14.13L105.05,30.7,128.9,7.05a4.13,4.13,0,0,0-5.81-5.86L104.33,19.81l-1-15.46a4.12,4.12,0,1,0-8.22.55l1,15.45-21-16a4.12,4.12,0,1,0-5,6.56L96.82,31.25l1.23,18.48L83.31,37.44A4.12,4.12,0,1,0,78,43.77L98.8,61.09l2.33,35.15L74.63,73,73.49,46a4.13,4.13,0,0,0-4.29-3.94h-.1a4.12,4.12,0,0,0-3.85,4.28l.81,19.17L52.12,53.33l.14-33.59a4.13,4.13,0,0,0-4.1-4.14A4.08,4.08,0,0,0,44,19.71l-.11,26.43L32.26,35.93a4.12,4.12,0,1,0-5.43,6.2l11.65,10.2L12.3,55.93a4.12,4.12,0,0,0,.82,8.19l.3,0,33.27-4.56,13.94,12.2L41.52,73.46a4.12,4.12,0,0,0,.65,8.22h.1L69.2,79.24l26.5,23.21-35.15,2.32L40.64,86.48a4.12,4.12,0,1,0-5.58,6.06l14.13,13L30.7,106.75,7.05,82.91a4.12,4.12,0,0,0-5.85,5.8l18.61,18.76-15.46,1a4.12,4.12,0,1,0,.54,8.22l15.46-1-16,21a4.13,4.13,0,0,0,.79,5.78,4.13,4.13,0,0,0,5.77-.8L31.24,115l18.49-1.23L37.44,128.49a4.11,4.11,0,0,0,.53,5.8,4.11,4.11,0,0,0,5.8-.52L61.09,113l35.15-2.33L73,137.17l-27,1.14h-.1a4.12,4.12,0,0,0,.44,8.23l19.17-.81-12.2,13.94-33.59-.14a4.13,4.13,0,0,0,0,8.25l26.43.1-10.2,11.65a4.12,4.12,0,1,0,6.2,5.43l10.21-11.65,3.59,26.18a4.12,4.12,0,0,0,4.35,3.56l.29,0a4.12,4.12,0,0,0,3.52-4.65l-4.56-33.27,12.2-13.94,1.73,19.11A4.12,4.12,0,0,0,77.84,174h.1a4.11,4.11,0,0,0,3.73-4.47L79.24,142.6l23.2-26.5,2.33,35.15-18.3,19.92a4.12,4.12,0,1,0,6.07,5.57l13-14.12,1.22,18.48L82.9,204.75a4.13,4.13,0,0,0,5.81,5.86L107.47,192l1,15.45a4.12,4.12,0,0,0,8.22-.54l-1-15.46,21,16a4,4,0,0,0,2.76.83,4.12,4.12,0,0,0,2.22-7.39L115,180.55l-1.23-18.48,14.73,12.29a4.12,4.12,0,1,0,5.29-6.33L113,150.7l-2.33-35.14,26.5,23.2,1.14,27a4.13,4.13,0,0,0,4.29,3.95h.1a4.12,4.12,0,0,0,3.85-4.28l-.81-19.17,13.94,12.2-.14,33.59a4.12,4.12,0,0,0,4.1,4.14h.3a4.11,4.11,0,0,0,3.84-4.09l.11-26.44,11.65,10.21a4.12,4.12,0,1,0,5.43-6.2l-11.65-10.2,26.18-3.6a4.12,4.12,0,1,0-1.12-8.16l-33.27,4.56-13.94-12.2,19.11-1.73a4.12,4.12,0,0,0,3.73-4.48,4,4,0,0,0-4.48-3.73l-26.93,2.44-26.5-23.21L151.25,107l19.91,18.3a4.12,4.12,0,0,0,5.58-6.07l-14.13-13,18.49-1.22,23.65,23.85a4.12,4.12,0,0,0,5.85-5.81L192,104.33l15.46-1A4.12,4.12,0,0,0,211.29,98.92Z"/></g></g></svg>