<svg xmlns="http://www.w3.org/2000/svg" xmlns:xlink="http://www.w3.org/1999/xlink" viewBox="0 0 48.07 52.19"><defs><style>.cls-1{fill:url(#radial-gradient);}.cls-2{fill:#00b1e8;}.cls-3{fill:#0e369e;}</style><radialGradient id="radial-gradient" cx="24.03" cy="26.1" r="25.09" gradientUnits="userSpaceOnUse"><stop offset="0" stop-color="#ede96f"/><stop offset="0.88" stop-color="#ede937"/></radialGradient></defs><g id="Capa_2" data-name="Capa 2"><g id="Elementos"><path class="cls-1" d="M14.4,11.39,20.14.88a1.66,1.66,0,0,1,1-.8,1.7,1.7,0,0,1,1.82.53l7.68,9.18a1.59,1.59,0,0,0,.6.46,1.69,1.69,0,0,0,.74.15l12-.29a1.87,1.87,0,0,1,.82.19,1.7,1.7,0,0,1,.81,2.1L41.44,23.64a1.65,1.65,0,0,0-.1.48,1.74,1.74,0,0,0,.24,1l6.24,10.22a1.68,1.68,0,0,1,.09,1.58,1.66,1.66,0,0,1-1.25,1l-11.8,2.06a1.55,1.55,0,0,0-.51.18,1.71,1.71,0,0,0-.68.68L27.93,51.31a1.65,1.65,0,0,1-1.08.83,1.68,1.68,0,0,1-1.71-.56L17.46,42.4a1.72,1.72,0,0,0-.52-.42,1.68,1.68,0,0,0-.82-.19l-12,.29a1.66,1.66,0,0,1-1.26-.52,1.68,1.68,0,0,1-.38-1.76L6.63,28.56a1.64,1.64,0,0,0,.09-.76,1.54,1.54,0,0,0-.24-.71L.25,16.87a1.7,1.7,0,0,1,1.16-2.56L13.2,12.25a1.61,1.61,0,0,0,.7-.29A1.72,1.72,0,0,0,14.4,11.39Z"/><path class="cls-2" d="M20.77,16.58h0a3.78,3.78,0,0,0,2.15.21,3.84,3.84,0,0,0,1.59-.73h0a3.77,3.77,0,0,1,6.07,2.45h0a3.76,3.76,0,0,0,2.33,3h0A3.78,3.78,0,0,1,33.82,28h0a3.76,3.76,0,0,0-1.17,1.55,3.82,3.82,0,0,0-.25,2h0a3.78,3.78,0,0,1-5.16,4h0A3.75,3.75,0,0,0,23.5,36h0a3.79,3.79,0,0,1-6.07-2.46h0a3.74,3.74,0,0,0-.77-1.8A3.83,3.83,0,0,0,15.1,30.6h0a3.78,3.78,0,0,1-.91-6.48h0a3.86,3.86,0,0,0,1.23-1.69,4,4,0,0,0,.19-1.82h0a3.78,3.78,0,0,1,5.16-4Z"/><path class="cls-3" d="M22.16,20.66h0a2.16,2.16,0,0,0,1.23.11,2.1,2.1,0,0,0,.9-.41h0a2.15,2.15,0,0,1,3.46,1.4h0a2.17,2.17,0,0,0,.43,1,2.19,2.19,0,0,0,.89.67h0a2.13,2.13,0,0,1,1.34,1.83,2.08,2.08,0,0,1-.82,1.86h0a2.15,2.15,0,0,0-.66.89,2,2,0,0,0-.14,1.11h0a2.15,2.15,0,0,1-2.94,2.29h0a2.14,2.14,0,0,0-2.13.3h0a2.15,2.15,0,0,1-3.46-1.39h0a2.13,2.13,0,0,0-1.32-1.7h0A2.15,2.15,0,0,1,18.42,25h0a2.22,2.22,0,0,0,.7-1,2.27,2.27,0,0,0,.1-1h0a2.13,2.13,0,0,1,1-2.11A2.11,2.11,0,0,1,22.16,20.66Z"/></g></g></svg>