<svg xmlns="http://www.w3.org/2000/svg" viewBox="0 0 244.19 138.25"><defs><style>.cls-1{fill:#fff;}</style></defs><g id="Capa_2" data-name="Capa 2"><g id="Elementos"><path class="cls-1" d="M227.64,95.47a15.89,15.89,0,0,0-18.16,13.25,13,13,0,0,0,10.8,14.81,10.63,10.63,0,0,0,12.14-8.85,1.23,1.23,0,0,0-2.44-.38,8.16,8.16,0,0,1-9.32,6.8,10.51,10.51,0,0,1-8.75-12,13.44,13.44,0,0,1,15.35-11.2,17.13,17.13,0,0,1,14.26,19.54,21.7,21.7,0,0,1-24.78,18.08c-5.21-.82-12.34-5.86-21.35-12.24-14-9.94-32.32-22.87-56.11-29.32,1.34,0,2.72,0,4.1,0,8.73,0,17.72-.55,21.74-2.55a18.7,18.7,0,1,0-16.63-33.51c-6.92,3.43-19.33,21.14-24.77,29.26V0h-2.46V88.39C116.32,81,103,61.55,95.69,57.94A18.7,18.7,0,0,0,79.07,91.45c4,2,13,2.55,21.74,2.55,1.38,0,2.75,0,4.1,0-23.8,6.45-42.07,19.38-56.11,29.32-9,6.38-16.14,11.42-21.35,12.24A21.72,21.72,0,0,1,2.67,117.44,17.13,17.13,0,0,1,16.92,97.9a13.43,13.43,0,0,1,15.35,11.2,10.49,10.49,0,0,1-8.75,12,8.15,8.15,0,0,1-9.31-6.8,1.23,1.23,0,0,0-2.44.38,10.62,10.62,0,0,0,12.13,8.85,13,13,0,0,0,10.81-14.81A15.9,15.9,0,0,0,16.54,95.47,19.58,19.58,0,0,0,.24,117.82a24.18,24.18,0,0,0,23.84,20.42,23.87,23.87,0,0,0,3.75-.29c5.78-.9,13.11-6.09,22.39-12.66,12.3-8.7,27.88-19.73,47.55-26.54a6.11,6.11,0,0,0-1.27,2.56c-1.13,5.06-2.63,11.75-3.07,13.71a1.94,1.94,0,0,0,.32,1.51c.68,1,1.39,2,2.11,3a3,3,0,0,0,3.91.72c1-.68,2-1.38,3-2.08a2,2,0,0,0,.83-1.31l.93-6.52a2.74,2.74,0,0,1,5.4.65c-.22,2.19-.44,4.37-.65,6.56a2,2,0,0,0,.49,1.47c.8.92,1.61,1.84,2.44,2.74a3,3,0,0,0,4,.24q1.41-1.2,2.76-2.43a1.93,1.93,0,0,0,.66-1.4q.08-3.28.14-6.59a2.74,2.74,0,0,1,5.43,0q.08,3.3.14,6.59a2,2,0,0,0,.67,1.4c.9.82,1.82,1.63,2.75,2.43a3,3,0,0,0,4-.24c.84-.91,1.65-1.82,2.45-2.74a2,2,0,0,0,.49-1.47c-.22-2.19-.43-4.37-.65-6.56a2.74,2.74,0,0,1,5.4-.65l.93,6.52a1.94,1.94,0,0,0,.83,1.31c1,.7,2,1.4,3,2.08a3,3,0,0,0,3.91-.72c.72-1,1.42-2,2.11-3a1.89,1.89,0,0,0,.31-1.51l-3.06-13.71a5.8,5.8,0,0,0-1-2.17c19.16,6.83,34.4,17.61,46.46,26.15,9.28,6.57,16.62,11.76,22.4,12.66A24.15,24.15,0,0,0,244,117.82,19.59,19.59,0,0,0,227.64,95.47Zm-78-35.32A16.24,16.24,0,1,1,164,89.25c-7,3.49-32.3,2.09-39.75,1.59C128.37,84.61,142.55,63.64,149.59,60.15ZM80.16,89.25A16.24,16.24,0,0,1,94.6,60.15c7,3.49,21.21,24.46,25.32,30.69C112.47,91.34,87.2,92.74,80.16,89.25Z"/></g></g></svg>