<svg xmlns="http://www.w3.org/2000/svg" viewBox="0 0 68.55 119.87"><defs><style>.cls-1{fill:#fff;}</style></defs><g id="Capa_2" data-name="Capa 2"><g id="Elementos"><path class="cls-1" d="M51.28,61.05c3.66-10.8-2.5-21.06-12.88-24.8L39.16,38c5.38-10.87-3.69-22.67-15.43-21.24-12,1.45-16.55,16.33-8.59,24.8l.21-1.91C6.51,46.26,3.6,57.87,10.23,67.14l.21-1.9C1.23,74-2.5,86.69,1.74,98.8c3.85,11,14.26,18.35,25.41,20.47A36.67,36.67,0,0,0,60,108.47,31,31,0,0,0,66.57,76.2c-2.83-7.53-8.95-13.37-16-16.91C49,58.51,48,61,49.52,61.8c12.11,6,19,19.34,15.43,32.65-3.26,12.1-14.34,20.38-26.38,22.3A32.13,32.13,0,0,1,6.85,103.07C-.71,91.58,2.48,76.48,12.13,67.35a1.4,1.4,0,0,0,.21-1.91c-5.8-8.1-2.9-18,4.71-23.65a1.36,1.36,0,0,0,.2-1.91,12.13,12.13,0,0,1,6.88-20.43c9.94-1.74,16.76,9,12.51,17.56a1.36,1.36,0,0,0,.75,1.76C46.31,42,52,50.6,48.77,60,48.21,61.69,50.72,62.7,51.28,61.05Z"/><path class="cls-1" d="M20.62,30.75a1.36,1.36,0,0,0-.4-2.68,1.36,1.36,0,0,0,.4,2.68Z"/><path class="cls-1" d="M30.84,29.23a1.35,1.35,0,0,0-.39-2.68,1.35,1.35,0,0,0,.39,2.68Z"/><path class="cls-1" d="M29.42,56.26a1.36,1.36,0,0,0-.4-2.68,1.36,1.36,0,0,0,.4,2.68Z"/><path class="cls-1" d="M31.41,69.65A1.36,1.36,0,0,0,31,67a1.36,1.36,0,0,0,.4,2.68Z"/><path class="cls-1" d="M33.47,83.57a1.36,1.36,0,0,0-.4-2.68,1.36,1.36,0,0,0,.4,2.68Z"/><path class="cls-1" d="M21,35.64a6.18,6.18,0,0,0,10.53-1.57,1.35,1.35,0,0,0-2.51-1,3.44,3.44,0,0,1-5.91.89C22,32.61,19.85,34.3,21,35.64Z"/><path class="cls-1" d="M35.22,21.65c2.54-.6,5.76-3.29,4.14-6.29s-4.18-3-7.1-2.57l1.54,1.14c-.49-3.32-.78-6.74-1.54-10C31.05-1.29,25.38,0,21.6.56c-4.13.61-9.26.71-9.76,6a21.71,21.71,0,0,0,.63,4.94l.8,5.44,1.14-1.54c-2.41.36-5.34,1.06-5.91,3.89-.73,3.61,2.4,5.65,5.66,5.46,1.74-.11,1.33-2.79-.4-2.68-3,.18-3.48-3.06-.56-3.75.52-.12,1.08-.16,1.61-.24A1.37,1.37,0,0,0,16,16.57L14.69,8.09C14,3.68,18.31,3.78,21.47,3.32c3-.44,7.71-2.1,8.35,2.23l1.3,8.77a1.37,1.37,0,0,0,1.54,1.14l1.44-.21c3-.45,3.75,3,.72,3.72-1.68.4-1.3,3.08.4,2.68Z"/></g></g></svg>