<svg xmlns="http://www.w3.org/2000/svg" viewBox="0 0 178.21 212.01"><defs><style>.cls-1{fill:#fff;}.cls-2{fill:#00b1e8;}.cls-3{fill:#0e369e;}.cls-4{fill:none;stroke:#0e369e;stroke-linecap:round;stroke-linejoin:round;stroke-width:4.14px;}</style></defs><g id="Capa_2" data-name="Capa 2"><g id="Layer_1" data-name="Layer 1"><path class="cls-1" d="M163.47,13.78C154.61,8.72,140.79,5,120,2.23s-35.11-3-45-.44c-15.53,4-20.09,14.33-21.17,22.34a25,25,0,0,0,3.85,17.75L55.9,64a13.31,13.31,0,0,0-1.13,14.2L54,87.72a13.31,13.31,0,0,0-1.13,14.2L49,150.72q-2.87.74-5.61,1.53a13,13,0,0,0-3.74-.44,13.21,13.21,0,0,0-9.3,4.11,14.38,14.38,0,0,0-1,1.21l-.88.36A16,16,0,0,0,21,159.27C2.06,169.34-.79,180.15.16,187.45c1,7.94,7.46,18.35,32.12,22.76a15.34,15.34,0,0,0,8.36-.85c.84.08,1.7.15,2.56.21a13.29,13.29,0,0,0,14.8.37,204.44,204.44,0,0,0,22.92-1.76,185.51,185.51,0,0,0,38.45-9,11.21,11.21,0,0,0,7.44-.5c8.65-3.74,19.92-10.16,24.44-19.54,1.2-2.47,2.78-6.95,6.42-29a11.16,11.16,0,0,0-.52-5.65c1.37-8.46,2.91-18.68,4.61-30.45a13.3,13.3,0,0,0,2-14.11c.4-2.89.8-5.78,1.19-8.64a16.86,16.86,0,0,0,3.07-6,13.15,13.15,0,0,0-1-9.58C168,69,168.8,62.63,169.54,57a25,25,0,0,0,8.4-16.05C179,32.94,177.4,21.73,163.47,13.78Z"/><path class="cls-1" d="M127.78,40.22a3,3,0,1,1-4.2-1A3,3,0,0,1,127.78,40.22Z"/><path class="cls-2" d="M70.75,18.66,59.5,159.77c-12.14,2.54-22.74,6-30.76,9.86-10.31,5-16.29,10.66-15.6,16,.79,6,9.92,10.21,23.72,12.1,11.62,1.59,26.53,1.52,42.6-.61,15.16-2,28.87-5.48,39.43-9.69.82-.32,1.6-.65,2.36-1,10-4.33,16.54-9.44,18.8-14.13,1.28-2.64,3.24-12.55,5.45-26C152.31,105.15,161.59,31,161.59,31Z"/><path class="cls-3" d="M123.32,163.48c-4,7.67-3.78,17.56-.95,24.92,10-4.34,16.54-9.45,18.8-14.13,1.28-2.64,3.24-12.56,5.45-26C137.38,148.6,128.27,154.15,123.32,163.48Z"/><path class="cls-3" d="M31.39,170.11a4.15,4.15,0,0,0-5.1-1c-10.06,5.34-15.75,11.27-15,16.83.82,6.21,9.54,10.79,23,13.2a4.17,4.17,0,0,0,4.9-3.63,33.73,33.73,0,0,0-.4-9.89A33.48,33.48,0,0,0,31.39,170.11Z"/><path class="cls-3" d="M118.48,13.32C79.54,8.05,66.66,12.67,64.9,25.63s9.42,21,48.36,26.24,51.83.53,53.59-12.43S157.42,18.6,118.48,13.32Z"/><path class="cls-1" d="M118,17.21a110.52,110.52,0,0,0-37.16,1,.65.65,0,0,0-.06,1.26,238.08,238.08,0,0,0,35.89,7.55,188.77,188.77,0,0,0,39.62,1,.65.65,0,0,0,.17-1.26A188.2,188.2,0,0,0,118,17.21Z"/><path class="cls-4" d="M64.6,95.71c18.87,24.1,72.12,24.54,87.08,9.67"/><path class="cls-4" d="M66.49,72c23,28.88,85.87,20.06,88.75,9.7"/><path class="cls-4" d="M50.85,198.75c1.47-6-4.44-27.53-10.9-33.68"/><path class="cls-1" d="M127.78,40.22a3,3,0,1,1-4.2-1A3,3,0,0,1,127.78,40.22Z"/></g></g></svg>