<svg xmlns="http://www.w3.org/2000/svg" viewBox="0 0 210 210"><defs><style>.cls-1{fill:#00b1e8;}.cls-2{fill:#fff;}</style></defs><g id="Capa_2" data-name="Capa 2"><g id="Textos"><circle class="cls-1" cx="105" cy="105" r="105"/><g id="COyAzg"><path class="cls-2" d="M94.15,151.57q-17.07,0-34.14,0c-4.78,0-8.55-2.8-9.65-7.17a11.8,11.8,0,0,1-.34-2.84q0-21.93,0-43.87c0-6,4.16-10.09,10.16-10.11,3.57,0,7.14,0,10.71,0a5.51,5.51,0,0,0,2.4-.58q25.55-13.53,51.06-27.11c5.55-3,11-1.23,14,4.35q10.08,19.06,20.17,38.13a10.93,10.93,0,0,1,1.39,7c-.52,3.41-2.64,5.56-5.54,7.09-5,2.64-10,5.28-15.06,7.87a1.6,1.6,0,0,0-1,1.69c0,5.16,0,10.31,0,15.47,0,6-4.08,10.11-10.12,10.12Q111.16,151.59,94.15,151.57ZM56,128.14h76.24V127q0-14.62,0-29.27c0-2.89-1.28-4.13-4.2-4.13H60.23c-.29,0-.59,0-.88,0a3.42,3.42,0,0,0-3.23,3A11.48,11.48,0,0,0,56,98.35v29.79Zm82.28-10.29c.5-.24.86-.4,1.21-.58l12-6.29c2.54-1.33,3-3,1.69-5.51L132.89,67.05c-1.33-2.53-3-3.06-5.51-1.74L86.46,86.78l-1,.56.09.23h42.37a13.33,13.33,0,0,1,3,.29,9.56,9.56,0,0,1,7.38,9.51c0,6.33,0,12.66,0,19Zm-6.14,16.32H56c0,2.34,0,4.61,0,6.89,0,3.07,1.33,4.35,4.39,4.35h67.5c.33,0,.66,0,1,0,1.62-.13,3.13-1.19,3.22-2.7C132.27,139.89,132.15,137.06,132.15,134.17Z"/><path class="cls-2" d="M72.5,117.58c-1.55,0-3.1-.07-4.64,0a6.44,6.44,0,0,1-7-6.19,44.79,44.79,0,0,1,0-7c.34-3.7,2.61-5.83,6.54-6,3.59-.15,7.21-.1,10.81.11a6.16,6.16,0,0,1,5.87,6.29c.07,2.1.07,4.21,0,6.3a6.35,6.35,0,0,1-6.58,6.42C75.88,117.6,74.19,117.58,72.5,117.58Zm.12-6c1.51,0,3,0,4.52,0,.83,0,1.21-.17,1.16-1.1-.07-1.65,0-3.31,0-5,0-.81-.23-1.1-1.06-1.09-3.06,0-6.11,0-9.16,0-.74,0-1.09.2-1.07,1,0,1.73,0,3.46,0,5.19,0,.71.25,1,1,1C69.53,111.56,71.07,111.59,72.62,111.59Z"/></g></g></g></svg>