<svg xmlns="http://www.w3.org/2000/svg" viewBox="0 0 210 210"><defs><style>.cls-1{fill:#00b1e8;}.cls-2{fill:#fff;}</style></defs><g id="Capa_2" data-name="Capa 2"><g id="Textos"><circle class="cls-1" cx="105" cy="105" r="105"/><g id="Cxr6A0"><path class="cls-2" d="M106.27,153.91c5.7.9,11.52,1.1,17.29,1.67a2.78,2.78,0,0,0,3.21-1.91c8.32-17.12,24.61-50.22,28.84-58.82a2.31,2.31,0,0,1,3.11-1h0a2.31,2.31,0,0,1,1.05,3.07c-4.26,8.74-21.05,43.15-29.63,60.83a4.43,4.43,0,0,1-4.7,2.91c-25.25-.66-48.72-7.13-69.81-21.3-7.74-5.2-6.26-4.16-2.91-10.92,11-22.08,22-44.1,33-66.18a5.16,5.16,0,0,1,4.53-2.85c14.38-.17,45.25-6.31,51.62-9.19,1.32-.59,2.56-1.4,3.86-.12s.56,2.58-.07,3.87l-38.75,79.34a7.15,7.15,0,0,1-4.31,4c-8.6,3.31-17.5,4-26.58,3.44-1.25-.08-2.5-.18-3.74-.27-.06.36,6.29,2.35,9.53,3a88.81,88.81,0,0,0,30.16,1,3.55,3.55,0,0,0,3.07-2.32c11.69-24,24.83-50.75,36.63-74.85a2.31,2.31,0,0,1,3-1.08l.29.13a2.31,2.31,0,0,1,1.13,3.12c-12.09,24.69-25.65,52-37.6,76.56a5,5,0,0,1-4.27,3,98.76,98.76,0,0,1-25.3.47C88.85,149.68,100.35,153,106.27,153.91Z"/></g></g></g></svg>