<svg xmlns="http://www.w3.org/2000/svg" viewBox="0 0 22.41 22.41"><defs><style>.cls-1{fill:#00aec7;}.cls-2{fill:#ede937;}.cls-3{fill:#0033a0;}</style></defs><g id="Capa_2" data-name="Capa 2"><g id="Textos"><circle class="cls-1" cx="11.2" cy="11.2" r="11.2"/><circle class="cls-2" cx="11.2" cy="11.2" r="9.75"/><path class="cls-3" d="M4.79,16A2.63,2.63,0,0,1,4,14a3.82,3.82,0,0,1,0-.55L4.55,9.2A3.56,3.56,0,0,1,8.27,5.94a3.14,3.14,0,0,1,2.18.73,2.58,2.58,0,0,1,.79,2,3.51,3.51,0,0,1,0,.53l-.51,4.23a3.75,3.75,0,0,1-1.2,2.41A3.76,3.76,0,0,1,7,16.73,3,3,0,0,1,4.79,16Zm3.6-1.23A2,2,0,0,0,9,13.52l.52-4.38a2.07,2.07,0,0,0,0-.29,1.36,1.36,0,0,0-.39-1,1.49,1.49,0,0,0-1.07-.38,1.78,1.78,0,0,0-1.24.46,2,2,0,0,0-.6,1.24l-.54,4.38a1.65,1.65,0,0,0,0,.27,1.33,1.33,0,0,0,1.44,1.42A1.84,1.84,0,0,0,8.39,14.76Z"/><path class="cls-3" d="M11.72,16.32l.12-1a.46.46,0,0,1,.15-.28c.61-.6,1.47-1.48,2.58-2.63l1.11-1.15a5.47,5.47,0,0,0,1.63-2.43,1.18,1.18,0,0,0-.3-1A1.39,1.39,0,0,0,16,7.44a1.67,1.67,0,0,0-1.13.39,1.53,1.53,0,0,0-.53,1l-.05.33a.3.3,0,0,1-.08.17.25.25,0,0,1-.19.07H12.75q-.24,0-.21-.24l.08-.59A2.89,2.89,0,0,1,13.8,6.67a3.92,3.92,0,0,1,2.36-.73,3.32,3.32,0,0,1,1.53.33,2.33,2.33,0,0,1,1,.88A2.4,2.4,0,0,1,19,8.42a5.08,5.08,0,0,1-1.64,3.22c-.71.8-1.66,1.79-2.86,3l-.35.35s0,0,0,.07,0,0,.08,0h4q.24,0,.21.24l-.13,1a.24.24,0,0,1-.26.24H11.93Q11.69,16.56,11.72,16.32Z"/></g></g></svg>