<svg xmlns="http://www.w3.org/2000/svg" viewBox="0 0 66.8 66.8"><defs><style>.cls-1{opacity:0.2;}.cls-2{fill:#00aec7;}.cls-3{fill:none;stroke:#ede937;stroke-linecap:round;stroke-linejoin:round;stroke-width:2.12px;}.cls-4{fill:#fff;}</style></defs><g id="Capa_2" data-name="Capa 2"><g id="Layer_1" data-name="Layer 1"><circle class="cls-1" cx="33.4" cy="33.4" r="33.4"/><circle class="cls-2" cx="34.82" cy="31.01" r="28.52"/><circle class="cls-3" cx="34.82" cy="31.01" r="28.52"/><path class="cls-4" d="M34.82,18.7A12.31,12.31,0,1,0,47.13,31,12.32,12.32,0,0,0,34.82,18.7ZM44.89,31A10.07,10.07,0,1,1,34.82,20.94,10.08,10.08,0,0,1,44.89,31Z"/><path class="cls-4" d="M30.24,30.45a1.83,1.83,0,0,0,1.86-1.91,2,2,0,0,0-.46-1.3,1.9,1.9,0,1,0-1.4,3.21Z"/><path class="cls-4" d="M39.4,30.45a1.83,1.83,0,0,0,1.86-1.91,2,2,0,0,0-.46-1.3,1.94,1.94,0,0,0-2.8,0,2,2,0,0,0-.46,1.29A1.83,1.83,0,0,0,39.4,30.45Z"/><path class="cls-4" d="M41.19,32.16a1.13,1.13,0,0,0-.55.66,6.1,6.1,0,0,1-11.64,0,1.12,1.12,0,0,0-.55-.66,1.11,1.11,0,0,0-1.51.47,1.12,1.12,0,0,0-.08.86,8.34,8.34,0,0,0,15.92,0,1.12,1.12,0,0,0-.08-.86,1.14,1.14,0,0,0-.65-.55A1.12,1.12,0,0,0,41.19,32.16Z"/></g></g></svg>