<svg xmlns="http://www.w3.org/2000/svg" viewBox="0 0 210 210"><defs><style>.cls-1{fill:#00b1e8;}.cls-2{fill:#fff;}.cls-3{fill:none;stroke:#fff;stroke-linecap:round;stroke-linejoin:round;stroke-width:6px;}</style></defs><g id="Capa_2" data-name="Capa 2"><g id="Textos"><circle class="cls-1" cx="105" cy="105" r="105"/><path class="cls-2" d="M129.51,116.76c-.12,1.29-.3,2.52-.3,3.75a2.83,2.83,0,0,0,.55,1.73c1.06,1.29,2.22,2.5,3.37,3.71a2.7,2.7,0,0,1,.6,3.26,37.35,37.35,0,0,1-4.17,7.25,2.76,2.76,0,0,1-3.3,1.15q-2.48-.63-5-1.07a2.26,2.26,0,0,0-1.38.28q-3.42,1.91-6.77,3.9a2.38,2.38,0,0,0-.93,1.08c-.6,1.67-1.15,3.36-1.63,5.07-.33,1.14-1,1.95-2.15,2-3.08.06-6.15,0-9.23,0a2.1,2.1,0,0,1-1.93-1.68c-.57-1.72-1-3.48-1.64-5.18a2.8,2.8,0,0,0-1.13-1.3c-2.14-1.3-4.3-2.54-6.49-3.74a3,3,0,0,0-1.68-.38c-1.65.27-3.28.64-4.89,1.06a2.61,2.61,0,0,1-3.29-1.16c-1.43-2.44-2.88-4.86-4.23-7.34a2.38,2.38,0,0,1,.5-3c1.29-1.33,2.53-2.71,3.72-4.12a2.22,2.22,0,0,0,.4-1.35q0-3.8,0-7.58a2.48,2.48,0,0,0-.41-1.46c-1.18-1.42-2.44-2.78-3.71-4.12a2.49,2.49,0,0,1-.53-2.91,32.2,32.2,0,0,1,4.6-7.87A2.18,2.18,0,0,1,81,95.92c1.82.49,3.67.88,5.52,1.25a1.71,1.71,0,0,0,1.18-.27,29.52,29.52,0,0,1,6.94-4,2.3,2.3,0,0,0,1-1.29c.59-1.68,1.09-3.38,1.61-5.08a2.35,2.35,0,0,1,2.11-1.76,32,32,0,0,1,8.79,0,2.65,2.65,0,0,1,2.44,2.08c.5,1.67,1,3.35,1.58,5A2.66,2.66,0,0,0,113.2,93c2.22,1.36,4.47,2.67,6.74,4a1.87,1.87,0,0,0,1.19.25c1.89-.37,3.77-.76,5.63-1.25a2.06,2.06,0,0,1,2.47.88q2.4,3.89,4.61,7.87a2.36,2.36,0,0,1-.61,2.88c-1.18,1.29-2.41,2.53-3.52,3.87a2.69,2.69,0,0,0-.53,1.63C129.2,114.29,129.39,115.56,129.51,116.76ZM83,111.49l-.19.12a3.13,3.13,0,0,1,0,.43,25,25,0,0,0-.06,9.52A3.18,3.18,0,0,1,82,123.7a49.1,49.1,0,0,1-3.36,3.71,1.34,1.34,0,0,0-.25,1.84c.72,1.13,1.37,2.31,2,3.47a1.06,1.06,0,0,0,1.34.6c1.58-.38,3.19-.68,4.78-1.06a3,3,0,0,1,2.93.62A20.45,20.45,0,0,0,97,137.23a3.2,3.2,0,0,1,2.16,2.38c.45,1.53.94,3,1.39,4.57.17.59.43.91,1.14.88,1.45-.06,2.91-.06,4.36,0,.69,0,1-.25,1.13-.86.45-1.57,1-3.12,1.42-4.68a3,3,0,0,1,2-2.22,21.29,21.29,0,0,0,7.58-4.39,3,3,0,0,1,2.92-.65c1.63.39,3.26.76,4.9,1a1.32,1.32,0,0,0,1.12-.45c.82-1.24,1.51-2.56,2.27-3.84a1.06,1.06,0,0,0-.25-1.44c-1.18-1.23-2.29-2.53-3.46-3.77a2.57,2.57,0,0,1-.76-2.39,22.52,22.52,0,0,0,0-9.07,2.75,2.75,0,0,1,.72-2.52c1.07-1.13,2.08-2.33,3.18-3.43a1.52,1.52,0,0,0,.36-2.18c-.73-1.13-1.4-2.29-2.06-3.46a.94.94,0,0,0-1.25-.5c-1.57.41-3.18.7-4.77,1.1a3.1,3.1,0,0,1-3.1-.76,20,20,0,0,0-7.21-4.16A3.37,3.37,0,0,1,108.54,94c-.46-1.53-1-3-1.45-4.57a1.07,1.07,0,0,0-1.13-.92c-1.42,0-2.84,0-4.25,0a1.2,1.2,0,0,0-1.27,1.07c-.44,1.61-1,3.18-1.46,4.78a2.6,2.6,0,0,1-1.78,1.89,22.14,22.14,0,0,0-7.85,4.57,2.42,2.42,0,0,1-2.31.57c-1.74-.39-3.48-.74-5.21-1.16a1,1,0,0,0-1.27.47c-.74,1.33-1.55,2.62-2.24,4a1.37,1.37,0,0,0,.19,1.2c1.08,1.28,2.27,2.46,3.35,3.73A14.79,14.79,0,0,1,83,111.49Z"/><path class="cls-2" d="M103.79,129.59a12.78,12.78,0,1,1,12.82-12.67A12.76,12.76,0,0,1,103.79,129.59Zm0-4.09a8.7,8.7,0,1,0-8.7-8.76A8.73,8.73,0,0,0,103.81,125.5Z"/><path class="cls-3" d="M62.31,64.6h79a5.17,5.17,0,0,1,5.17,5.17v93.49a5.17,5.17,0,0,1-5.17,5.17H67.47a5.17,5.17,0,0,1-5.17-5.17V64.6A0,0,0,0,1,62.31,64.6Z"/><path class="cls-3" d="M118.54,64.6V47.3a5.17,5.17,0,0,0-7.3-4.71l-48.81,22"/></g></g></svg>