<svg xmlns="http://www.w3.org/2000/svg" viewBox="0 0 210 210"><defs><style>.cls-1{fill:#00b1e8;}.cls-2{fill:#fff;}</style></defs><g id="Capa_2" data-name="Capa 2"><g id="Textos"><circle class="cls-1" cx="105" cy="105" r="105"/><g id="DgSf8g"><path class="cls-2" d="M101.78,50h6.45a6.16,6.16,0,0,0,.83.18,50.84,50.84,0,0,1,19.18,5c16.92,8.3,27.27,21.72,30.89,40.25.41,2.09.59,4.23.87,6.35v6.44a7.62,7.62,0,0,0-.18.93,50,50,0,0,1-5,19.17c-9.81,19.51-25.67,30.16-47.47,31.58a50.08,50.08,0,0,1-28.1-6.38c-18-10.09-27.83-25.56-29.11-46.2a51,51,0,0,1,6.41-28.2c8.57-15.48,21.59-25,39-28.25C97.6,50.47,99.7,50.28,101.78,50ZM95.45,79c-1.43,0-2.87,0-4.3,0A82.73,82.73,0,0,0,70,82.21a7,7,0,0,0-2.51,1.35,5.41,5.41,0,0,0-.94,6.6c1.22,2.18,3.59,3.06,6.31,2.29a79.15,79.15,0,0,1,16.81-2.72,100.9,100.9,0,0,1,21.2.92,75.11,75.11,0,0,1,20,5.49c2.08.93,4.08,2.06,6.15,3a5.06,5.06,0,0,0,6.44-2.06c1.63-2.78.58-6.06-2.48-7.82a74.92,74.92,0,0,0-21.66-7.94A105.16,105.16,0,0,0,95.45,79Zm-1,18.85c-.9,0-1.79,0-2.68,0A75,75,0,0,0,73,100.78a4.46,4.46,0,0,0-3.28,5.73,4.31,4.31,0,0,0,5.59,2.93,72.42,72.42,0,0,1,33.56-1.3A66,66,0,0,1,130,115.91a4.15,4.15,0,0,0,5.74-1.34,4.57,4.57,0,0,0-1.14-6.13,45.35,45.35,0,0,0-5.21-3A78.54,78.54,0,0,0,94.42,97.85Zm.82,17.79c-2.82.18-5.64.34-8.46.55a34.08,34.08,0,0,0-3.62.45c-3,.54-6,1-8.93,1.76A3.45,3.45,0,0,0,72,122.79a3.41,3.41,0,0,0,4,2.49c3.92-.65,7.81-1.42,11.75-1.89a62.31,62.31,0,0,1,19,.59,50.61,50.61,0,0,1,16.26,5.87,12.56,12.56,0,0,0,2.2,1.1,3.36,3.36,0,0,0,4-1.75,3.78,3.78,0,0,0-1.16-4.7,48.3,48.3,0,0,0-4.86-2.73C114.39,117.46,105,115.74,95.24,115.64Z"/></g></g></g></svg>