<svg xmlns="http://www.w3.org/2000/svg" viewBox="0 0 22.41 22.41"><defs><style>.cls-1{fill:#00aec7;}.cls-2{fill:#ede937;}.cls-3{fill:#0033a0;}</style></defs><g id="Capa_2" data-name="Capa 2"><g id="Textos"><circle class="cls-1" cx="11.2" cy="11.2" r="11.2"/><circle class="cls-2" cx="11.2" cy="11.2" r="9.75"/><path class="cls-3" d="M4.85,16a2.63,2.63,0,0,1-.78-2,3.82,3.82,0,0,1,0-.55L4.61,9.2A3.71,3.71,0,0,1,5.8,6.82a3.73,3.73,0,0,1,2.53-.88,3.11,3.11,0,0,1,2.17.73,2.58,2.58,0,0,1,.8,2,3.51,3.51,0,0,1,0,.53l-.51,4.23a3.71,3.71,0,0,1-1.21,2.41A3.71,3.71,0,0,1,7,16.73,3,3,0,0,1,4.85,16Zm3.6-1.23a2,2,0,0,0,.62-1.24l.52-4.38a2.07,2.07,0,0,0,0-.29,1.33,1.33,0,0,0-.4-1,1.46,1.46,0,0,0-1.06-.38A1.8,1.8,0,0,0,6.9,7.9a1.94,1.94,0,0,0-.59,1.24l-.54,4.38a1,1,0,0,0,0,.27,1.32,1.32,0,0,0,1.44,1.42A1.84,1.84,0,0,0,8.45,14.76Z"/><path class="cls-3" d="M18.51,12.62a4.54,4.54,0,0,1,0,.6A5.46,5.46,0,0,1,18,14.7a3.32,3.32,0,0,1-1.27,1.47,3.67,3.67,0,0,1-1.94.51,2.8,2.8,0,0,1-1.8-.56,2.5,2.5,0,0,1-.94-1.52,4.61,4.61,0,0,1-.08-.8,2.93,2.93,0,0,1,0-.36.34.34,0,0,1,.08-.17.26.26,0,0,1,.17-.07h1.25a.18.18,0,0,1,.21.2,6.22,6.22,0,0,0,0,.75,1.32,1.32,0,0,0,.41.76,1.26,1.26,0,0,0,.83.27,1.52,1.52,0,0,0,1.43-.9,3,3,0,0,0,.34-1.11q0-.33,0-.48a2.47,2.47,0,0,0-.12-.79,1.11,1.11,0,0,0-1.18-.84,1.25,1.25,0,0,0-.6.19.37.37,0,0,1-.15.05.2.2,0,0,1-.17-.11l-.52-.79a.49.49,0,0,1,0-.12.32.32,0,0,1,.1-.23l2.64-2.38s.05-.06,0-.08,0,0-.07,0H13.13A.21.21,0,0,1,13,7.5a.27.27,0,0,1,0-.18l.12-1a.28.28,0,0,1,.09-.17.25.25,0,0,1,.18-.07H19a.19.19,0,0,1,.16.07.24.24,0,0,1,0,.17l-.13,1.13a.48.48,0,0,1-.15.3L16.56,9.9a.06.06,0,0,0,0,.07s0,0,.07,0a2.06,2.06,0,0,1,1.77,1.55A4.57,4.57,0,0,1,18.51,12.62Z"/></g></g></svg>