<svg xmlns="http://www.w3.org/2000/svg" viewBox="0 0 22.41 22.41"><defs><style>.cls-1{fill:#00aec7;}.cls-2{fill:#ede937;}.cls-3{fill:#0033a0;}</style></defs><g id="Capa_2" data-name="Capa 2"><g id="Textos"><circle class="cls-1" cx="11.2" cy="11.2" r="11.2"/><circle class="cls-2" cx="11.2" cy="11.2" r="9.75"/><path class="cls-3" d="M6.34,16a2.63,2.63,0,0,1-.78-2,3.82,3.82,0,0,1,0-.55L6.1,9.2A3.66,3.66,0,0,1,7.29,6.82a3.71,3.71,0,0,1,2.53-.88A3.11,3.11,0,0,1,12,6.67a2.58,2.58,0,0,1,.8,2,3.51,3.51,0,0,1,0,.53l-.51,4.23A3.76,3.76,0,0,1,11,15.84a3.73,3.73,0,0,1-2.54.89A3,3,0,0,1,6.34,16Zm3.6-1.23a2,2,0,0,0,.61-1.24l.53-4.38a2.36,2.36,0,0,0,0-.29,1.36,1.36,0,0,0-.39-1,1.46,1.46,0,0,0-1.06-.38,1.8,1.8,0,0,0-1.25.46,2,2,0,0,0-.6,1.24l-.54,4.38a1.94,1.94,0,0,0,0,.27,1.37,1.37,0,0,0,.38,1,1.41,1.41,0,0,0,1.06.38A1.84,1.84,0,0,0,9.94,14.76Z"/><path class="cls-3" d="M16.18,6.06h1.3a.21.21,0,0,1,.17.07.24.24,0,0,1,0,.17l-1.23,10a.24.24,0,0,1-.26.24H15a.21.21,0,0,1-.16-.06.27.27,0,0,1,0-.18l1.05-8.5c0-.07,0-.1-.11-.08l-1.39.39-.08,0a.15.15,0,0,1-.13-.06.23.23,0,0,1,0-.17l.1-.87a.32.32,0,0,1,.21-.27l1.5-.66A.65.65,0,0,1,16.18,6.06Z"/></g></g></svg>