<svg xmlns="http://www.w3.org/2000/svg" viewBox="0 0 592.21 699.21"><defs><style>.cls-1{fill:#0e369e;}.cls-2{fill:#00b1e8;}</style></defs><g id="Capa_2" data-name="Capa 2"><g id="Layer_1" data-name="Layer 1"><path class="cls-1" d="M3.19,699.21c4.26,0,4.26-6.61,0-6.61s-4.26,6.61,0,6.61Z"/><path class="cls-1" d="M272.52,691.93a5,5,0,1,0-5-5,5.06,5.06,0,0,0,5,5Z"/><path class="cls-1" d="M385,597.5c3.22,0,3.23-5,0-5s-3.22,5,0,5Z"/><path class="cls-1" d="M33.82,34.93c3.22,0,3.22-5,0-5s-3.22,5,0,5Z"/><path class="cls-1" d="M404.94,5c3.21,0,3.22-5,0-5s-3.23,5,0,5Z"/><path class="cls-1" d="M578.59,344.7a5,5,0,1,0-5-5,5,5,0,0,0,5,5Z"/><path class="cls-1" d="M189.45,23.46a5,5,0,1,0-5-5,5.05,5.05,0,0,0,5,5Z"/><path class="cls-1" d="M580.11,79.41a5,5,0,1,0-5-5,5.05,5.05,0,0,0,5,5Z"/><path class="cls-1" d="M35.82,426.5a5,5,0,1,0-5-5,5.06,5.06,0,0,0,5,5Z"/><path class="cls-2" d="M293.2,593.51c3.22,0,3.23-5,0-5s-3.22,5,0,5Z"/><path class="cls-2" d="M93.68,17c3.22,0,3.22-5,0-5s-3.22,5,0,5Z"/><path class="cls-2" d="M509.27,11c3.22,0,3.22-5,0-5s-3.22,5,0,5Z"/><path class="cls-2" d="M589.79,227.55c3.22,0,3.23-5,0-5s-3.22,5,0,5Z"/><path class="cls-2" d="M33.82,169.69c3.22,0,3.22-5,0-5s-3.22,5,0,5Z"/><path class="cls-2" d="M582.59,449.94c3.21,0,3.22-5,0-5s-3.23,5,0,5Z"/><path class="cls-2" d="M313.16,11c3.21,0,3.22-5,0-5s-3.23,5,0,5Z"/><path class="cls-1" d="M108.64,585.56c3.22,0,3.23-5,0-5s-3.22,5,0,5Z"/><path class="cls-1" d="M78.71,214.45c3.22,0,3.23-5,0-5s-3.22,5,0,5Z"/><path class="cls-1" d="M94.68,432.43a5,5,0,1,0-5-5,5.06,5.06,0,0,0,5,5Z"/><path class="cls-2" d="M90.69,525.7c3.21,0,3.22-5,0-5s-3.23,5,0,5Z"/><path class="cls-2" d="M84.7,110.11c3.22,0,3.22-5,0-5s-3.22,5,0,5Z"/><path class="cls-2" d="M84.7,306.23c3.22,0,3.22-5,0-5s-3.22,5,0,5Z"/><path class="cls-1" d="M184.63,661.73c3.22,0,3.23-5,0-5s-3.22,5,0,5Z"/><path class="cls-1" d="M154.71,290.61c3.21,0,3.22-5,0-5s-3.23,5,0,5Z"/><path class="cls-1" d="M170.67,508.6a5,5,0,1,0-5-5,5.06,5.06,0,0,0,5,5Z"/><path class="cls-2" d="M166.68,601.87c3.21,0,3.22-5,0-5s-3.23,5,0,5Z"/><path class="cls-2" d="M160.69,186.28c3.22,0,3.22-5,0-5s-3.22,5,0,5Z"/><path class="cls-2" d="M160.69,382.39c3.22,0,3.22-5,0-5s-3.22,5,0,5Z"/><path class="cls-1" d="M272.52,528.33c3.21,0,3.22-5,0-5s-3.23,5,0,5Z"/><path class="cls-1" d="M242.59,157.22c3.21,0,3.22-5,0-5s-3.23,5,0,5Z"/><path class="cls-1" d="M258.55,375.21a5,5,0,1,0-5-5,5.06,5.06,0,0,0,5,5Z"/><path class="cls-2" d="M254.56,468.48c3.22,0,3.22-5,0-5s-3.22,5,0,5Z"/><path class="cls-2" d="M248.57,52.89c3.22,0,3.23-5,0-5s-3.22,5,0,5Z"/><path class="cls-2" d="M248.57,249c3.22,0,3.23-5,0-5s-3.22,5,0,5Z"/><path class="cls-1" d="M343.08,593.51c3.22,0,3.23-5,0-5s-3.22,5,0,5Z"/><path class="cls-1" d="M313.16,222.39c3.21,0,3.22-5,0-5s-3.23,5,0,5Z"/><path class="cls-1" d="M329.12,440.38a5,5,0,1,0-5-5,5.06,5.06,0,0,0,5,5Z"/><path class="cls-2" d="M325.13,533.65c3.21,0,3.22-5,0-5s-3.23,5,0,5Z"/><path class="cls-2" d="M319.14,118.06c3.22,0,3.22-5,0-5s-3.22,5,0,5Z"/><path class="cls-2" d="M319.14,314.17c3.22,0,3.22-5,0-5s-3.22,5,0,5Z"/><path class="cls-1" d="M570.71,492.42c3.22,0,3.23-5,0-5s-3.22,5,0,5Z"/><path class="cls-1" d="M540.79,121.3c3.21,0,3.22-5,0-5s-3.23,5,0,5Z"/><path class="cls-1" d="M556.75,339.29a5,5,0,1,0-5-5,5.06,5.06,0,0,0,5,5Z"/><path class="cls-2" d="M552.76,432.56c3.21,0,3.22-5,0-5s-3.22,5,0,5Z"/><path class="cls-2" d="M546.77,17c3.22,0,3.22-5,0-5s-3.22,5,0,5Z"/><path class="cls-2" d="M546.77,213.09c3.22,0,3.22-5,0-5s-3.22,5,0,5Z"/><path class="cls-1" d="M459.89,539.89c3.22,0,3.23-5,0-5s-3.22,5,0,5Z"/><path class="cls-1" d="M430,168.78c3.22,0,3.23-5,0-5s-3.22,5,0,5Z"/><path class="cls-1" d="M445.93,386.76a5,5,0,1,0-5-5,5.06,5.06,0,0,0,5,5Z"/><path class="cls-2" d="M441.94,480c3.21,0,3.22-5,0-5s-3.23,5,0,5Z"/><path class="cls-2" d="M436,64.44c3.22,0,3.22-5,0-5s-3.22,5,0,5Z"/><path class="cls-2" d="M436,260.56c3.22,0,3.22-5,0-5s-3.22,5,0,5Z"/><path class="cls-1" d="M521.29,667.66c3.22,0,3.22-5,0-5s-3.22,5,0,5Z"/><path class="cls-1" d="M491.36,296.54c3.22,0,3.22-5,0-5s-3.22,5,0,5Z"/><path class="cls-1" d="M507.32,514.53a5,5,0,1,0-5-5,5.05,5.05,0,0,0,5,5Z"/><path class="cls-2" d="M503.33,607.8c3.22,0,3.22-5,0-5s-3.22,5,0,5Z"/><path class="cls-2" d="M497.35,192.21c3.21,0,3.22-5,0-5s-3.23,5,0,5Z"/><path class="cls-2" d="M497.35,388.32c3.21,0,3.22-5,0-5s-3.23,5,0,5Z"/></g></g></svg>