<?xml version="1.0" encoding="utf-8"?>
<!-- Generator: Adobe Illustrator 24.1.2, SVG Export Plug-In . SVG Version: 6.00 Build 0)  -->
<svg version="1.1" id="Capa_1" xmlns="http://www.w3.org/2000/svg" xmlns:xlink="http://www.w3.org/1999/xlink" x="0px" y="0px"
	 viewBox="0 0 943.3 1374.7" style="enable-background:new 0 0 943.3 1374.7;" xml:space="preserve">
<style type="text/css">
	.st0{fill:#FFFFFF;}
	.st1{opacity:0.3;fill:#FFFFFF;enable-background:new    ;}
	.st2{opacity:0.2;fill:#FFFFFF;enable-background:new    ;}
	.st3{fill:#00B1E8;}
	.st4{opacity:0.5;fill:#FFFFFF;enable-background:new    ;}
	.st5{fill:#0E369E;}
	.st6{fill:url(#SVGID_1_);}
	.st7{fill:url(#SVGID_2_);}
	.st8{fill:url(#SVGID_3_);}
	.st9{fill:url(#SVGID_4_);}
	.st10{fill:url(#SVGID_5_);}
	.st11{fill:url(#SVGID_6_);}
	.st12{fill:none;stroke:#00B1E8;stroke-miterlimit:10;}
	.st13{fill:none;stroke:url(#SVGID_7_);stroke-miterlimit:10;}
	.st14{fill:none;stroke:#0E369E;stroke-width:0.83;stroke-linecap:round;stroke-linejoin:round;}
	.st15{fill:none;stroke:#FFFFFF;stroke-width:0.83;stroke-linecap:round;stroke-linejoin:round;}
	.st16{fill:#676565;}
	.st17{opacity:5.000000e-02;fill:#FFFFFF;enable-background:new    ;}
	.st18{opacity:0.15;}
	.st19{fill:url(#SVGID_8_);}
</style>
<path class="st0" d="M823.5,267.3c2.3,0.7,3.6,3.1,2.9,5.4s-3.1,3.6-5.4,2.9c-2.3-0.7-3.6-3.1-2.9-5.4c0,0,0,0,0,0
	C818.8,267.9,821.2,266.6,823.5,267.3C823.5,267.3,823.5,267.3,823.5,267.3z"/>
<polygon class="st1" points="790.5,991.5 794.8,1017.3 820.6,1021.1 797.5,1033.2 801.8,1058.9 783.2,1040.6 760,1052.7 
	771.6,1029.3 753,1011 778.8,1014.9 "/>
<path class="st0" d="M935.1,169.2c0-0.6-0.6-1.1-1.2-1.1c0,0,0,0,0,0l-4.3,0.3l4.5-5.9c0.3-0.5,0.2-1.3-0.4-1.6
	c-0.5-0.3-1.1-0.2-1.5,0.2l-5.7,7.5l-5.2,0.3l3.4-4.1c0.4-0.5,0.3-1.2-0.1-1.6c-0.5-0.4-1.2-0.3-1.6,0.1l0,0l-4.8,5.8l-9.8,0.6
	l6.5-7.4l7.5-0.3l0,0c0.6,0,1.1-0.6,1.1-1.2c0-0.6-0.6-1.1-1.2-1.1l-5.4,0.2l3.4-3.9h9.4h0.1c0.6,0,1.1-0.5,1.1-1.2
	c0-0.6-0.5-1.1-1.2-1.1h-7.4l2.8-3.3c0.4-0.5,0.4-1.2-0.1-1.6c-0.5-0.4-1.2-0.4-1.6,0.1l0,0l-2.9,3.3l-1-7.3c-0.1-0.6-0.7-1.1-1.3-1
	c-0.6,0.1-1.1,0.7-1,1.3l1.3,9.3l-3.4,3.9l-0.5-5.4c-0.1-0.6-0.6-1.1-1.2-1c0,0,0,0,0,0c-0.6,0.1-1.1,0.6-1,1.2l0.7,7.5l-6.5,7.4
	l-0.7-9.8l5.1-5.6c0.4-0.5,0.3-1.2-0.2-1.6c-0.5-0.4-1.1-0.3-1.5,0.1l-3.6,4l-0.3-5.2l6.7-6.6c0.5-0.5,0.5-1.2,0-1.6s-1.2-0.5-1.6,0
	l-5.2,5.2l-0.3-4.3c0-0.6-0.6-1.1-1.2-1.1s-1.1,0.6-1.1,1.2l0,0l0.3,4.3l-5.9-4.5c-0.5-0.4-1.2-0.3-1.6,0.2s-0.3,1.2,0.2,1.6
	l7.5,5.7l0.3,5.2l-4.1-3.4c-0.5-0.4-1.2-0.3-1.6,0.2c-0.4,0.5-0.3,1.2,0.2,1.6l5.8,4.8l0.7,9.8l-7.4-6.4l-0.3-7.6
	c0-0.6-0.5-1.1-1.2-1.1c0,0,0,0,0,0l0,0c-0.6,0-1.1,0.6-1.1,1.2l0.2,5.4l-3.9-3.4v-9.4c0-0.6-0.5-1.1-1.2-1.2
	c-0.6,0-1.2,0.5-1.2,1.1c0,0,0,0,0,0v7.4l-3.3-2.9c-0.5-0.4-1.2-0.3-1.6,0.2c-0.4,0.5-0.3,1.1,0.1,1.5l3.2,2.9l-7.3,1
	c-0.6,0.1-1.1,0.6-1,1.3c0.1,0.6,0.6,1.1,1.3,1l0,0h0.1l9.3-1.3l3.9,3.4l-5.3,0.5c-0.6,0-1.1,0.6-1.1,1.2c0,0.6,0.6,1.1,1.2,1.1l0,0
	l0,0l7.5-0.7l7.4,6.5l-9.8,0.6l-5.6-5.1c-0.5-0.4-1.2-0.4-1.6,0.1c-0.4,0.5-0.4,1.2,0.1,1.6l4,3.6l-5.2,0.3l-6.6-6.7
	c-0.5-0.5-1.2-0.5-1.6,0s-0.5,1.2,0,1.6l5.2,5.2l-4.3,0.3c-0.6,0-1.1,0.6-1.1,1.2c0,0.6,0.6,1.1,1.2,1.1l4.3-0.3l-4.5,5.9
	c-0.4,0.5-0.3,1.2,0.2,1.6c0.5,0.4,1.2,0.3,1.6-0.2c0,0,0,0,0.1-0.1l5.7-7.5l5.2-0.3l-3.4,4.1c-0.4,0.5-0.3,1.2,0.1,1.6c0,0,0,0,0,0
	c0.5,0.4,1.2,0.4,1.6-0.1c0,0,0,0,0,0l4.8-5.8l9.8-0.6l-6.5,7.4l-7.6,0.3l0,0c-0.6,0-1.1,0.6-1.1,1.2c0,0.6,0.6,1.1,1.2,1.1l5.4-0.2
	l-3.4,3.9h-9.4c-0.6,0.1-1.1,0.6-1,1.3c0.1,0.6,0.5,1,1,1h7.4l-3,3.2c-0.4,0.5-0.4,1.2,0.1,1.6c0.2,0.2,0.5,0.3,0.8,0.3
	c0.3,0,0.6-0.2,0.8-0.4l2.9-3.2l1,7.3c0.1,0.6,0.6,1,1.2,1h0.1c0.6-0.1,1.1-0.7,1-1.3c0,0,0,0,0,0l-1.3-9.3l3.4-3.9l0.5,5.4
	c0.1,0.6,0.6,1,1.2,1l0,0c0.6-0.1,1.1-0.6,1-1.2l-0.7-7.5l6.5-7.4l0.7,9.8l-5.1,5.6c-0.4,0.5-0.4,1.2,0.1,1.6
	c0.2,0.2,0.5,0.3,0.9,0.3c0.3,0,0.6-0.2,0.8-0.4l3.6-4l0.3,5.2l-6.7,6.6c-0.5,0.4-0.5,1.2,0,1.6c0,0,0,0,0,0
	c0.2,0.2,0.6,0.4,0.9,0.3c0.3,0,0.5-0.1,0.7-0.3l5.2-5.2l0.3,4.3c0,0.6,0.6,1.1,1.2,1.1s1.1-0.6,1.1-1.2l-0.3-4.3l5.9,4.5
	c0.5,0.4,1.2,0.3,1.6-0.2c0,0,0,0,0,0c0.4-0.5,0.3-1.2-0.2-1.6l-7.4-5.6l-0.3-5.2l4.1,3.4c0.2,0.2,0.5,0.3,0.8,0.3
	c0.6-0.1,1.1-0.6,1-1.3c0-0.3-0.2-0.6-0.4-0.7l-5.8-4.9l-0.7-9.8l7.4,6.5l0.3,7.6c0,0.6,0.5,1.1,1.2,1.1c0,0,0,0,0,0l0,0
	c0.6,0,1.1-0.6,1.1-1.2l-0.2-5.4l3.9,3.4v9.4c0,0.6,0.5,1.1,1.1,1.1c0,0,0,0,0,0h0.1c0.6,0,1.1-0.5,1.1-1.1v-7.4l3.3,2.9
	c0.5,0.4,1.2,0.4,1.6-0.1c0.4-0.5,0.4-1.2-0.1-1.6l-3.3-2.9l7.3-1c0.6,0,1.1-0.6,1.1-1.2c0-0.6-0.6-1.1-1.2-1.1c-0.1,0-0.1,0-0.2,0
	l-9.3,1.3l-3.9-3.4l5.3-0.5c0.6-0.1,1.1-0.6,1-1.2c-0.1-0.6-0.6-1.1-1.2-1c0,0,0,0,0,0l-7.5,0.7l-7.4-6.5l9.8-0.6l5.6,5.1
	c0.2,0.2,0.5,0.3,0.8,0.3c0.3,0,0.6-0.1,0.8-0.4c0.4-0.5,0.4-1.2-0.1-1.6c0,0,0,0,0,0l-4-3.6l5.2-0.3l6.6,6.7
	c0.2,0.2,0.6,0.4,0.9,0.3c0.3,0,0.5-0.1,0.7-0.3c0.4-0.5,0.4-1.2,0-1.6l-5.2-5.2l4.3-0.3c0.6,0,1.2-0.5,1.2-1.1
	C935.1,169.3,935.1,169.2,935.1,169.2z"/>
<circle class="st0" cx="844.6" cy="209.4" r="17.9"/>
<path class="st2" d="M140.5,643.1l-55.9,21.6l24.3-54.8c1.2-2.8,0-6.1-2.8-7.4c-2.8-1.2-6.1,0-7.4,2.8l-24.3,54.8l-21.6-55.9
	c-1.1-2.9-4.3-4.3-7.2-3.2s-4.3,4.3-3.2,7.2L64,664.2L9.2,639.9c-2.8-1.2-6.1,0-7.4,2.8c-1.2,2.8,0,6.1,2.8,7.4l54.8,24.3L3.6,696
	c-2.9,1.1-4.3,4.3-3.2,7.2s4.3,4.3,7.2,3.2l55.9-21.6l-24.3,54.8c-1.2,2.8,0,6.1,2.8,7.3c2.8,1.2,6.1,0,7.4-2.8l0,0l24.3-54.8
	l21.6,55.9c1.1,2.9,4.3,4.3,7.2,3.2c2.9-1.1,4.3-4.3,3.2-7.2l0,0l-21.6-55.9l54.8,24.3c2.8,1.2,6.1,0,7.4-2.8c1.2-2.8,0-6.1-2.8-7.4
	l0,0l-54.8-24.3l55.9-21.6c2.9-1.1,4.3-4.3,3.2-7.2S143.4,642,140.5,643.1L140.5,643.1L140.5,643.1z"/>
<polygon class="st3" points="183.6,1235 184.9,1243.3 193.2,1244.5 185.8,1248.4 187.2,1256.7 181.2,1250.8 173.8,1254.7 
	177.5,1247.2 171.5,1241.3 179.8,1242.6 "/>
<path class="st4" d="M114.2,1127.3c0.3-1-0.2-2.1-1.2-2.4c0,0,0,0,0,0l-6.8-2.2l10.4-6.3c0.9-0.6,1.2-1.7,0.6-2.6s-1.7-1.2-2.6-0.6
	l0,0l-13.2,8l-8.1-2.6l7.8-4.2c0.9-0.6,1.2-1.7,0.6-2.6c-0.5-0.8-1.6-1.1-2.4-0.7l-10.9,6l-15.5-4.9l14.4-7.5l11.8,4.1l0,0
	c1,0.3,2.1-0.3,2.3-1.3c0.3-0.9-0.2-1.9-1.1-2.3l-8.4-2.9l7.6-3.9l14.4,5.7h0.1c1,0.3,2.1-0.3,2.4-1.3c0.3-0.9-0.2-1.9-1.1-2.3
	l-11.3-4.5l6.3-3.3c0.9-0.4,1.4-1.6,0.9-2.5c-0.4-0.9-1.6-1.4-2.5-0.9c0,0-0.1,0-0.1,0.1l-6.3,3.3l2.9-11.8c0.2-1-0.5-2-1.5-2.2
	c-1-0.2-1.9,0.4-2.2,1.3l-3.7,15l-7.6,3.9l2.5-8.5c0.3-1-0.2-2-1.2-2.3c0,0-0.1,0-0.1,0c-1-0.3-2.1,0.3-2.4,1.3l-3.5,12l-14.3,7.5
	l4.9-15.5l11.2-5.4c0.9-0.5,1.3-1.6,0.9-2.5c-0.5-0.9-1.6-1.3-2.5-0.9l-7.9,3.9l2.6-8.1l14.2-6.1c1-0.4,1.4-1.6,0.9-2.5
	c-0.4-0.9-1.5-1.3-2.4-1l-11.2,4.8l2.2-6.8c0.3-1-0.3-2.1-1.3-2.3c-1-0.3-2,0.2-2.3,1.2l-2.2,6.8l-6.3-10.4
	c-0.6-0.9-1.7-1.2-2.6-0.6s-1.2,1.7-0.6,2.6l8.1,13.2l-2.6,8.1l-4.2-7.8c-0.5-0.9-1.7-1.2-2.6-0.7c-0.9,0.5-1.2,1.6-0.7,2.5l6,10.9
	l-4.9,15.5l-7.5-14.4l4.1-11.8c0.3-1-0.2-2-1.2-2.4l0,0c-1-0.3-2,0.2-2.4,1.2l-2.9,8.3l-3.9-7.6l5.7-14.4c0.4-1-0.1-2.1-1.1-2.5
	c-0.9-0.4-2,0-2.4,1c0,0,0,0,0,0.1l-4.5,11.3l-3.3-6.4c-0.4-1-1.5-1.4-2.5-1c-1,0.4-1.4,1.5-1,2.5c0,0.1,0.1,0.1,0.1,0.2l3.3,6.3
	l-11.8-2.9c-1-0.2-2,0.4-2.3,1.5c-0.2,0.9,0.3,1.9,1.3,2.2h0.1l15,3.7l3.9,7.6l-8.5-2.5c-1-0.3-2.1,0.3-2.4,1.3s0.3,2.1,1.3,2.4l0,0
	l12,3.5l7.5,14.5l-15.5-4.9l-5.5-11.2c-0.5-0.9-1.6-1.3-2.5-0.9c-0.9,0.5-1.3,1.6-0.9,2.5l3.9,8l-8.1-2.6l-6.1-14.3
	c-0.4-1-1.5-1.4-2.5-1c-1,0.4-1.4,1.5-1,2.5l4.8,11.2l-6.8-2.2c-1-0.3-2.1,0.3-2.3,1.3c-0.3,1,0.2,2,1.2,2.3l6.8,2.2l-10.4,6.3
	c-0.9,0.5-1.2,1.7-0.6,2.6c0,0,0,0,0,0c0.5,0.9,1.7,1.2,2.6,0.6c0,0,0,0,0,0l13.2-8.1l8.1,2.6l-7.8,4.2c-0.9,0.5-1.2,1.7-0.7,2.6
	c0.5,0.9,1.6,1.2,2.5,0.7l10.9-6l15.5,4.9l-14.4,7.5l-11.8-4.1l0,0c-1-0.3-2.1,0.2-2.4,1.2c-0.3,1,0.2,2.1,1.2,2.4l0,0l8.4,2.9
	l-7.6,3.9l-14.4-5.7c-1-0.4-2.1,0.1-2.5,1c0,0,0,0,0,0c-0.4,1,0.1,2.1,1.1,2.5l11.3,4.5l-6.3,3.3c-1,0.4-1.4,1.5-1,2.5
	c0.4,1,1.5,1.4,2.5,1c0.1,0,0.1-0.1,0.2-0.1l6.3-3.3l-2.9,11.8c-0.2,1,0.3,2,1.3,2.3H32c1,0.2,2-0.4,2.3-1.4c0,0,0,0,0,0l3.7-15
	l7.6-3.9l-2.5,8.5c-0.3,1,0.3,2,1.2,2.3h0c1,0.3,2.1-0.3,2.3-1.3c0,0,0,0,0,0l3.5-12l14.4-7.5l-4.9,15.5l-11.2,5.5
	c-0.9,0.5-1.3,1.6-0.9,2.5c0,0,0,0,0,0c0.2,0.5,0.6,0.8,1.1,1c0.5,0.2,1,0.1,1.4-0.1l8-3.9l-2.6,8.1l-14.2,6.1c-1,0.4-1.4,1.5-1,2.5
	c0.4,1,1.5,1.4,2.5,1l11.2-4.8l-2.2,6.8c-0.3,1,0.3,2.1,1.3,2.3c1,0.3,2-0.2,2.3-1.2l2.2-6.8l6.3,10.4c0.5,0.9,1.7,1.2,2.6,0.6
	c0,0,0,0,0,0c0.9-0.6,1.2-1.7,0.6-2.6l-8.1-13.2l2.6-8.1l4.2,7.8c0.2,0.4,0.6,0.8,1.1,0.9c1,0.3,2.1-0.2,2.4-1.2
	c0.2-0.5,0.1-1-0.1-1.5l-6-10.9l4.9-15.5l7.5,14.4l-4.1,11.8c-0.3,1,0.2,2.1,1.2,2.4l0,0c1,0.3,2-0.2,2.4-1.2l2.9-8.4l3.9,7.6
	l-5.7,14.4c-0.4,1,0.1,2.1,1.1,2.5c0,0,0,0,0,0h0.1c1,0.3,2-0.2,2.3-1.1l4.5-11.3l3.3,6.3c0.5,0.9,1.7,1.2,2.6,0.7
	c0.9-0.5,1.2-1.6,0.8-2.5l-3.3-6.3l11.8,2.9c1,0.3,2.1-0.3,2.4-1.3s-0.3-2.1-1.3-2.4c-0.1,0-0.1,0-0.2,0l-15-3.7l-3.9-7.6l8.5,2.5
	c1,0.3,2-0.2,2.4-1.2c0.3-1-0.2-2-1.2-2.3c0,0-0.1,0-0.1,0l-12-3.5l-7.5-14.4l15.5,4.9l5.5,11.2c0.5,0.9,1.6,1.3,2.5,0.9
	c0.9-0.5,1.3-1.6,0.9-2.5l-3.9-7.9l8.1,2.6l6.1,14.2c0.4,1,1.6,1.4,2.5,0.9c0.9-0.4,1.3-1.5,1-2.4l-4.8-11.2l6.8,2.2
	C112.8,1128.8,113.9,1128.3,114.2,1127.3z"/>
<path class="st0" d="M871.9,1170.3c3.4-1.6,7.5-0.1,9.1,3.3c1.6,3.4,0.1,7.5-3.3,9.1c-3.4,1.6-7.5,0.1-9.1-3.3c0,0,0,0,0,0
	C867,1176,868.5,1172,871.9,1170.3C871.9,1170.3,871.9,1170.3,871.9,1170.3z"/>
<path class="st4" d="M108,180.9l-28.5,11l12.4-28c0.6-1.4-0.1-3.1-1.5-3.7c-1.4-0.6-3,0-3.7,1.4l-12.4,28l-11-28.5
	c-0.5-1.5-2.1-2.3-3.6-1.8s-2.3,2.1-1.8,3.6c0,0.1,0.1,0.2,0.1,0.3l11,28.5l-28-12.4c-1.4-0.6-3.1,0.1-3.7,1.5c-0.6,1.4,0,3,1.4,3.7
	l28,12.4l-28.5,11c-1.4,0.7-2,2.4-1.3,3.8c0.6,1.2,2,1.9,3.3,1.5l28.5-11l-12.4,28c-0.6,1.4,0,3.1,1.5,3.8c0.7,0.3,1.5,0.3,2.2,0.1
	c0.7-0.3,1.3-0.8,1.6-1.5l12.4-28l11,28.5c0.6,1.5,2.2,2.2,3.7,1.6c1.4-0.6,2.1-2.1,1.6-3.6l-11-28.5l28,12.4
	c0.7,0.3,1.5,0.3,2.2,0.1c0.7-0.3,1.3-0.8,1.6-1.5c0.6-1.4,0-3.1-1.4-3.8l-28-12.4l28.5-11c1.4-0.6,2.1-2.3,1.4-3.8
	C110.9,181.2,109.4,180.5,108,180.9L108,180.9z"/>
<path class="st0" d="M565.2,95.5c-8.7-1.4-16.8,4.6-18.2,13.2c0,0,0,0,0,0c-1.1,7.1,3.7,13.7,10.8,14.8c5.8,0.9,11.2-3.1,12.1-8.8
	c0.1-0.7-0.4-1.3-1-1.4c-0.7-0.1-1.3,0.4-1.4,1c-0.7,4.4-4.9,7.5-9.3,6.8c0,0,0,0,0,0c-5.7-0.9-9.7-6.3-8.8-12c0,0,0,0,0,0
	c1.1-7.3,8-12.3,15.4-11.2c0,0,0,0,0,0c9.3,1.5,15.7,10.2,14.2,19.5c-1.9,11.8-12.9,19.9-24.8,18.1c-5.2-0.8-12.3-5.9-21.3-12.2
	c-14-9.9-32.3-22.9-56.1-29.3c1.4,0,2.7,0,4.1,0c8.7,0,17.7-0.6,21.7-2.6c9.5-4.2,13.7-15.2,9.6-24.6S497,53,487.5,57.2
	c-0.5,0.2-1,0.5-1.5,0.8c-6.9,3.4-19.3,21.1-24.8,29.3V0h-2.5v88.4c-4.9-7.4-18.3-26.8-25.5-30.5c-9.3-4.6-20.5-0.8-25.1,8.4
	s-0.8,20.5,8.4,25.1c4,2,13,2.6,21.8,2.6c1.4,0,2.8,0,4.1,0c-23.8,6.4-42.1,19.4-56.1,29.3c-9,6.4-16.1,11.4-21.4,12.2
	c-11.8,1.8-22.9-6.3-24.8-18.1c-1.5-9.3,4.9-18.1,14.3-19.6c7.3-1.1,14.2,3.9,15.4,11.2c0.9,5.7-3,11.1-8.8,12
	c-2.1,0.3-4.3-0.2-6.1-1.5c-1.8-1.3-2.9-3.2-3.2-5.3c-0.1-0.7-0.7-1.1-1.4-1c-0.7,0.1-1.1,0.7-1,1.4l0,0c0.9,5.8,6.3,9.8,12.1,8.8
	c7.1-1.1,11.9-7.7,10.8-14.8c-1.4-8.7-9.5-14.6-18.1-13.3c0,0,0,0,0,0c-10.7,1.7-18,11.7-16.3,22.3c1.9,11.7,12,20.4,23.9,20.4
	c1.3,0,2.5-0.1,3.7-0.3c5.8-0.9,13.1-6.1,22.4-12.7c12.3-8.7,27.9-19.7,47.5-26.5c-0.6,0.7-1.1,1.6-1.3,2.6
	c-1.1,5.1-2.6,11.8-3.1,13.7c-0.1,0.5,0,1.1,0.3,1.5c0.7,1,1.4,2,2.1,3c0.9,1.2,2.6,1.5,3.9,0.7c1-0.7,2-1.4,3-2.1
	c0.4-0.3,0.7-0.8,0.8-1.3l0.9-6.5c0.4-1.5,1.8-2.4,3.3-2c1.2,0.3,2.1,1.4,2.1,2.7c-0.2,2.2-0.4,4.4-0.6,6.6c0,0.5,0.1,1.1,0.5,1.5
	c0.8,0.9,1.6,1.8,2.5,2.7c1.1,1.1,2.8,1.2,4,0.2c0.9-0.8,1.9-1.6,2.8-2.4c0.4-0.4,0.6-0.9,0.7-1.4c0-2.2,0.1-4.4,0.1-6.6
	c0.2-1.5,1.6-2.5,3.1-2.3c1.2,0.2,2.2,1.1,2.3,2.3c0,2.2,0.1,4.4,0.1,6.6c0,0.5,0.3,1,0.7,1.4c0.9,0.8,1.8,1.6,2.8,2.4
	c1.2,1,2.9,0.8,4-0.2c0.8-0.9,1.6-1.8,2.4-2.7c0.4-0.4,0.5-0.9,0.5-1.5c-0.2-2.2-0.4-4.4-0.6-6.6c0-1.5,1.2-2.7,2.7-2.7
	c1.3,0,2.4,0.9,2.7,2.1l0.9,6.5c0.1,0.5,0.4,1,0.8,1.3c1,0.7,2,1.4,3,2.1c1.3,0.8,3,0.5,3.9-0.7c0.7-1,1.4-2,2.1-3
	c0.3-0.4,0.4-1,0.3-1.5c-1-4.6-2-9.1-3.1-13.7c-0.2-0.8-0.5-1.5-1-2.2c19.2,6.8,34.4,17.6,46.5,26.2c9.3,6.6,16.6,11.8,22.4,12.7
	c1.3,0.2,2.5,0.3,3.8,0.3c11.9,0,22-8.7,23.8-20.4C583.1,107.2,575.8,97.2,565.2,95.5z M487.1,60.2c8-4,17.8-0.7,21.8,7.3
	c4,8,0.7,17.8-7.3,21.8c-7,3.5-32.3,2.1-39.8,1.6C465.9,84.6,480.1,63.6,487.1,60.2z M417.7,89.2c-8-4-11.3-13.7-7.3-21.8
	c4-8,13.7-11.3,21.8-7.3c7,3.5,21.2,24.5,25.3,30.7C450,91.3,424.7,92.7,417.7,89.2z"/>
<path class="st0" d="M81.9,642.7v30.1c0,0.4,0.5,0.8,0.9,0.7c0.4,0,0.7-0.3,0.7-0.7v-30.1c0-0.4-0.5-0.8-0.9-0.7
	C82.3,642,82,642.3,81.9,642.7z"/>
<path class="st0" d="M97.8,657H67.7c-0.4,0-0.8,0.4-0.8,0.8c0,0.4,0.4,0.8,0.8,0.8h30.1c0.4,0,0.8-0.4,0.8-0.8
	C98.6,657.4,98.2,657,97.8,657z"/>
<path class="st0" d="M92.8,646.5l-21.3,21.3c-0.7,0.7,0.4,1.9,1.2,1.1L94,647.7c0.3-0.3,0.2-0.9-0.1-1.1
	C93.6,646.3,93.2,646.3,92.8,646.5L92.8,646.5z"/>
<path class="st0" d="M94,667.8l-21.3-21.3c-0.3-0.3-0.8-0.3-1.1,0c-0.3,0.3-0.3,0.8,0,1.1L92.8,669C93.6,669.7,94.7,668.6,94,667.8
	L94,667.8z"/>
<path class="st0" d="M86.8,647.3v5.4c0,0.4,0.5,0.8,0.9,0.7c0.4,0,0.7-0.3,0.7-0.7v-5.4c0-0.4-0.5-0.8-0.9-0.7
	C87.1,646.6,86.8,646.9,86.8,647.3z"/>
<path class="st0" d="M92.9,652h-5.4c-0.4,0-0.8,0.4-0.8,0.8c0,0.4,0.4,0.8,0.8,0.8h5.4c0.4,0,0.8-0.4,0.8-0.8
	C93.7,652.4,93.4,652,92.9,652z"/>
<path class="st0" d="M93,661.8h-5.4c-0.4,0-0.8,0.5-0.7,0.9c0,0.4,0.3,0.7,0.7,0.7H93c0.4,0,0.8-0.5,0.7-0.9
	C93.7,662.1,93.4,661.8,93,661.8z"/>
<path class="st0" d="M88.3,668v-5.4c0-0.4-0.5-0.8-0.9-0.7c-0.4,0-0.7,0.3-0.7,0.7v5.4c0,0.4,0.5,0.8,0.9,0.7
	C88,668.7,88.3,668.4,88.3,668z"/>
<path class="st0" d="M72.1,653.3h5.4c0.4,0,0.8-0.5,0.7-0.9c0-0.4-0.3-0.7-0.7-0.7h-5.4c-0.4,0-0.8,0.5-0.7,0.9
	C71.4,653,71.7,653.3,72.1,653.3z"/>
<path class="st0" d="M76.8,647.2v5.4c0,0.4,0.5,0.8,0.9,0.7c0.4,0,0.7-0.3,0.7-0.7v-5.4c0-0.4-0.5-0.8-0.9-0.7
	C77.1,646.5,76.8,646.8,76.8,647.2z"/>
<path class="st0" d="M95.7,652.2l-4.8,4.8c-0.3,0.3-0.2,0.9,0.1,1.1c0.3,0.2,0.7,0.2,1,0l4.8-4.8c0.3-0.3,0.2-0.9-0.1-1.1
	C96.4,652,96,652,95.7,652.2L95.7,652.2z"/>
<path class="st0" d="M96.7,661.8l-4.8-4.8c-0.7-0.7-1.9,0.4-1.1,1.1l4.8,4.8c0.3,0.3,0.9,0.2,1.1-0.1
	C96.9,662.5,96.9,662.1,96.7,661.8z"/>
<path class="st0" d="M69.4,662.9l4.8-4.8c0.3-0.3,0.3-0.8,0-1.2c-0.3-0.3-0.8-0.3-1.2,0l-4.8,4.8C67.5,662.5,68.7,663.7,69.4,662.9
	L69.4,662.9z"/>
<path class="st0" d="M68.4,653.3l4.8,4.8c0.7,0.7,1.9-0.4,1.1-1.1l-4.8-4.8c-0.3-0.3-0.9-0.2-1.1,0.1
	C68.2,652.6,68.2,653.1,68.4,653.3z"/>
<path class="st0" d="M77.2,644.5l4.8,4.8c0.3,0.3,0.9,0.2,1.1-0.1c0.2-0.3,0.2-0.7,0-1l-4.8-4.8c-0.3-0.3-0.9-0.2-1.1,0.1
	C76.9,643.7,76.9,644.2,77.2,644.5z"/>
<path class="st0" d="M86.8,643.4l-4.8,4.8c-0.3,0.3-0.2,0.9,0.1,1.1c0.3,0.2,0.7,0.2,1,0l4.8-4.8c0.3-0.3,0.2-0.9-0.1-1.1
	C87.5,643.2,87.1,643.2,86.8,643.4L86.8,643.4z"/>
<path class="st0" d="M87.9,670.7l-4.8-4.7c-0.4-0.3-0.9-0.2-1.1,0.2c-0.2,0.3-0.2,0.6,0,0.9l4.8,4.8
	C87.5,672.6,88.6,671.4,87.9,670.7L87.9,670.7z"/>
<path class="st0" d="M78.3,671.7l4.8-4.7c0.3-0.3,0.2-0.9-0.1-1.1c-0.3-0.2-0.7-0.2-1,0l-4.8,4.8c-0.3,0.3-0.2,0.9,0.1,1.1
	C77.6,672,78,672,78.3,671.7L78.3,671.7z"/>
<path class="st0" d="M79,667.8v-5.4c0-0.4-0.5-0.8-0.9-0.7c-0.4,0-0.7,0.3-0.7,0.7v5.4c0,0.4,0.5,0.8,0.9,0.7
	C78.7,668.5,79,668.2,79,667.8z"/>
<path class="st0" d="M72.8,663.1h5.4c0.4,0,0.8-0.4,0.8-0.8c0-0.4-0.4-0.8-0.8-0.8h-5.4c-0.4,0-0.8,0.4-0.8,0.8
	C72,662.7,72.4,663.1,72.8,663.1z"/>
<path class="st0" d="M62.2,358.8c3.2-9.4-2.2-18.3-11.2-21.6l0.7,1.5c4.7-9.4-3.2-19.7-13.4-18.5c-10.4,1.3-14.4,14.2-7.5,21.6
	l0.2-1.6c-7.7,5.7-10.2,15.8-4.5,23.9l0.2-1.6c-8,7.6-11.2,18.6-7.5,29.2c3.3,9.6,12.4,16,22.1,17.8c10.5,1.8,21.2-1.7,28.5-9.4
	c7.1-7.5,9.3-18.4,5.7-28.1c-2.4-6.5-7.8-11.6-13.9-14.7c-1.4-0.7-2.2,1.5-0.9,2.2c10.5,5.3,16.5,16.8,13.4,28.4
	c-2.8,10.5-12.5,17.7-22.9,19.4c-10.7,1.7-21.5-2.9-27.6-11.9c-6.6-10-3.8-23.1,4.6-31.1c0.5-0.4,0.6-1.1,0.2-1.6
	c-5.1-7-2.5-15.6,4.1-20.6c0.5-0.4,0.6-1.1,0.2-1.6c-4.1-4.2-3.9-10.9,0.2-14.9c1.6-1.5,3.6-2.5,5.8-2.9c8.6-1.5,14.6,7.8,10.9,15.3
	c-0.2,0.6,0,1.3,0.6,1.5c0,0,0,0,0,0c7.8,2.8,12.7,10.3,9.9,18.5C59.5,359.3,61.7,360.2,62.2,358.8z"/>
<path class="st0" d="M35.5,332.4c0.6-0.1,1-0.8,0.9-1.4c-0.1-0.6-0.7-1-1.2-0.9c-0.6,0.1-1,0.8-0.9,1.4
	C34.4,332.1,34.9,332.5,35.5,332.4z"/>
<path class="st0" d="M44.4,331.1c0.6-0.1,1-0.8,0.9-1.4c-0.1-0.6-0.7-1-1.3-0.9c-0.6,0.1-1,0.8-0.9,1.4
	C43.2,330.8,43.8,331.2,44.4,331.1z"/>
<path class="st0" d="M43.2,354.6c0.6-0.1,1-0.8,0.9-1.4c-0.1-0.6-0.7-1-1.3-0.9c-0.6,0.1-1,0.8-0.9,1.4
	C42,354.3,42.6,354.7,43.2,354.6z"/>
<path class="st0" d="M44.9,366.2c0.6-0.1,1.1-0.7,1-1.3c-0.1-0.6-0.7-1.1-1.3-1s-1.1,0.7-1,1.3C43.6,365.9,44.2,366.3,44.9,366.2z"
	/>
<path class="st0" d="M46.7,378.4c0.6-0.1,1-0.8,0.9-1.4c-0.1-0.6-0.7-1-1.3-0.9c-0.6,0.1-1,0.8-0.9,1.4
	C45.5,378,46.1,378.4,46.7,378.4z"/>
<path class="st0" d="M35.8,336.7c1.8,2.3,5.2,2.7,7.5,0.9c0.7-0.6,1.3-1.3,1.6-2.2c0.2-0.6-0.2-1.3-0.8-1.5
	c-0.5-0.2-1.1,0.1-1.4,0.6c-0.6,1.5-2.4,2.3-3.9,1.7c-0.5-0.2-0.9-0.5-1.2-0.9C36.7,334,34.9,335.5,35.8,336.7L35.8,336.7z"/>
<path class="st0" d="M48.2,324.5c2.2-0.5,5-2.9,3.6-5.5s-3.6-2.6-6.2-2.2l1.3,1c-0.4-2.9-0.7-5.9-1.3-8.7c-1-4.5-6-3.4-9.3-2.9
	c-3.6,0.5-8,0.6-8.5,5.2c0,1.4,0.2,2.9,0.5,4.3l0.7,4.7l1-1.3c-2.1,0.3-4.6,0.9-5.1,3.4c-0.6,3.1,2.1,4.9,4.9,4.7
	c1.5-0.1,1.2-2.4-0.4-2.3c-2.6,0.2-3-2.7-0.5-3.3c0.5-0.1,0.9-0.1,1.4-0.2c0.6-0.1,1.1-0.7,1-1.3l-1.1-7.4c-0.6-3.8,3.1-3.7,5.9-4.1
	c2.6-0.4,6.7-1.8,7.3,1.9l1.1,7.6c0.1,0.6,0.7,1.1,1.3,1l1.3-0.2c2.7-0.4,3.3,2.6,0.6,3.2C46.4,322.6,46.7,324.9,48.2,324.5
	L48.2,324.5z"/>
<path class="st5" d="M34.7,470.8l5-9.1c0.2-0.3,0.5-0.6,0.8-0.7c0.6-0.2,1.2,0,1.6,0.5l6.7,8c0.1,0.2,0.3,0.3,0.5,0.4
	c0.2,0.1,0.4,0.2,0.7,0.2l10.4-0.2c0.2,0,0.5,0,0.7,0.2c0.7,0.3,1,1.1,0.7,1.8l-3.6,9.8c0,0.1-0.1,0.3-0.1,0.4
	c0,0.3,0.1,0.6,0.2,0.9l5.4,8.9c0.4,0.7,0.2,1.6-0.5,2c-0.2,0.1-0.3,0.2-0.5,0.2l-10.2,1.8c-0.2,0-0.3,0.1-0.5,0.1
	c-0.2,0.1-0.4,0.3-0.6,0.6l-5,9.1c-0.2,0.4-0.5,0.6-0.9,0.7c-0.5,0.1-1.1-0.1-1.5-0.5l-6.7-8c-0.1-0.2-0.3-0.3-0.5-0.4
	c-0.2-0.1-0.5-0.2-0.7-0.2l-10.4,0.2c-0.4,0-0.8-0.2-1.1-0.5c-0.4-0.4-0.5-1-0.3-1.5l3.6-9.8c0.1-0.2,0.1-0.4,0.1-0.6
	c0-0.2-0.1-0.4-0.2-0.6l-5.4-8.9c-0.4-0.7-0.2-1.6,0.5-2c0.2-0.1,0.3-0.2,0.5-0.2l10.3-1.8c0.2,0,0.4-0.1,0.6-0.3
	C34.5,471.2,34.6,471,34.7,470.8z"/>
<path class="st3" d="M40.2,475.3L40.2,475.3c0.6,0.2,1.2,0.3,1.9,0.2c0.5-0.1,1-0.3,1.4-0.6l0,0c0.9-0.7,2-0.9,3.1-0.5
	c1.2,0.4,2,1.4,2.2,2.6l0,0c0.2,1.2,0.9,2.1,2,2.6l0,0c1.1,0.5,1.9,1.6,2,2.8c0.1,1.1-0.4,2.2-1.2,2.8l0,0c-0.9,0.7-1.4,1.9-1.2,3
	l0,0c0.3,1.8-1,3.5-2.8,3.7c-0.6,0.1-1.2,0-1.7-0.2l0,0c-0.6-0.2-1.2-0.3-1.8-0.2c-0.5,0.1-1.1,0.3-1.5,0.6l0,0
	c-1.4,1.1-3.5,0.9-4.6-0.6c-0.4-0.5-0.6-1-0.7-1.6l0,0c-0.1-0.6-0.3-1.1-0.7-1.6c-0.4-0.4-0.8-0.8-1.4-1l0,0
	c-1.7-0.7-2.5-2.6-1.8-4.3c0.2-0.5,0.6-1,1-1.4l0,0c0.5-0.4,0.9-0.9,1.1-1.5c0.2-0.5,0.2-1,0.2-1.6l0,0c-0.2-1.3,0.4-2.5,1.5-3.2
	C38.1,475,39.2,474.9,40.2,475.3z"/>
<radialGradient id="SVGID_1_" cx="-1011.8207" cy="1383.3297" r="5.4758" gradientTransform="matrix(0.9468 -0.3219 -0.3219 -0.9468 1446.3866 1467.5386)" gradientUnits="userSpaceOnUse">
	<stop  offset="0" style="stop-color:#EDE96F"/>
	<stop  offset="0.88" style="stop-color:#EDE937"/>
</radialGradient>
<path class="st6" d="M41.5,478.9L41.5,478.9c0.3,0.1,0.7,0.2,1.1,0.1c0.3-0.1,0.6-0.2,0.8-0.4l0,0c0.8-0.6,2-0.5,2.6,0.3
	c0.2,0.3,0.3,0.6,0.4,0.9l0,0c0,0.3,0.2,0.6,0.4,0.9c0.2,0.3,0.5,0.5,0.8,0.6l0,0c0.7,0.3,1.1,0.9,1.2,1.6c0.1,0.6-0.2,1.2-0.7,1.6
	l0,0c-0.3,0.2-0.5,0.5-0.6,0.8c-0.1,0.3-0.2,0.7-0.1,1l0,0c0.1,1-0.6,2-1.6,2.1c-0.3,0-0.7,0-1-0.1l0,0c-0.3-0.1-0.7-0.2-1-0.1
	c-0.3,0-0.6,0.2-0.8,0.4l0,0c-0.5,0.4-1.2,0.5-1.8,0.3c-0.7-0.2-1.1-0.8-1.2-1.5l0,0c0-0.3-0.2-0.6-0.4-0.9
	c-0.2-0.3-0.5-0.5-0.8-0.6l0,0c-0.6-0.2-1-0.7-1.1-1.4c-0.1-0.7,0.1-1.4,0.7-1.8l0,0c0.3-0.2,0.5-0.5,0.6-0.8
	c0.1-0.3,0.1-0.6,0.1-0.9l0,0c-0.1-1,0.6-2,1.6-2.1C40.8,478.8,41.1,478.8,41.5,478.9L41.5,478.9z"/>
<radialGradient id="SVGID_2_" cx="868.2646" cy="631.9943" r="8.6822" gradientTransform="matrix(1 0 0 -1 0 1374)" gradientUnits="userSpaceOnUse">
	<stop  offset="0" style="stop-color:#EDE96F"/>
	<stop  offset="0.88" style="stop-color:#EDE937"/>
</radialGradient>
<path class="st7" d="M859.9,744.4c-1.3-4.6,1.4-9.4,6-10.7s9.4,1.4,10.7,6c1.3,4.6-1.4,9.4-6,10.7C866,751.7,861.2,749,859.9,744.4
	C859.9,744.4,859.9,744.4,859.9,744.4z"/>
<path class="st0" d="M927.2,501.9c2,3.2,1,7.4-2.2,9.4c-3.2,2-7.4,1-9.4-2.2c-2-3.2-1-7.4,2.2-9.4c0,0,0,0,0,0
	C921,497.7,925.2,498.7,927.2,501.9z"/>
<path class="st3" d="M863,795.6l-28,58.5c-1.4,3.1,0,6.8,3.2,8.2c3,1.3,6.5,0.1,8-2.8l28-58.5c1.1-2.2,2.9-4.1,5.1-5.2l0,0
	c2-1,4.3-1.4,6.5-1.1c1.1,0.2,2.2,0.5,3.3,1c0.7,0.3,1.4,0.8,2,1.2c4.9,3.7,5.8,10.7,2,15.6c-0.5,0.7-1.1,1.3-1.8,1.8
	c-0.3,0.2-0.5,0.5-0.8,0.8c-2.2,2.6-2,6.5,0.6,8.7c2.3,2,5.6,2,8,0.1c2.7-2.2,4.8-4.9,6.3-8.1c0.5-1,0.9-2,1.2-3
	c0.7-2.3,1.1-4.6,1.1-7c0-5.3-1.8-10.5-5.1-14.7c-1.4-1.8-3.1-3.4-4.9-4.7c-1.1-0.8-2.2-1.4-3.4-2c-3.8-1.8-8.1-2.6-12.3-2.2
	c-2.2,0.2-4.5,0.7-6.6,1.6C870.1,786.2,865.6,790.3,863,795.6z"/>
<radialGradient id="SVGID_3_" cx="899.2" cy="563.35" r="6.96" gradientTransform="matrix(1 0 0 -1 0 1374)" gradientUnits="userSpaceOnUse">
	<stop  offset="0" style="stop-color:#EDE96F"/>
	<stop  offset="0.88" style="stop-color:#EDE937"/>
</radialGradient>
<path class="st8" d="M890.6,815.2c5.6,0.8,11.8-0.8,16.1-2.2c0.7-2.3,1.1-4.6,1.1-7c-4.1,1.8-8.5,2.9-12.9,3.3
	c-0.6,2.1-1.9,3.9-3.6,5.3C891.1,814.7,890.8,814.9,890.6,815.2z"/>
<path class="st0" d="M891.1,797c1.7,1.3,2.9,3,3.7,5c3.6-2.8,6.3-6.6,8-10.8c-1.4-1.8-3.1-3.4-4.9-4.7
	C896.7,790.6,894.3,794.3,891.1,797z"/>
<radialGradient id="SVGID_4_" cx="880.7557" cy="584.905" r="5.989" gradientTransform="matrix(1 0 0 -1 0 1374)" gradientUnits="userSpaceOnUse">
	<stop  offset="0" style="stop-color:#EDE96F"/>
	<stop  offset="0.88" style="stop-color:#EDE937"/>
</radialGradient>
<path class="st9" d="M875.6,783.9c2.4,2.7,5,6.9,3.7,11.9c2-1,4.3-1.4,6.5-1.1c0.3-4-0.7-7.9-2.8-11.2c-0.2-0.4-0.5-0.8-0.8-1.2
	C880,782.6,877.7,783.1,875.6,783.9z"/>
<path class="st0" d="M863,795.8l-2.7,5.6c3.4,2.1,7.3,5.6,8.6,10.8l3.5-7.4C870,801.1,866.8,798,863,795.8z"/>
<radialGradient id="SVGID_5_" cx="857.805" cy="552.56" r="6.864" gradientTransform="matrix(1 0 0 -1 0 1374)" gradientUnits="userSpaceOnUse">
	<stop  offset="0" style="stop-color:#EDE96F"/>
	<stop  offset="0.88" style="stop-color:#EDE937"/>
</radialGradient>
<path class="st10" d="M854.3,814l-2.7,5.6c3.3,1.9,7.2,4.9,9.3,9.3l3.2-6.6C861.4,818.9,858,816.1,854.3,814z"/>
<path class="st0" d="M845.8,831.6l-2.7,5.6c3.3,1.9,7.2,4.9,9.3,9.3l3.2-6.6C852.9,836.5,849.6,833.7,845.8,831.6z"/>
<path class="st0" d="M907.6,1256.7c0,0,21.1,17.5,7.7,28.8c-6.5,5.5-13.4,0.1-14.2-5.4c-0.5-3.1,0.1-6.4,1.6-9.2
	C904.8,1267.1,907.8,1260.7,907.6,1256.7z"/>
<path class="st0" d="M868.4,1256.7c0,0,21.1,17.5,7.7,28.8c-6.5,5.5-13.4,0.1-14.2-5.4c-0.5-3.1,0.1-6.4,1.6-9.2
	C865.6,1267.1,868.7,1260.7,868.4,1256.7z"/>
<path class="st0" d="M829.2,1256.7c0,0,21.1,17.5,7.7,28.8c-6.5,5.5-13.4,0.1-14.2-5.4c-0.5-3.1,0.1-6.4,1.6-9.2
	C826.4,1267.1,829.5,1260.7,829.2,1256.7z"/>
<path class="st0" d="M790,1256.7c0,0,21.1,17.5,7.7,28.8c-6.5,5.5-13.4,0.1-14.2-5.4c-0.5-3.1,0.1-6.3,1.6-9.1
	C787.2,1267.1,790.3,1260.7,790,1256.7z"/>
<radialGradient id="SVGID_6_" cx="910.255" cy="40.63" r="30.0349" gradientTransform="matrix(1 0 0 -1 0 1374)" gradientUnits="userSpaceOnUse">
	<stop  offset="0" style="stop-color:#EDE96F"/>
	<stop  offset="0.88" style="stop-color:#EDE937"/>
</radialGradient>
<path class="st11" d="M905.9,1292.7h8.6c4.5,0,8.1,3.6,8.1,8.1v69.6c0,2-1.6,3.6-3.6,3.6c0,0,0,0,0,0h-17.5c-2,0-3.6-1.6-3.6-3.6
	l0,0v-69.6C897.9,1296.4,901.5,1292.7,905.9,1292.7L905.9,1292.7z"/>
<path class="st12" d="M866.8,1293h8.6c4.5,0,8.1,3.6,8.1,8.1v69.6c0,2-1.6,3.6-3.6,3.6l0,0h-17.5c-2,0-3.6-1.6-3.6-3.6l0,0V1301
	C858.7,1296.5,862.3,1292.9,866.8,1293L866.8,1293z"/>
<radialGradient id="SVGID_7_" cx="831.875" cy="40.3701" r="30.477" gradientTransform="matrix(1 0 0 -1 0 1374)" gradientUnits="userSpaceOnUse">
	<stop  offset="0" style="stop-color:#EDE96F"/>
	<stop  offset="0.88" style="stop-color:#EDE937"/>
</radialGradient>
<path class="st13" d="M827.6,1293h8.6c4.5,0,8.1,3.6,8.1,8.1v69.6c0,2-1.6,3.6-3.6,3.6l0,0h-17.5c-2,0-3.6-1.6-3.6-3.6l0,0V1301
	C819.5,1296.6,823.1,1293,827.6,1293z"/>
<path class="st3" d="M788.4,1293h8.6c4.5,0,8.1,3.6,8.1,8.1v69.6c0,2-1.6,3.6-3.6,3.6l0,0h-17.5c-2,0-3.6-1.6-3.6-3.6l0,0V1301
	C780.3,1296.6,783.9,1293,788.4,1293z"/>
<line class="st14" x1="795.8" y1="1355.3" x2="798" y2="1354.4"/>
<line class="st14" x1="800.6" y1="1353.4" x2="802.7" y2="1352.6"/>
<line class="st14" x1="800.7" y1="1357.3" x2="799.8" y2="1355.2"/>
<line class="st14" x1="798.8" y1="1352.6" x2="797.9" y2="1350.5"/>
<line class="st15" x1="824.4" y1="1302.9" x2="825.3" y2="1300.7"/>
<line class="st15" x1="826.4" y1="1298.2" x2="827.3" y2="1296"/>
<line class="st15" x1="829.3" y1="1300.9" x2="827.1" y2="1300"/>
<line class="st15" x1="824.6" y1="1298.9" x2="822.5" y2="1298"/>
<line class="st15" x1="924.6" y1="1295.6" x2="926.3" y2="1293.9"/>
<line class="st15" x1="928.2" y1="1292" x2="929.9" y2="1290.3"/>
<line class="st15" x1="929.9" y1="1295.6" x2="928.2" y2="1293.9"/>
<line class="st15" x1="926.3" y1="1292" x2="924.6" y2="1290.3"/>
<path class="st5" d="M788.5,1310.3c0.3,0,0.5-0.2,0.5-0.6c0-0.3-0.2-0.5-0.5-0.5c-0.3,0-0.5,0.2-0.5,0.6
	C787.9,1310,788.1,1310.3,788.5,1310.3z"/>
<path class="st5" d="M871.2,1356c0.3,0,0.5-0.2,0.5-0.6c0-0.3-0.2-0.5-0.5-0.5c-0.3,0-0.5,0.2-0.5,0.6
	C870.7,1355.8,870.9,1356,871.2,1356z"/>
<path class="st5" d="M880.6,1329.7c0.3,0,0.5-0.2,0.5-0.6c0-0.3-0.2-0.5-0.5-0.5c-0.3,0-0.5,0.2-0.5,0.6
	C880.1,1329.5,880.3,1329.7,880.6,1329.7z"/>
<path class="st0" d="M892.8,1306.7c0.3,0,0.5-0.2,0.5-0.6c0-0.3-0.2-0.5-0.5-0.5c-0.3,0-0.5,0.2-0.5,0.6
	C892.3,1306.4,892.5,1306.7,892.8,1306.7z"/>
<path class="st0" d="M827.7,1340.5c0.3,0,0.5-0.2,0.5-0.6c0-0.3-0.2-0.5-0.5-0.5c-0.3,0-0.5,0.2-0.5,0.6
	C827.1,1340.3,827.4,1340.5,827.7,1340.5z"/>
<path class="st0" d="M796.4,1298.4c0.3,0,0.5-0.2,0.5-0.6c0-0.3-0.2-0.5-0.5-0.5c-0.3,0-0.5,0.2-0.5,0.6
	C795.8,1298.1,796.1,1298.4,796.4,1298.4z"/>
<path class="st0" d="M864.4,1318.5c0.3,0,0.5-0.2,0.5-0.6c0-0.3-0.2-0.5-0.5-0.5c-0.3,0-0.5,0.2-0.5,0.6
	C863.9,1318.3,864.1,1318.5,864.4,1318.5z"/>
<path class="st3" d="M831.1,1293c-0.3-1.2-0.5-2.4-0.5-3.6l-0.2-3.6c-0.1-2.4-0.3-4.8-0.3-7.2c0-1,0.9-1.8,1.9-1.7
	c0.9,0,1.6,0.7,1.7,1.6v0.1c-0.1,2.4-0.2,4.8-0.3,7.2l-0.2,3.6c0,1.2-0.2,2.4-0.5,3.6c-0.1,0.4-0.6,0.6-1,0.5
	C831.4,1293.5,831.2,1293.3,831.1,1293z"/>
<path class="st3" d="M870.3,1299.4l-1-20.9c0-1,0.8-1.8,1.8-1.8c0.9,0,1.7,0.7,1.8,1.6v0.2l-1,20.9c0,0.4-0.4,0.7-0.9,0.7
	C870.7,1300.1,870.4,1299.8,870.3,1299.4L870.3,1299.4z"/>
<path class="st3" d="M909.5,1299.4l-1-20.9c0-1,0.8-1.8,1.8-1.8c0.9,0,1.7,0.7,1.8,1.6v0.2l-1,20.9c0,0.4-0.4,0.7-0.9,0.7
	C909.8,1300.1,909.6,1299.8,909.5,1299.4L909.5,1299.4z"/>
<path class="st3" d="M791.9,1299.4l-1-20.9c0-1,0.8-1.8,1.8-1.8c0.9,0,1.7,0.7,1.8,1.6v0.2l-1,20.9c0,0.4-0.4,0.7-0.9,0.7
	C792.3,1300.1,792,1299.8,791.9,1299.4L791.9,1299.4z"/>
<path class="st5" d="M907.6,1311.7c0.3,0,0.5-0.2,0.5-0.6c0-0.3-0.2-0.5-0.5-0.5c-0.3,0-0.5,0.2-0.5,0.6
	C907.1,1311.4,907.3,1311.7,907.6,1311.7z"/>
<path class="st5" d="M917.5,1358.8c0.3,0,0.5-0.3,0.5-0.6c0-0.2-0.2-0.4-0.5-0.5c-0.3,0-0.5,0.3-0.5,0.6
	C917.1,1358.6,917.3,1358.8,917.5,1358.8z"/>
<path class="st5" d="M907.3,1364l0.2-0.2c0.2-0.2,0.2-0.6,0-0.8c0,0,0,0,0,0l-0.1-0.1c-0.1-0.1-0.2-0.1-0.3-0.1H907
	c-0.1,0-0.2,0.1-0.2,0.1l-0.2,0.2c-0.1,0-0.1,0.1-0.1,0.2c0,0.1,0,0.1,0,0.2c0,0.1,0.1,0.3,0.2,0.4l0.1,0.1c0.1,0,0.2,0.1,0.3,0.1
	h0.2C907.2,1364.1,907.3,1364.1,907.3,1364L907.3,1364z"/>
<path class="st5" d="M786.7,1328.3c0.3,0,0.5-0.2,0.5-0.6c0-0.3-0.2-0.5-0.5-0.5c-0.3,0-0.5,0.2-0.5,0.6
	C786.2,1328.1,786.4,1328.3,786.7,1328.3z"/>
<circle class="st0" cx="202.8" cy="1347.4" r="17.9"/>
<path class="st16" d="M80.2,735.4l-1.4,0.4c-1.6-5.7-4.7-9.4-7.3-8.7s-3.3,5.5-1.8,11.2l-1.4,0.4c-1.8-6.7-0.7-12,2.8-13
	S78.3,728.7,80.2,735.4z"/>
<path class="st16" d="M82.2,745.5l-10.3,2.8c-0.9,0.3-1.9-0.1-2.2-1l-2.2-8c-0.1-0.4,0-0.8,0.2-1.1c0.3-0.5,0.7-0.8,1.2-0.9
	l10.3-2.8c0.5-0.1,1-0.1,1.4,0.1c0.4,0.2,0.7,0.5,0.8,0.9l2.2,8C83.8,744.4,83.1,745.3,82.2,745.5z"/>
<path class="st5" d="M120.2,787.6c0.2,0.7,0.4,1.4,0.6,2.1c0.3,1.1,0.5,2.3,0.7,3.5c0.6,3.6,1,7.2,1.2,10.8
	c1.4,27.7-7.6,61.5-12.5,62.8s-30-23-43-47.5c-1.7-3.2-3.2-6.5-4.5-9.9c-0.4-1.2-0.8-2.3-1.2-3.4c-0.2-0.7-0.4-1.4-0.6-2
	c-0.3-0.9-0.5-1.9-0.7-3c-0.6-3.4-0.9-6.8-1.1-10.3c-0.1-3.7,0-7.5,0.2-11.2c1.2-16.2,6.3-33.1,16.7-36.3
	c10.5-2.6,23.5,9.4,32.9,22.6c2.1,3.1,4.1,6.2,5.9,9.5c1.7,3.1,3.2,6.3,4.4,9.6C119.7,785.8,119.9,786.7,120.2,787.6z"/>
<path class="st3" d="M114.9,775.3l-55.7,15.4c-0.1-3.7,0-7.5,0.2-11.2l49.6-13.7C111.1,768.9,113.1,772,114.9,775.3z"/>
<path class="st3" d="M121.5,793.2c0.6,3.6,1,7.2,1.2,10.8l-55.5,15.3c-1.7-3.2-3.2-6.5-4.5-9.9L121.5,793.2z"/>
<ellipse transform="matrix(0.9941 -0.1089 0.1089 0.9941 -82.6361 12.3587)" class="st0" cx="71.9" cy="763" rx="7.8" ry="7.8"/>
<path class="st3" d="M120.2,787.6c0.2,0.7,0.4,1.4,0.6,2.1c-2.7,0.4-4.6-1.4-6-2.6s-1.9-1.6-2.5-1.4s-0.9,0.7-1.4,2.5
	s-1.4,4.7-4.6,5.5s-5.3-1.1-6.8-2.4s-1.9-1.6-2.5-1.4s-0.8,0.7-1.4,2.5s-1.5,4.7-4.6,5.6s-5.3-1.1-6.8-2.4s-1.8-1.5-2.4-1.4
	s-0.9,0.7-1.4,2.5s-1.5,4.7-4.6,5.5s-5.3-1.1-6.8-2.4s-1.9-1.6-2.5-1.4s-0.9,0.7-1.4,2.5s-1.3,4.1-3.6,5.2c-0.2-0.7-0.4-1.4-0.6-2
	c-0.3-0.9-0.5-1.9-0.7-3c0.2-0.5,0.4-1,0.5-1.5c0.6-1.9,1.5-4.7,4.6-5.6c3.1-0.9,5.3,1.1,6.8,2.4s1.9,1.6,2.5,1.4s0.8-0.7,1.4-2.5
	s1.5-4.7,4.6-5.6s5.3,1.1,6.8,2.4s1.9,1.6,2.5,1.4s0.9-0.7,1.4-2.5s1.5-4.7,4.6-5.5s5.3,1.1,6.8,2.4s1.9,1.6,2.5,1.4
	s0.9-0.7,1.4-2.5s1.5-4.7,4.6-5.6s5.3,1.1,6.8,2.4c0.5,0.4,0.9,0.8,1.5,1.2C119.7,785.8,119.9,786.7,120.2,787.6z"/>
<path class="st17" d="M942.8,358.1c-0.1-2.3-2.1-4-4.4-3.8c0,0,0,0,0,0l-15.5,1l16-21c1.4-1.8,1-4.4-0.8-5.8c-1.8-1.4-4.4-1-5.8,0.8
	l0,0L912.1,356l-18.5,1.2l12.3-14.7c1.5-1.7,1.2-4.3-0.5-5.8c-1.7-1.5-4.3-1.2-5.8,0.5L882.2,358l-35.2,2.3l23.2-26.5l27-1.1h0.1
	c2.3-0.1,4-2.1,3.9-4.3c-0.1-2.3-2.1-4-4.3-3.9l-19.2,0.8l12.2-14l33.6,0.1h0.3c2.3-0.2,4-2.1,3.8-4.4c-0.1-2.1-1.9-3.8-4.1-3.8
	l-26.4-0.1l10.2-11.6c1.5-1.7,1.3-4.3-0.4-5.8s-4.3-1.3-5.8,0.4l0,0L891,297.7l-3.6-26.2c-0.4-2.2-2.5-3.8-4.7-3.4
	c-2.2,0.4-3.7,2.3-3.4,4.5l4.6,33.3l-12.2,13.9l-1.7-19.1c-0.1-2.2-2-3.9-4.2-3.8c-0.1,0-0.2,0-0.2,0c-2.3,0.2-3.9,2.2-3.7,4.5
	c0,0,0,0,0,0l2.4,26.9l-23.2,26.5l-2.3-35.1l18.3-19.9c1.5-1.7,1.3-4.3-0.4-5.8c-1.7-1.5-4.2-1.3-5.7,0.2l-13,14.1l-1.2-18.5
	l23.8-23.6c1.7-1.5,1.8-4.1,0.3-5.8c-1.5-1.7-4.1-1.8-5.8-0.3c-0.1,0.1-0.2,0.2-0.3,0.3L835.8,279l-1-15.5c-0.1-2.3-2-4-4.3-3.9
	c-2.3,0.1-4,2-3.9,4.3c0,0.1,0,0.1,0,0.2l1,15.5l-21-16c-1.8-1.4-4.4-1-5.8,0.8c-1.4,1.8-1,4.4,0.8,5.8l26.8,20.3l1.2,18.5
	l-14.7-12.3c-1.7-1.5-4.3-1.3-5.8,0.4c-1.5,1.7-1.3,4.3,0.4,5.8c0.1,0.1,0.1,0.1,0.2,0.2l20.8,17.3l2.3,35.1l-26.5-23.2l-1.1-27
	c-0.1-2.3-2-4-4.3-3.9h-0.1c-2.2,0.1-3.9,2-3.8,4.3l0.8,19.2l-13.9-12.2l0.1-33.6c0-2.3-1.8-4.1-4.1-4.1c-2.2,0-4.1,1.8-4.1,4
	c0,0,0,0.1,0,0.1l-0.1,26.4l-11.7-10.2c-1.7-1.5-4.3-1.3-5.8,0.4s-1.3,4.3,0.4,5.8l11.6,10.2l-26.2,3.6c-2.3,0.3-3.8,2.4-3.5,4.7
	c0.3,2.1,2.2,3.6,4.3,3.5c0.1,0,0.2,0,0.3,0l33.3-4.6l13.9,12.2l-19.2,1.7c-2.3,0.2-4,2.2-3.8,4.4c0.2,2.3,2.2,4,4.4,3.8l0,0h0.1
	l26.9-2.4l26.5,23.2l-35.1,2.4l-19.9-18.3c-1.6-1.6-4.2-1.6-5.8,0c-1.6,1.6-1.6,4.2,0,5.8c0.1,0.1,0.2,0.2,0.3,0.3l14.1,13
	l-18.5,1.2l-23.7-23.8c-1.6-1.6-4.2-1.6-5.8,0c-1.6,1.6-1.6,4.2,0,5.8l18.6,18.8l-15.5,1c-2.3,0.1-4,2-3.9,4.3c0.1,2.3,2,4,4.3,3.9
	c0.1,0,0.1,0,0.2,0l15.5-1l-16,21c-1.4,1.8-1,4.4,0.8,5.8c1.8,1.4,4.4,1,5.8-0.8l20.3-26.8l18.5-1.2L769,387.7
	c-1.5,1.7-1.2,4.3,0.5,5.8c1.7,1.5,4.3,1.2,5.8-0.5l17.3-20.8l35.2-2.3l-23.2,26.5l-27,1.1h-0.1c-2.3,0.1-4,2.1-3.9,4.3
	c0.1,2.3,2.1,4,4.3,3.9l0,0l19.2-0.8l-12.2,13.9l-33.6-0.1c-2.3,0.1-4,2-3.9,4.3c0.1,2.1,1.8,3.8,3.9,3.9l26.4,0.1l-10.2,11.6
	c-1.5,1.7-1.3,4.3,0.4,5.8s4.3,1.3,5.8-0.4l0,0l10.2-11.6l3.6,26.2c0.3,2.1,2.2,3.7,4.3,3.6h0.3c2.3-0.3,3.8-2.4,3.5-4.6l-4.7-33.3
	l12.2-13.9l1.8,19.1c0.2,2.2,2.1,3.9,4.4,3.7h0.1c2.3-0.2,3.9-2.2,3.7-4.5l-2.4-26.9l23.2-26.5l2.3,35.1L818,430.4
	c-1.6,1.6-1.5,4.3,0.1,5.8s4.3,1.5,5.8-0.1c0,0,0.1-0.1,0.1-0.1l13-14.1l1.2,18.5l-23.8,23.6c-1.5,1.7-1.4,4.3,0.2,5.8
	c1.6,1.5,4,1.5,5.6,0l18.7-18.6l1,15.5c0.1,2.3,2.1,4,4.4,3.8c2.3-0.1,4-2.1,3.8-4.4l-1-15.5l21,16c0.8,0.6,1.8,0.9,2.8,0.8
	c2.3-0.2,4-2.1,3.8-4.4c-0.1-1.2-0.7-2.3-1.6-3l-26.8-20.3l-1.2-18.5l14.8,12.3c1.7,1.5,4.3,1.2,5.8-0.5c1.5-1.8,1.2-4.3-0.5-5.8
	l-20.8-17.3l-2.3-35.1l26.5,23.2l1.1,27c0.1,2.3,2,4.1,4.3,4c0,0,0,0,0,0h0.1c2.2-0.1,3.9-2,3.8-4.3l-0.8-19.2l13.9,12.2l-0.1,33.6
	c0,2.3,1.8,4.1,4.1,4.1h0h0.3c2.2-0.1,3.8-1.9,3.8-4.1l0.1-26.4l11.7,10.2c1.7,1.5,4.3,1.3,5.8-0.4s1.3-4.3-0.4-5.8l0,0l-11.7-10.2
	l26.2-3.6c2.3-0.3,3.8-2.4,3.5-4.6c-0.3-2.3-2.4-3.8-4.6-3.5l-33.3,4.6l-13.9-12.2l19.1-1.7c2.3-0.2,3.9-2.2,3.7-4.5
	c-0.1-2.2-2-3.9-4.2-3.8c-0.1,0-0.2,0-0.2,0l-26.9,2.4l-26.5-23.2l35.2-2.3l19.9,18.3c1.7,1.5,4.3,1.4,5.8-0.2s1.4-4.3-0.2-5.8
	l-14.1-13l18.5-1.2l23.7,23.9c1.6,1.6,4.2,1.6,5.8,0c1.6-1.6,1.6-4.2,0-5.8l-18.6-18.8l15.5-1C941.2,362.4,943,360.4,942.8,358.1
	C942.8,358.1,942.8,358.1,942.8,358.1z"/>
<g class="st18">
	<path class="st0" d="M840.7,670.5l-8.2,30.8l2.3-1.4l-12.9-3.4l1.4,2.3l8.2-30.8l-2.3,1.4l12.9,3.4c1,0.2,2.1-0.5,2.3-1.5
		c0.2-1-0.4-1.9-1.3-2.2l-12.9-3.4c-1-0.2-2.1,0.4-2.4,1.4l-8.2,30.8c-0.2,1,0.4,2.1,1.4,2.4l12.9,3.4c1,0.3,2.1-0.3,2.3-1.4
		l8.2-30.8C845.1,669.1,841.3,668.1,840.7,670.5z"/>
	<path class="st0" d="M854.1,561.2c-2.3,7.1-12.7,4.3-11.2-3S855.6,553.9,854.1,561.2c-0.5,2.4,3.2,3.4,3.7,1
		c1.2-5.1-1.7-10.3-6.8-11.8c-5.2-1.7-10.2,2.1-11.8,6.8c-1.7,5.2,2.1,10.2,6.8,11.8c5.2,1.7,10.2-2.1,11.8-6.8
		C858.5,559.8,854.8,558.8,854.1,561.2z"/>
	<path class="st0" d="M876.8,604.6c-2.3,7.1-12.7,4.3-11.2-3S878.3,597.3,876.8,604.6c-0.5,2.4,3.2,3.4,3.7,1
		c1.2-5.1-1.8-10.3-6.8-11.8c-5.2-1.7-10.2,2.1-11.8,6.8c-1.7,5.2,2.1,10.2,6.8,11.8c5.2,1.7,10.2-2.1,11.8-6.8
		C881.3,603.3,877.5,602.3,876.8,604.6z"/>
	<path class="st0" d="M841.8,613.7c-2.3,7.1-12.7,4.3-11.2-3S843.3,606.4,841.8,613.7c-0.5,2.4,3.2,3.4,3.7,1
		c1.2-5.1-1.8-10.3-6.8-11.8c-5.2-1.7-10.2,2.1-11.8,6.8c-1.7,5.2,2.1,10.2,6.8,11.8c5.2,1.7,10.2-2.1,11.8-6.8
		C846.2,612.3,842.5,611.3,841.8,613.7z"/>
	<path class="st0" d="M876.7,661.9c-2.3,7.1-12.7,4.3-11.2-3S878.2,654.6,876.7,661.9c-0.5,2.4,3.2,3.4,3.7,1
		c1.2-5.1-1.8-10.3-6.8-11.8c-5.2-1.7-10.2,2.1-11.8,6.8c-1.7,5.2,2.1,10.2,6.8,11.8c5.2,1.7,10.2-2.1,11.8-6.8
		C881.2,660.6,877.5,659.6,876.7,661.9z"/>
	<path class="st0" d="M883.5,549.1c-2.3,7.1-12.7,4.3-11.2-3S885.1,541.8,883.5,549.1c-0.5,2.4,3.2,3.4,3.7,1
		c1.2-5.1-1.8-10.3-6.8-11.8c-5.2-1.7-10.2,2.1-11.8,6.8c-1.7,5.2,2.1,10.2,6.8,11.8c5.2,1.7,10.2-2.1,11.8-6.8
		C888,547.7,884.3,546.8,883.5,549.1z"/>
	<path class="st0" d="M850.3,644.6c-2.3,7.1-12.7,4.3-11.2-3S851.8,637.3,850.3,644.6c-0.5,2.4,3.2,3.4,3.7,1
		c1.2-5.1-1.8-10.3-6.8-11.8c-5.2-1.7-10.2,2.1-11.8,6.8c-1.7,5.2,2.1,10.2,6.8,11.8c5.2,1.7,10.2-2.1,11.8-6.8
		C854.8,643.2,851,642.2,850.3,644.6z"/>
	<path class="st0" d="M850.5,552.3c0.7,0.2,1.4,0.5,2,0.9l23.4-33.5c0.5,6.8,1.1,13.5,1.6,20.3c0.8-0.1,1.7,0,2.5,0.2
		c0.5,0.1,1,0.3,1.5,0.5c-0.7-8.9-1.4-17.7-2.1-26.6c0-1.1-1-1.9-2-1.9c-0.6,0-1.2,0.4-1.6,0.9L848.6,552
		C849.2,552,849.8,552.1,850.5,552.3z"/>
	<path class="st0" d="M896.1,684.5c-0.9-10.3-1.8-20.6-2.7-30.9c0-0.4-0.2-0.7-0.4-1c-0.1-0.3-0.3-0.5-0.6-0.7l-27.4-20.1l24.3,6.5
		c1,0.3,2.1-0.4,2.4-1.4c0-0.2,0.1-0.3,0.1-0.5l-5-41.3c-0.2-1.7-0.4-3.4-0.6-5.1c-0.2-2-2.6-4.2-3.8-5.7l-9.4-12.8l8.3,2.2
		c1,0.3,2.1-0.4,2.4-1.4c0-0.2,0.1-0.3,0.1-0.5l-1.4-17.9c-1.1,0.8-2.4,1.3-3.7,1.4c0.4,4.7,0.7,9.3,1.1,13.9l-10.9-2.9
		c-1.5-0.4-3.2,1.4-2.2,2.8l12.1,16.5c1,1.3,1.9,2.6,2.9,4c0.7,0.9,0.9,2,0.7,0.5l0.7,5.6c1.5,12.7,3,25.5,4.6,38.2l-31.4-8.3
		c-2.2-0.6-3.1,2.3-1.5,3.5l34.8,25.6c0.8,9.1,1.6,18.2,2.4,27.4l-106.7-28.2l-3.8-1l5.6-7.2l5-6.5l1.6-2l0.1-0.1l24.2-2.7
		c2.1-0.2,2.7-3.2,0.5-3.8l-16.8-4.4l19.7-28.2l0.3-0.1l3.6-1l11.9-3.2l18-4.9c1-0.3,1.6-1.4,1.3-2.4c-0.2-0.6-0.7-1.1-1.3-1.3
		l-20.8-5.5l9.5-13.7c-1.1-0.9-1.9-2-2.4-3.3l-11.9,17.1c-0.5,0.9-0.2,2.1,0.7,2.6c0.1,0.1,0.3,0.1,0.4,0.2l16.4,4.4l-11,3
		l-11.9,3.2c-1.6,0.4-4.7,0.7-5.7,2.1l-21.7,31c-0.5,0.9-0.2,2.1,0.7,2.6c0.1,0.1,0.3,0.1,0.5,0.2l9.6,2.5l-14.8,1.6
		c-1.4,0.2-2,1.4-2.7,2.4c-1.7,2.2-3.5,4.4-5.2,6.7l-8,10.2c-0.7,0.8-0.7,2.1,0.2,2.8c0.2,0.2,0.4,0.3,0.7,0.4l109.4,29l6.6,1.8
		c1,0.3,2.1-0.3,2.4-1.4C896.1,684.8,896.1,684.6,896.1,684.5z"/>
	<path class="st0" d="M815.5,649.7c-2.3,7.1-12.7,4.3-11.2-3S817,642.4,815.5,649.7c-0.5,2.4,3.2,3.4,3.7,1
		c1.2-5.1-1.8-10.3-6.8-11.8c-5.2-1.7-10.2,2.1-11.8,6.8c-1.7,5.2,2.1,10.2,6.8,11.8c5.2,1.7,10.2-2.1,11.8-6.8
		C820,648.3,816.2,647.3,815.5,649.7z"/>
</g>
<path class="st16" d="M829.7,402.7l-1.2,0.4c-1.5-4.9-4.3-8.1-6.5-7.5s-2.8,4.9-1.3,9.8l-1.2,0.4c-1.7-5.8-0.9-10.5,2.1-11.4
	S827.9,396.9,829.7,402.7z"/>
<path class="st16" d="M831.6,411.4l-9,2.7c-0.8,0.3-1.7-0.1-2-0.8c0,0,0,0,0,0l-2.1-6.9c-0.1-0.3-0.1-0.7,0.1-1
	c0.2-0.4,0.6-0.7,1.1-0.8l9-2.7c0.4-0.1,0.8-0.1,1.2,0c0.4,0.1,0.6,0.4,0.7,0.8l2.1,6.9C832.9,410.4,832.4,411.2,831.6,411.4z"/>
<radialGradient id="SVGID_8_" cx="1204.7694" cy="1059.1414" r="30.196" gradientTransform="matrix(0.9575 -0.2884 -0.2884 -0.9575 -13.7665 1798.3474)" gradientUnits="userSpaceOnUse">
	<stop  offset="0" style="stop-color:#EDE96F"/>
	<stop  offset="0.88" style="stop-color:#EDE937"/>
</radialGradient>
<path class="st19" d="M863.3,428.1c4.8,16-4.3,32.8-20.3,37.5s-32.8-4.3-37.5-20.3c-4.8-16,4.3-32.8,20.3-37.5
	c11-3.3,22.8-0.1,30.6,8.3C859.6,419.5,862,423.6,863.3,428.1z"/>
<ellipse transform="matrix(0.4769 -0.879 0.879 0.4769 56.7864 938.5049)" class="st0" cx="816.8" cy="421.5" rx="3.3" ry="3.4"/>
<path class="st3" d="M863.3,428.1c0.2,0.6,0.3,1.1,0.5,1.7c0.8,3.4,1,6.9,0.6,10.3l-53.2,16c-2.2-2.7-4-5.7-5.2-9
	c-0.2-0.5-0.4-1.1-0.6-1.7s-0.3-0.9-0.4-1.4c-0.6-2.4-0.9-5-0.9-7.5c0-1.6,0.2-3.3,0.4-4.9l51.8-15.6c1.1,1.2,2.1,2.5,3,3.8
	c0.6,0.9,1.1,1.8,1.7,2.8c0.7,1.3,1.3,2.6,1.7,4C863,427.2,863.2,427.6,863.3,428.1z"/>
<path class="st0" d="M862.8,426.7c-2.5,1.2-3.2,3.8-3.9,5.9c-0.7,2.3-1.2,3.7-2.8,4.2s-2.8-0.4-4.7-2s-4.3-3.5-7.6-2.5
	s-4.2,3.9-4.9,6.3s-1.2,3.7-2.8,4.2s-2.8-0.4-4.7-1.9s-4.3-3.5-7.6-2.5s-4.2,3.9-4.9,6.3s-1.2,3.7-2.8,4.2s-2.8-0.4-4.7-2
	c-1.7-1.4-3.7-3.1-6.5-2.8c0.1,0.5,0.2,0.9,0.4,1.4s0.4,1.1,0.6,1.7c1.1,0.1,2.1,0.9,3.5,2.1c1.9,1.6,4.3,3.5,7.6,2.5
	s4.2-3.9,4.9-6.3s1.2-3.7,2.8-4.2s2.8,0.4,4.7,2s4.3,3.5,7.6,2.5s4.2-3.9,4.9-6.3s1.2-3.7,2.8-4.2s2.8,0.4,4.7,2s4.3,3.5,7.6,2.5
	s4.2-3.9,4.9-6.3c0.5-1.7,0.9-3,1.8-3.7L862.8,426.7z"/>
<path class="st0" d="M861.1,422.8c-0.7,1-1.1,2.1-1.4,3.3c-0.7,2.4-1.6,5.3-4.9,6.3s-5.7-1-7.6-2.5s-3.1-2.4-4.7-2s-2.1,1.9-2.8,4.2
	s-1.6,5.3-4.9,6.3s-5.7-1-7.6-2.5s-3-2.4-4.7-1.9s-2.1,1.9-2.8,4.2s-1.6,5.3-4.9,6.3s-5.7-1-7.6-2.5c-0.9-0.8-1.9-1.5-3-2
	c-0.1-1.1-0.2-2.1-0.2-3.2c2.1,0.2,3.7,1.6,5.1,2.8c1.8,1.5,3,2.4,4.7,2s2.1-1.9,2.8-4.2s1.6-5.3,4.9-6.3s5.7,1,7.6,2.5s3,2.4,4.7,2
	s2.1-1.9,2.8-4.2s1.6-5.3,4.9-6.3s5.7,1,7.6,2.5s3,2.4,4.7,2s2.1-1.9,2.8-4.2c0.5-1.7,1.1-3.8,2.7-5.1
	C860,420.9,860.6,421.8,861.1,422.8z"/>
<path class="st5" d="M814.1,436.4c0.3,0.8-0.2,1.7-1,1.9c-0.8,0.3-1.7-0.2-1.9-1c-0.3-0.8,0.2-1.7,1-1.9c0,0,0,0,0,0
	C813,435.2,813.9,435.6,814.1,436.4z"/>
<path class="st5" d="M834.2,430.9c0.3,0.8-0.2,1.7-1,1.9c-0.8,0.3-1.7-0.2-1.9-1c-0.3-0.8,0.2-1.7,1-1.9c0,0,0,0,0,0
	C833.1,429.6,833.9,430.1,834.2,430.9z"/>
<path class="st5" d="M854.5,424.8c0.2,0.8-0.2,1.6-1,1.9c-0.8,0.2-1.6-0.2-1.9-1c-0.2-0.8,0.2-1.6,1-1.9c0,0,0,0,0,0
	C853.5,423.5,854.3,424,854.5,424.8z"/>
<path class="st5" d="M827.4,445.2c0.2,0.8,0.1,1-0.7,1.3s-2,0.4-2.2-0.4c-0.2-0.8,0.2-1.6,1-1.9S827.1,444.4,827.4,445.2z"/>
<path class="st5" d="M847.7,439c0.2,0.8-0.2,1.6-1,1.9c-0.8,0.2-1.3-0.8-1.6-1.6s-0.1-1,0.7-1.3C846.7,437.8,847.5,438.3,847.7,439z
	"/>
</svg>
