<svg xmlns="http://www.w3.org/2000/svg" xmlns:xlink="http://www.w3.org/1999/xlink" viewBox="0 0 943.32 1374.73"><defs><style>.cls-1,.cls-2,.cls-21,.cls-3,.cls-5{fill:#fff;}.cls-2{opacity:0.3;}.cls-3{opacity:0.2;}.cls-4{fill:#00b1e8;}.cls-5{opacity:0.5;}.cls-6{fill:#0e369e;}.cls-7{fill:url(#radial-gradient);}.cls-8{fill:url(#radial-gradient-2);}.cls-9{fill:url(#radial-gradient-3);}.cls-10{fill:url(#radial-gradient-4);}.cls-11{fill:url(#radial-gradient-5);}.cls-12{fill:url(#radial-gradient-6);}.cls-13,.cls-14,.cls-15,.cls-16{fill:none;}.cls-13{stroke:#00b1e8;}.cls-13,.cls-14{stroke-miterlimit:10;}.cls-14{stroke:url(#radial-gradient-7);}.cls-15{stroke:#0e369e;}.cls-15,.cls-16{stroke-linecap:round;stroke-linejoin:round;stroke-width:0.83px;}.cls-16{stroke:#fff;}.cls-17{fill:#00aec7;}.cls-18{fill:url(#radial-gradient-8);}.cls-19{fill:url(#radial-gradient-9);}.cls-20{fill:#676565;}.cls-21{opacity:0.05;}.cls-22{opacity:0.15;}.cls-23{fill:url(#radial-gradient-10);}</style><radialGradient id="radial-gradient" cx="-1196.8" cy="23.26" r="5.48" gradientTransform="translate(1168.69 76.29) rotate(-18.78)" gradientUnits="userSpaceOnUse"><stop offset="0" stop-color="#ede96f"/><stop offset="0.88" stop-color="#ede937"/></radialGradient><radialGradient id="radial-gradient-2" cx="868.26" cy="741.99" r="8.68" gradientTransform="matrix(1, 0, 0, 1, 0, 0)" xlink:href="#radial-gradient"/><radialGradient id="radial-gradient-3" cx="899.2" cy="810.65" r="6.96" gradientTransform="matrix(1, 0, 0, 1, 0, 0)" xlink:href="#radial-gradient"/><radialGradient id="radial-gradient-4" cx="880.76" cy="789.1" r="5.99" gradientTransform="matrix(1, 0, 0, 1, 0, 0)" xlink:href="#radial-gradient"/><radialGradient id="radial-gradient-5" cx="857.8" cy="821.44" r="6.87" gradientTransform="matrix(1, 0, 0, 1, 0, 0)" xlink:href="#radial-gradient"/><radialGradient id="radial-gradient-6" cx="910.26" cy="1333.38" r="30.04" gradientTransform="matrix(1, 0, 0, 1, 0, 0)" xlink:href="#radial-gradient"/><radialGradient id="radial-gradient-7" cx="831.87" cy="1333.6" r="30.48" gradientTransform="matrix(1, 0, 0, 1, 0, 0)" xlink:href="#radial-gradient"/><radialGradient id="radial-gradient-8" cx="187.43" cy="105.66" r="9.83" gradientTransform="matrix(1, 0, 0, 1, 0, 0)" xlink:href="#radial-gradient"/><radialGradient id="radial-gradient-9" cx="159.38" cy="105.26" r="9.83" gradientTransform="matrix(1, 0, 0, 1, 0, 0)" xlink:href="#radial-gradient"/><radialGradient id="radial-gradient-10" cx="1040.06" cy="346.87" r="30.18" gradientTransform="translate(-261.51 404.57) rotate(-16.76)" xlink:href="#radial-gradient"/></defs><g id="Capa_2" data-name="Capa 2"><g id="Elementos"><path class="cls-1" d="M823.49,267.28a4.34,4.34,0,1,1-5.4,2.89A4.33,4.33,0,0,1,823.49,267.28Z"/><polygon class="cls-2" points="790.47 991.5 794.8 1017.26 820.64 1021.1 797.48 1033.18 801.81 1058.94 783.17 1040.64 760.01 1052.73 771.64 1029.34 753 1011.05 778.83 1014.88 790.47 991.5"/><path class="cls-1" d="M935.07,169.2a1.15,1.15,0,0,0-1.23-1.07l-4.32.28,4.47-5.88a1.16,1.16,0,0,0-1.84-1.4l-5.68,7.49-5.17.34,3.44-4.12a1.15,1.15,0,0,0-1.77-1.48l-4.84,5.81-9.83.65,6.49-7.41,7.55-.32h0a1.15,1.15,0,0,0-.12-2.3l-5.37.22,3.42-3.89,9.39,0h.08a1.15,1.15,0,0,0-.07-2.3l-7.39,0,2.85-3.26a1.15,1.15,0,0,0-1.73-1.52l-2.86,3.26-1-7.32a1.15,1.15,0,0,0-2.28.31l1.27,9.31-3.41,3.9-.48-5.35a1.12,1.12,0,0,0-1.25-1,1.15,1.15,0,0,0-1,1.25l.68,7.53-6.49,7.41-.65-9.83,5.12-5.56a1.16,1.16,0,0,0-1.7-1.57l-3.63,4-.34-5.17,6.67-6.62a1.15,1.15,0,0,0-1.63-1.63l-5.24,5.2-.29-4.32a1.15,1.15,0,1,0-2.3.15l.29,4.32L897,142.76a1.15,1.15,0,0,0-1.39,1.84l7.48,5.68.34,5.17L899.28,152a1.15,1.15,0,0,0-1.47,1.77l5.8,4.84.65,9.83L896.85,162l-.32-7.55a1.14,1.14,0,0,0-1.2-1.1h0a1.15,1.15,0,0,0-1.08,1.2l.23,5.36-3.9-3.42,0-9.39a1.17,1.17,0,0,0-1.15-1.16,1.15,1.15,0,0,0-1.16,1.15l0,7.39L885,151.59a1.15,1.15,0,0,0-1.51,1.73l3.25,2.86-7.32,1a1.15,1.15,0,0,0,.23,2.29h.09l9.3-1.27,3.9,3.41-5.35.48a1.15,1.15,0,0,0,.18,2.3h0l7.53-.68,7.41,6.49-9.83.65-5.56-5.12a1.15,1.15,0,1,0-1.56,1.7l4,3.63-5.17.34L878,164.72a1.15,1.15,0,1,0-1.63,1.63l5.2,5.24-4.32.29a1.15,1.15,0,0,0,.15,2.3l4.32-.29-4.46,5.89a1.15,1.15,0,1,0,1.83,1.39l5.68-7.48,5.17-.34-3.44,4.12a1.15,1.15,0,0,0,.15,1.62,1.14,1.14,0,0,0,1.62-.14l4.85-5.81,9.83-.65-6.49,7.41-7.56.32h0a1.15,1.15,0,0,0,.13,2.3l5.36-.23-3.41,3.9-9.4,0a1.16,1.16,0,0,0,0,2.31l7.39,0L886,191.75a1.16,1.16,0,0,0,.94,1.91,1.13,1.13,0,0,0,.79-.4l2.86-3.25,1,7.32a1.16,1.16,0,0,0,1.22,1h.08a1.15,1.15,0,0,0,1-1.29l-1.28-9.31,3.41-3.9.49,5.35a1.15,1.15,0,0,0,1.22,1h0a1.15,1.15,0,0,0,1-1.25l-.68-7.53,6.49-7.41.65,9.83-5.12,5.56a1.16,1.16,0,0,0,.07,1.63,1.18,1.18,0,0,0,.86.3,1.15,1.15,0,0,0,.77-.37l3.63-4,.34,5.17-6.66,6.62a1.15,1.15,0,0,0,0,1.63,1.12,1.12,0,0,0,.89.33,1.08,1.08,0,0,0,.74-.33l5.25-5.2.28,4.32a1.15,1.15,0,0,0,2.3-.15l-.28-4.32,5.88,4.46a1.14,1.14,0,0,0,1.62-.22,1.16,1.16,0,0,0-.22-1.61L908.13,192l-.34-5.17,4.12,3.44a1.14,1.14,0,0,0,.82.26,1.15,1.15,0,0,0,.66-2l-5.81-4.85-.65-9.82,7.41,6.48.32,7.56a1.14,1.14,0,0,0,1.2,1.1h0a1.15,1.15,0,0,0,1.07-1.2l-.22-5.36,3.89,3.42,0,9.39a1.14,1.14,0,0,0,1.14,1.15h.09a1.15,1.15,0,0,0,1.07-1.14l0-7.39,3.26,2.85a1.15,1.15,0,1,0,1.52-1.73l-3.26-2.86,7.32-1a1.16,1.16,0,1,0-.31-2.29l-9.31,1.28-3.89-3.41,5.34-.49a1.14,1.14,0,0,0,1-1.25,1.12,1.12,0,0,0-1.25-1l-7.53.68-7.41-6.49,9.83-.65,5.57,5.12a1.15,1.15,0,0,0,.85.3,1.11,1.11,0,0,0,.77-.37,1.15,1.15,0,0,0-.06-1.63l-3.95-3.63,5.17-.34,6.61,6.66a1.13,1.13,0,0,0,.89.34,1.19,1.19,0,0,0,.74-.33,1.16,1.16,0,0,0,0-1.63l-5.21-5.25,4.32-.28A1.15,1.15,0,0,0,935.07,169.2Z"/><circle class="cls-1" cx="844.61" cy="209.38" r="17.92"/><path class="cls-3" d="M140.5,643.13,84.59,664.7l24.28-54.79a5.57,5.57,0,0,0-10.19-4.51L74.4,660.19,52.82,604.28a5.57,5.57,0,0,0-10.4,4L64,664.2,9.21,639.92a5.57,5.57,0,1,0-4.52,10.19l54.79,24.28L3.57,696a5.57,5.57,0,0,0,4,10.4l55.91-21.58L39.21,739.58a5.57,5.57,0,1,0,10.19,4.51l24.28-54.78,21.58,55.91a5.57,5.57,0,0,0,10.4-4L84.08,685.29l54.79,24.28a5.57,5.57,0,1,0,4.52-10.19L88.6,675.1l55.91-21.57a5.57,5.57,0,0,0-4-10.4Z"/><polygon class="cls-4" points="183.56 1235.03 184.95 1243.31 193.25 1244.54 185.81 1248.42 187.2 1256.71 181.21 1250.83 173.76 1254.71 177.5 1247.19 171.51 1241.31 179.81 1242.55 183.56 1235.03"/><path class="cls-5" d="M114.17,1127.26a1.9,1.9,0,0,0-1.23-2.39l-6.8-2.16,10.39-6.34a1.9,1.9,0,1,0-2-3.24l-13.22,8-8.13-2.58,7.75-4.25a1.9,1.9,0,0,0-1.82-3.33l-10.93,6-15.47-4.92,14.42-7.46,11.78,4.06h0a1.9,1.9,0,0,0,1.2-3.6l-8.36-2.88,7.58-3.93,14.38,5.72.13,0a1.9,1.9,0,0,0,1.28-3.57l-11.32-4.5,6.34-3.28a1.9,1.9,0,1,0-1.75-3.37l-6.34,3.28,2.87-11.84a1.9,1.9,0,0,0-3.69-.89l-3.65,15-7.58,3.92,2.48-8.48a1.86,1.86,0,0,0-1.29-2.36,1.91,1.91,0,0,0-2.36,1.29l-3.49,12L71,1108.71l4.92-15.47,11.2-5.45a1.9,1.9,0,0,0-1.67-3.42l-7.94,3.87,2.58-8.13L94.3,1074a1.9,1.9,0,0,0-1.5-3.49l-11.18,4.83,2.16-6.81a1.9,1.9,0,0,0-3.62-1.15l-2.16,6.8-6.34-10.39a1.9,1.9,0,0,0-3.25,2L76.47,1079l-2.58,8.13-4.25-7.75a1.9,1.9,0,0,0-3.33,1.83l6,10.92-4.92,15.47-7.46-14.41L64,1081.36A1.9,1.9,0,0,0,62.8,1079h0a1.89,1.89,0,0,0-2.37,1.19l-2.88,8.35-3.93-7.58,5.72-14.38a1.9,1.9,0,0,0-1.07-2.46,1.86,1.86,0,0,0-2.46,1.06l-4.5,11.32L48,1070.1a1.9,1.9,0,1,0-3.37,1.74l3.28,6.34-11.84-2.87a1.9,1.9,0,0,0-1,3.66l.13,0,15,3.65,3.92,7.58-8.48-2.48a1.9,1.9,0,0,0-1.11,3.64h0l12,3.49L64,1109.31l-15.47-4.92-5.45-11.2a1.9,1.9,0,1,0-3.42,1.66l3.87,8-8.13-2.59L29.27,1086a1.9,1.9,0,1,0-3.49,1.51l4.83,11.18-6.81-2.17a1.9,1.9,0,0,0-1.15,3.62l6.8,2.17-10.39,6.34a1.89,1.89,0,0,0-.63,2.61,1.89,1.89,0,0,0,2.61.63l13.21-8.06,8.13,2.59-7.75,4.25a1.9,1.9,0,0,0,1.83,3.33l10.92-6,15.47,4.92-14.41,7.46-11.78-4.06,0,0a1.9,1.9,0,0,0-1.19,3.61l8.36,2.88-7.59,3.92L21.81,1121a1.89,1.89,0,0,0-2.47,1.06,1.91,1.91,0,0,0,1.07,2.47L31.73,1129l-6.34,3.28a1.9,1.9,0,1,0,1.74,3.37l6.34-3.28-2.87,11.84a1.91,1.91,0,0,0,1.27,2.26l.13,0a1.89,1.89,0,0,0,2.29-1.4l3.65-15,7.58-3.92L43,1134.66a1.91,1.91,0,0,0,1.25,2.34h.05a1.89,1.89,0,0,0,2.35-1.29l3.49-12,14.42-7.46-4.92,15.47-11.2,5.46a1.89,1.89,0,0,0-.88,2.54,1.92,1.92,0,0,0,1.13,1,1.88,1.88,0,0,0,1.41-.1l8-3.87-2.59,8.13L41.29,1151a1.9,1.9,0,1,0,1.51,3.49L54,1149.7l-2.17,6.8a1.9,1.9,0,0,0,3.62,1.15l2.17-6.8,6.33,10.39a1.9,1.9,0,0,0,2.62.64,1.91,1.91,0,0,0,.63-2.61l-8.06-13.22,2.59-8.13,4.25,7.75a1.86,1.86,0,0,0,1.09.9,1.9,1.9,0,0,0,2.24-2.72l-6-10.93,4.92-15.47,7.46,14.42-4.07,11.78a1.9,1.9,0,0,0,1.18,2.41l0,0a1.91,1.91,0,0,0,2.37-1.19l2.88-8.36,3.92,7.58-5.71,14.38a1.9,1.9,0,0,0,1.06,2.47l.13,0a1.89,1.89,0,0,0,2.34-1.11l4.49-11.31,3.28,6.34a1.9,1.9,0,0,0,3.37-1.75l-3.27-6.34,11.83,2.87a1.9,1.9,0,1,0,.89-3.69l-15-3.65-3.92-7.58,8.49,2.48A1.9,1.9,0,0,0,92.3,1136a1.84,1.84,0,0,0-1.29-2.36l-12-3.49-7.46-14.41,15.47,4.92,5.46,11.2a1.91,1.91,0,0,0,2.54.87,1.9,1.9,0,0,0,.87-2.54l-3.87-7.94,8.13,2.58,6.13,14.21a1.9,1.9,0,0,0,3.49-1.5L105,1126.33l6.8,2.16A1.89,1.89,0,0,0,114.17,1127.26Z"/><path class="cls-1" d="M871.91,1170.34a6.82,6.82,0,1,1-3.29,9.06A6.8,6.8,0,0,1,871.91,1170.34Z"/><path class="cls-5" d="M108,180.89l-28.54,11,12.4-28a2.85,2.85,0,0,0-5.21-2.31l-12.39,28-11-28.54a2.85,2.85,0,1,0-5.31,2.05l11,28.54-28-12.4a2.85,2.85,0,0,0-2.31,5.21l28,12.39-28.54,11a2.85,2.85,0,0,0,2,5.31l28.54-11-12.4,28a2.86,2.86,0,0,0,1.45,3.76,2.89,2.89,0,0,0,2.18.05,2.78,2.78,0,0,0,1.57-1.5l12.4-28,11,28.54A2.85,2.85,0,0,0,90.18,231l-11-28.54,28,12.4a2.89,2.89,0,0,0,2.18.05,2.83,2.83,0,0,0,1.58-1.5,2.86,2.86,0,0,0-1.45-3.76l-28-12.39,28.54-11a2.85,2.85,0,0,0-2.05-5.31Z"/><path class="cls-4" d="M49.57,77.94a6.82,6.82,0,1,1-9.39-2.19A6.83,6.83,0,0,1,49.57,77.94Z"/><path class="cls-1" d="M565.17,95.47A15.9,15.9,0,0,0,547,108.72a13,13,0,0,0,10.81,14.81,10.62,10.62,0,0,0,12.13-8.85,1.23,1.23,0,0,0-2.44-.38,8.15,8.15,0,0,1-9.31,6.8,10.5,10.5,0,0,1-8.76-12,13.44,13.44,0,0,1,15.36-11.2A17.13,17.13,0,0,1,579,117.44a21.7,21.7,0,0,1-24.78,18.08c-5.21-.82-12.33-5.86-21.35-12.24-14-9.94-32.32-22.87-56.11-29.32,1.35,0,2.72,0,4.1,0,8.73,0,17.72-.55,21.74-2.55A18.7,18.7,0,1,0,486,57.94c-6.93,3.43-19.33,21.14-24.78,29.26V0h-2.46V88.39C453.85,81,440.5,61.55,433.22,57.94a18.7,18.7,0,1,0-16.63,33.51c4,2,13,2.55,21.75,2.55,1.37,0,2.75,0,4.09,0-23.79,6.45-42.07,19.38-56.11,29.32-9,6.38-16.14,11.42-21.35,12.24a21.72,21.72,0,0,1-24.78-18.08A17.13,17.13,0,0,1,354.45,97.9a13.44,13.44,0,0,1,15.35,11.2,10.51,10.51,0,0,1-8.75,12,8.16,8.16,0,0,1-6.07-1.47,8.07,8.07,0,0,1-3.25-5.33,1.23,1.23,0,0,0-2.44.38,10.63,10.63,0,0,0,12.14,8.85,13,13,0,0,0,10.8-14.81,15.89,15.89,0,0,0-18.16-13.25,19.59,19.59,0,0,0-16.31,22.35,24.19,24.19,0,0,0,23.85,20.42,23.84,23.84,0,0,0,3.74-.29c5.78-.9,13.11-6.09,22.4-12.66,12.29-8.7,27.87-19.73,47.54-26.54a6.11,6.11,0,0,0-1.27,2.56c-1.13,5.06-2.63,11.75-3.06,13.71a1.89,1.89,0,0,0,.31,1.51c.69,1,1.39,2,2.11,3a3,3,0,0,0,3.91.72c1-.68,2-1.38,3-2.08a1.94,1.94,0,0,0,.83-1.31l.93-6.52a2.74,2.74,0,0,1,5.4.65c-.22,2.19-.43,4.37-.65,6.56a2,2,0,0,0,.49,1.47c.8.92,1.61,1.84,2.45,2.74a3,3,0,0,0,4,.24c.93-.8,1.85-1.61,2.75-2.43a2,2,0,0,0,.67-1.4q.06-3.28.14-6.59a2.74,2.74,0,0,1,5.43,0q.06,3.3.14,6.59a1.93,1.93,0,0,0,.66,1.4q1.35,1.23,2.76,2.43a3,3,0,0,0,4-.24c.83-.91,1.64-1.82,2.44-2.74a2,2,0,0,0,.49-1.47c-.21-2.19-.43-4.37-.65-6.56a2.74,2.74,0,0,1,5.4-.65l.93,6.52a2,2,0,0,0,.83,1.31c1,.7,2,1.4,3,2.08a3,3,0,0,0,3.91-.72c.72-1,1.43-2,2.11-3a1.94,1.94,0,0,0,.32-1.51q-1.54-6.85-3.07-13.71a5.94,5.94,0,0,0-1-2.17c19.16,6.83,34.39,17.61,46.46,26.15,9.28,6.57,16.61,11.76,22.39,12.66a24.17,24.17,0,0,0,3.78.3,24.18,24.18,0,0,0,23.81-20.43A19.59,19.59,0,0,0,565.17,95.47ZM487.11,60.15a16.24,16.24,0,1,1,14.44,29.1c-7,3.49-32.31,2.09-39.76,1.59C465.9,84.61,480.07,63.64,487.11,60.15Zm-69.42,29.1a16.24,16.24,0,0,1,14.43-29.1c7,3.49,21.21,24.46,25.32,30.69C450,91.34,424.73,92.74,417.69,89.25Z"/><path class="cls-1" d="M81.94,642.7v30.12a.81.81,0,0,0,1.61,0V642.7a.81.81,0,0,0-1.61,0Z"/><path class="cls-1" d="M97.8,657H67.68a.81.81,0,0,0,0,1.62H97.8a.81.81,0,0,0,0-1.62Z"/><path class="cls-1" d="M92.82,646.54l-21.3,21.3c-.73.73.41,1.87,1.15,1.14L94,647.68a.81.81,0,0,0-1.14-1.14Z"/><path class="cls-1" d="M94,667.84l-21.29-21.3a.81.81,0,0,0-1.15,1.14L92.82,669c.74.73,1.88-.41,1.14-1.14Z"/><path class="cls-1" d="M86.78,647.28v5.37a.81.81,0,0,0,1.61,0v-5.37a.81.81,0,0,0-1.61,0Z"/><path class="cls-1" d="M92.93,652H87.56a.81.81,0,0,0,0,1.62h5.37a.81.81,0,0,0,0-1.62Z"/><path class="cls-1" d="M93,661.8H87.62a.81.81,0,0,0,0,1.61H93a.81.81,0,0,0,0-1.61Z"/><path class="cls-1" d="M88.31,668v-5.37a.81.81,0,0,0-1.61,0V668a.81.81,0,0,0,1.61,0Z"/><path class="cls-1" d="M72.1,653.35h5.37a.81.81,0,0,0,0-1.61H72.1a.81.81,0,0,0,0,1.61Z"/><path class="cls-1" d="M76.78,647.2v5.37a.81.81,0,0,0,1.61,0V647.2a.81.81,0,0,0-1.61,0Z"/><path class="cls-1" d="M95.67,652.21,90.92,657a.81.81,0,0,0,1.14,1.14l4.75-4.75a.81.81,0,0,0-1.14-1.14Z"/><path class="cls-1" d="M96.69,661.8l-4.76-4.75c-.73-.74-1.87.4-1.14,1.14l4.76,4.75a.81.81,0,0,0,1.14-1.14Z"/><path class="cls-1" d="M69.41,662.94l4.76-4.75A.81.81,0,0,0,73,657.05l-4.76,4.75c-.73.74.41,1.88,1.14,1.14Z"/><path class="cls-1" d="M68.4,653.35l4.75,4.76c.74.73,1.88-.41,1.14-1.14l-4.75-4.76a.81.81,0,0,0-1.14,1.14Z"/><path class="cls-1" d="M77.18,644.45l4.75,4.75a.81.81,0,0,0,1.14-1.14l-4.75-4.75a.81.81,0,0,0-1.14,1.14Z"/><path class="cls-1" d="M86.77,643.43,82,648.19a.81.81,0,0,0,1.14,1.14l4.76-4.76a.81.81,0,0,0-1.14-1.14Z"/><path class="cls-1" d="M87.91,670.71,83.16,666A.81.81,0,0,0,82,667.09l4.75,4.76c.74.73,1.88-.41,1.14-1.14Z"/><path class="cls-1" d="M78.32,671.72,83.07,667a.81.81,0,0,0-1.14-1.14l-4.75,4.75a.81.81,0,0,0,1.14,1.14Z"/><path class="cls-1" d="M79,667.79v-5.37a.81.81,0,0,0-1.61,0v5.37a.81.81,0,0,0,1.61,0Z"/><path class="cls-1" d="M72.8,663.11h5.37a.81.81,0,0,0,0-1.62H72.8a.81.81,0,0,0,0,1.62Z"/><path class="cls-1" d="M62.15,358.77C65.33,349.39,60,340.46,51,337.21l.65,1.53c4.68-9.44-3.21-19.7-13.41-18.46-10.38,1.26-14.39,14.2-7.46,21.56l.18-1.65c-7.69,5.72-10.22,15.82-4.46,23.87l.18-1.65c-8,7.57-11.24,18.65-7.55,29.18,3.34,9.56,12.39,16,22.08,17.8A31.9,31.9,0,0,0,69.76,400a27,27,0,0,0,5.68-28.06c-2.45-6.55-7.78-11.62-13.94-14.7-1.36-.68-2.22,1.51-.88,2.18,10.53,5.26,16.53,16.81,13.42,28.39-2.84,10.52-12.47,17.71-22.94,19.38A27.93,27.93,0,0,1,23.52,395.3c-6.57-10-3.79-23.12,4.6-31.06a1.21,1.21,0,0,0,.18-1.65c-5.05-7-2.52-15.65,4.09-20.57a1.18,1.18,0,0,0,.18-1.65,10.54,10.54,0,0,1,6-17.76c8.64-1.52,14.57,7.8,10.88,15.26a1.17,1.17,0,0,0,.65,1.53c7.75,2.79,12.67,10.28,9.89,18.49C59.48,359.33,61.67,360.21,62.15,358.77Z"/><path class="cls-1" d="M35.49,332.43a1.18,1.18,0,0,0-.34-2.33,1.18,1.18,0,0,0,.34,2.33Z"/><path class="cls-1" d="M44.39,331.11a1.18,1.18,0,0,0-.35-2.33,1.18,1.18,0,0,0,.35,2.33Z"/><path class="cls-1" d="M43.15,354.61a1.18,1.18,0,0,0-.35-2.33,1.18,1.18,0,0,0,.35,2.33Z"/><path class="cls-1" d="M44.87,366.24a1.17,1.17,0,0,0-.34-2.32,1.17,1.17,0,0,0,.34,2.32Z"/><path class="cls-1" d="M46.67,378.35a1.18,1.18,0,0,0-.35-2.33,1.18,1.18,0,0,0,.35,2.33Z"/><path class="cls-1" d="M35.81,336.68A5.37,5.37,0,0,0,45,335.32a1.18,1.18,0,0,0-2.18-.88,3,3,0,0,1-5.13.77c-1-1.16-2.82.31-1.84,1.47Z"/><path class="cls-1" d="M48.19,324.52c2.21-.53,5-2.86,3.6-5.47s-3.64-2.62-6.17-2.24l1.34,1c-.43-2.88-.68-5.85-1.34-8.69-1-4.54-6-3.42-9.27-2.93-3.59.53-8,.62-8.49,5.25a18.89,18.89,0,0,0,.55,4.29l.7,4.73,1-1.34c-2.1.31-4.64.92-5.14,3.38-.64,3.14,2.09,4.92,4.92,4.74,1.51-.09,1.16-2.42-.35-2.32-2.61.16-3-2.66-.48-3.26.45-.11.94-.14,1.4-.21a1.19,1.19,0,0,0,1-1.34l-1.1-7.37c-.57-3.84,3.15-3.74,5.89-4.15,2.58-.38,6.71-1.82,7.27,1.94l1.13,7.63a1.19,1.19,0,0,0,1.33,1l1.26-.19c2.65-.39,3.26,2.61.62,3.24-1.46.35-1.13,2.68.35,2.33Z"/><path class="cls-6" d="M34.7,470.83l5-9.14a1.52,1.52,0,0,1,.85-.7,1.49,1.49,0,0,1,1.58.46l6.68,8a1.45,1.45,0,0,0,.52.4A1.57,1.57,0,0,0,50,470l10.4-.25a1.4,1.4,0,0,1,.71.16,1.47,1.47,0,0,1,.71,1.82l-3.58,9.77a1.56,1.56,0,0,0-.08.42,1.45,1.45,0,0,0,.21.86l5.42,8.89a1.48,1.48,0,0,1-1,2.22l-10.25,1.79a1.7,1.7,0,0,0-.45.15,1.59,1.59,0,0,0-.59.59l-5,9.14a1.48,1.48,0,0,1-.94.73,1.5,1.5,0,0,1-1.49-.49l-6.67-8a1.37,1.37,0,0,0-.46-.37,1.43,1.43,0,0,0-.71-.16l-10.41.25a1.47,1.47,0,0,1-1.09-.45,1.5,1.5,0,0,1-.33-1.54l3.58-9.77a1.44,1.44,0,0,0,.08-.65,1.47,1.47,0,0,0-.21-.63l-5.41-8.88a1.49,1.49,0,0,1,1-2.23l10.26-1.78a1.47,1.47,0,0,0,.6-.26A1.48,1.48,0,0,0,34.7,470.83Z"/><path class="cls-4" d="M40.23,475.34h0a3.38,3.38,0,0,0,1.88.18,3.23,3.23,0,0,0,1.38-.64h0a3.24,3.24,0,0,1,3.1-.51A3.28,3.28,0,0,1,48.77,477h0a3.29,3.29,0,0,0,2,2.59h0a3.25,3.25,0,0,1,2,2.79,3.2,3.2,0,0,1-1.25,2.84h0a3.29,3.29,0,0,0-1.23,3.05h0a3.29,3.29,0,0,1-4.49,3.51h0a3.19,3.19,0,0,0-1.75-.2,3.15,3.15,0,0,0-1.5.65h0a3.29,3.29,0,0,1-5.28-2.13h0a3.29,3.29,0,0,0-.66-1.57,3.38,3.38,0,0,0-1.36-1h0a3.28,3.28,0,0,1-.79-5.64h0a3.23,3.23,0,0,0,1.06-1.47,3.35,3.35,0,0,0,.17-1.58h0a3.27,3.27,0,0,1,1.49-3.23A3.24,3.24,0,0,1,40.23,475.34Z"/><path class="cls-7" d="M41.45,478.88h0a1.84,1.84,0,0,0,1.06.1,1.77,1.77,0,0,0,.79-.36h0a1.87,1.87,0,0,1,3,1.22h0a1.92,1.92,0,0,0,.38.89,1.88,1.88,0,0,0,.78.58h0a1.88,1.88,0,0,1,1.16,1.59,1.84,1.84,0,0,1-.71,1.62h0a1.9,1.9,0,0,0-.58.77,1.77,1.77,0,0,0-.12,1h0a1.87,1.87,0,0,1-2.56,2h0a1.91,1.91,0,0,0-1-.11,1.85,1.85,0,0,0-.85.37h0a1.85,1.85,0,0,1-1.78.29,1.87,1.87,0,0,1-1.23-1.5h0a1.78,1.78,0,0,0-.38-.89,1.81,1.81,0,0,0-.77-.59h0a1.83,1.83,0,0,1-1.13-1.37,1.86,1.86,0,0,1,.68-1.84h0a1.91,1.91,0,0,0,.61-.83,1.83,1.83,0,0,0,.09-.9h0a1.88,1.88,0,0,1,2.56-2Z"/><path class="cls-8" d="M859.91,744.36a8.68,8.68,0,1,1,10.71,6A8.68,8.68,0,0,1,859.91,744.36Z"/><path class="cls-1" d="M927.18,501.89a6.82,6.82,0,1,1-9.39-2.19A6.83,6.83,0,0,1,927.18,501.89Z"/><path class="cls-4" d="M863.05,795.64l-28,58.52a6.2,6.2,0,0,0,11.18,5.35l28-58.52a10.94,10.94,0,0,1,5.1-5.15h0a11,11,0,0,1,6.49-1.06,10.88,10.88,0,0,1,3.27,1,11.21,11.21,0,0,1,2,1.23,11.14,11.14,0,0,1,.26,17.46,5.56,5.56,0,0,0-.78.75,6.2,6.2,0,0,0,8.62,8.85,23.34,23.34,0,0,0,6.33-8.07,20,20,0,0,0,1.19-3,22.8,22.8,0,0,0,1.12-7,23.54,23.54,0,0,0-5.08-14.69,22.5,22.5,0,0,0-4.92-4.66,21.75,21.75,0,0,0-3.38-2,23.39,23.39,0,0,0-12.27-2.21,24.25,24.25,0,0,0-6.56,1.56A23.51,23.51,0,0,0,863.05,795.64Z"/><path class="cls-9" d="M890.57,815.19c5.64.75,11.78-.75,16.14-2.25a22.8,22.8,0,0,0,1.12-7,41.89,41.89,0,0,1-12.92,3.27,10.93,10.93,0,0,1-3.56,5.26A5.56,5.56,0,0,0,890.57,815.19Z"/><path class="cls-1" d="M891.09,797a11.1,11.1,0,0,1,3.67,5,26.4,26.4,0,0,0,8-10.78,22.5,22.5,0,0,0-4.92-4.66A20.86,20.86,0,0,1,891.09,797Z"/><path class="cls-10" d="M875.62,783.92c2.44,2.69,5,6.91,3.72,11.91a11,11,0,0,1,6.49-1.06A17.91,17.91,0,0,0,883,783.53c-.25-.4-.52-.79-.78-1.17A24.25,24.25,0,0,0,875.62,783.92Z"/><path class="cls-1" d="M863,795.78l-2.7,5.64c3.37,2.1,7.29,5.56,8.59,10.77l3.53-7.39A27.48,27.48,0,0,0,863,795.78Z"/><path class="cls-11" d="M854.26,814l-2.69,5.62c3.3,1.89,7.25,4.91,9.31,9.26l3.16-6.61A32.11,32.11,0,0,0,854.26,814Z"/><path class="cls-1" d="M845.83,831.63l-2.69,5.6c3.29,1.92,7.24,4.92,9.3,9.28l3.16-6.61A31.94,31.94,0,0,0,845.83,831.63Z"/><path class="cls-1" d="M907.56,1256.71s21.11,17.48,7.65,28.84c-6.55,5.54-13.36.1-14.22-5.43a14.21,14.21,0,0,1,1.61-9.15C904.76,1267.06,907.85,1260.71,907.56,1256.71Z"/><path class="cls-1" d="M868.37,1256.71s21.11,17.48,7.65,28.84c-6.55,5.54-13.36.1-14.22-5.43a14.21,14.21,0,0,1,1.61-9.15C865.57,1267.06,868.66,1260.71,868.37,1256.71Z"/><path class="cls-1" d="M829.18,1256.71s21.11,17.48,7.65,28.84c-6.55,5.54-13.36.1-14.23-5.43a14.28,14.28,0,0,1,1.62-9.15C826.38,1267.06,829.47,1260.71,829.18,1256.71Z"/><path class="cls-1" d="M790,1256.71s21.11,17.48,7.65,28.84c-6.55,5.54-13.36.1-14.23-5.43A14.28,14.28,0,0,1,785,1271C787.19,1267.06,790.28,1260.71,790,1256.71Z"/><path class="cls-12" d="M905.94,1292.74h8.63a8.07,8.07,0,0,1,8.07,8.07v69.56A3.63,3.63,0,0,1,919,1374H901.5a3.63,3.63,0,0,1-3.63-3.63v-69.56A8.07,8.07,0,0,1,905.94,1292.74Z"/><path class="cls-13" d="M866.75,1293h8.63a8.07,8.07,0,0,1,8.07,8.07v69.56a3.63,3.63,0,0,1-3.63,3.63H862.31a3.63,3.63,0,0,1-3.63-3.63V1301a8.07,8.07,0,0,1,8.07-8.07Z"/><path class="cls-14" d="M827.56,1293h8.63a8.07,8.07,0,0,1,8.07,8.07v69.56a3.63,3.63,0,0,1-3.63,3.63H823.12a3.63,3.63,0,0,1-3.63-3.63V1301A8.07,8.07,0,0,1,827.56,1293Z"/><path class="cls-4" d="M788.37,1293H797a8.07,8.07,0,0,1,8.07,8.07v69.56a3.63,3.63,0,0,1-3.63,3.63H783.93a3.63,3.63,0,0,1-3.63-3.63V1301A8.07,8.07,0,0,1,788.37,1293Z"/><line class="cls-15" x1="795.85" y1="1355.26" x2="798.02" y2="1354.41"/><line class="cls-15" x1="800.57" y1="1353.4" x2="802.74" y2="1352.55"/><line class="cls-15" x1="800.65" y1="1357.35" x2="799.79" y2="1355.18"/><line class="cls-15" x1="798.79" y1="1352.63" x2="797.94" y2="1350.46"/><line class="cls-16" x1="824.44" y1="1302.86" x2="825.34" y2="1300.72"/><line class="cls-16" x1="826.41" y1="1298.19" x2="827.31" y2="1296.04"/><line class="cls-16" x1="829.29" y1="1300.89" x2="827.14" y2="1299.98"/><line class="cls-16" x1="824.61" y1="1298.92" x2="822.46" y2="1298.02"/><line class="cls-16" x1="924.63" y1="1295.58" x2="926.28" y2="1293.93"/><line class="cls-16" x1="928.22" y1="1291.99" x2="929.87" y2="1290.35"/><line class="cls-16" x1="929.87" y1="1295.58" x2="928.22" y2="1293.93"/><line class="cls-16" x1="926.28" y1="1291.99" x2="924.63" y2="1290.35"/><path class="cls-6" d="M788.45,1310.26a.55.55,0,0,0,0-1.1.55.55,0,0,0,0,1.1Z"/><path class="cls-6" d="M871.25,1356a.55.55,0,0,0,0-1.1.55.55,0,0,0,0,1.1Z"/><path class="cls-6" d="M880.62,1329.7a.55.55,0,0,0,0-1.1.55.55,0,0,0,0,1.1Z"/><path class="cls-1" d="M892.81,1306.66a.55.55,0,0,0,0-1.1.55.55,0,0,0,0,1.1Z"/><path class="cls-1" d="M827.69,1340.5a.55.55,0,0,0,0-1.1.55.55,0,0,0,0,1.1Z"/><path class="cls-1" d="M796.37,1298.38a.55.55,0,0,0,0-1.1.55.55,0,0,0,0,1.1Z"/><path class="cls-1" d="M864.41,1318.54a.55.55,0,0,0,0-1.1.55.55,0,0,0,0,1.1Z"/><path class="cls-4" d="M831.1,1293a14.81,14.81,0,0,1-.47-3.59l-.23-3.6c-.13-2.4-.26-4.8-.32-7.2a1.8,1.8,0,0,1,3.59-.09v.09c-.06,2.4-.19,4.8-.32,7.2l-.23,3.6a14.81,14.81,0,0,1-.47,3.59.82.82,0,0,1-1,.53A.85.85,0,0,1,831.1,1293Z"/><path class="cls-4" d="M870.29,1299.45l-1-20.88a1.8,1.8,0,0,1,3.59-.17v.17l-1,20.88a.78.78,0,0,1-1.55,0Z"/><path class="cls-4" d="M909.48,1299.45l-1-20.88a1.8,1.8,0,0,1,3.59-.17v.17l-1,20.88a.78.78,0,0,1-1.55,0Z"/><path class="cls-4" d="M791.91,1299.45l-1-20.88a1.8,1.8,0,0,1,3.59-.17v.17l-1,20.88a.78.78,0,0,1-1.55,0Z"/><path class="cls-6" d="M907.6,1311.66a.55.55,0,0,0,0-1.1.55.55,0,0,0,0,1.1Z"/><path class="cls-6" d="M917.53,1358.8a.55.55,0,0,0,0-1.09.55.55,0,0,0,0,1.09Z"/><path class="cls-6" d="M907.29,1364l.23-.23a.55.55,0,0,0,0-.78l-.11-.08a.53.53,0,0,0-.27-.08l-.15,0a.58.58,0,0,0-.24.14l-.23.23a.36.36,0,0,0-.12.18.38.38,0,0,0,0,.21.54.54,0,0,0,.16.39l.11.09a.64.64,0,0,0,.27.07l.15,0a.58.58,0,0,0,.24-.14Z"/><path class="cls-6" d="M786.73,1328.3a.55.55,0,0,0,0-1.1.55.55,0,0,0,0,1.1Z"/><ellipse class="cls-1" cx="52.17" cy="903.74" rx="12.59" ry="108.25" transform="translate(-851.55 851.2) rotate(-83.37)"/><circle class="cls-1" cx="202.81" cy="1347.43" r="17.92"/><path class="cls-17" d="M171.37,141.12c-2.21,3.54-8.69,2.66-17.64-2.29-1.11-.62-2.26-1.29-3.44-2s-2.29-1.47-3.33-2.2c-8.38-5.86-12-11.3-9.81-14.84,1-1.59,6.49-2.82,9.44-3.48,2.25-.5,2.67-.61,2.83-.88,1.5-2.39,9.46-14,19.51-7.73s3.11,18.53,1.62,20.92c-.19.3-.11.9.33,3.33C171.4,134.83,172.27,139.69,171.37,141.12Z"/><path class="cls-17" d="M209.53,119.84c2.36,3.44-1.05,9-9.17,15.25-1,.77-2.09,1.55-3.24,2.33s-2.26,1.51-3.34,2.17c-8.74,5.33-15.18,6.49-17.54,3-1.06-1.54,0-7.07.6-10,.44-2.27.51-2.7.33-2.95-1.59-2.33-9-14.28.72-21s18.23,4.58,19.82,6.9c.2.3.79.46,3.19,1C203.77,117.29,208.57,118.44,209.53,119.84Z"/><path class="cls-6" d="M175,106s5.22.25,9,7,10.78,12,10.78,12l-8.13-.44-3.73,5.35s-2.4-9.86-4.55-14a39.76,39.76,0,0,0-5.1-7.46Z"/><path class="cls-6" d="M170.77,107.55s-5.05,1.34-7.34,8.71-8,14-8,14l8.11-3.54,4.52,5.87s.28-10.15,1.51-14.69a40.24,40.24,0,0,1,3.42-8.36Z"/><path class="cls-6" d="M185.79,93.64a16.18,16.18,0,0,1,9.14-1.87,3.6,3.6,0,0,1,1.7.58,4.18,4.18,0,0,1,1.21,2,70.64,70.64,0,0,1,2.59,9.26,3.8,3.8,0,0,1-.28,3.08c.34-.93-16,0-21.9,1.81-2.72.82-4.51,1-4.36-.25C174,107.39,175.88,99.85,185.79,93.64Z"/><path class="cls-18" d="M200.6,105.1c.31,2.49-.87,3.76-2.81,4.5-2.18.83-22.92.13-23.55-.71s13.3-6.63,17.37-7.37S200.29,102.6,200.6,105.1Z"/><path class="cls-6" d="M161.12,93.28A16.17,16.17,0,0,0,152,91.35a3.62,3.62,0,0,0-1.7.57,4.06,4.06,0,0,0-1.22,2,69.22,69.22,0,0,0-2.65,9.25,3.77,3.77,0,0,0,.25,3.08c-.33-.94,16.83.53,22.6,2.17,2.31.65,3.78.74,3.65-.43C172.83,107.11,171,99.56,161.12,93.28Z"/><path class="cls-19" d="M146.23,104.63c-.32,2.5.85,3.77,2.78,4.52,2.18.85,22.92.29,23.56-.54s-13.26-6.72-17.32-7.49S146.56,102.14,146.23,104.63Z"/><path class="cls-1" d="M157.76,112.48c.46.53-.23,1.88-1.53,3s-2.74,1.62-3.2,1.09.22-1.88,1.53-3S157.3,112,157.76,112.48Z"/><path class="cls-1" d="M176.57,117.44c.68-.18,1.6,1,2,2.7s.27,3.17-.41,3.35-1.59-1-2-2.69S175.89,117.62,176.57,117.44Z"/><path class="cls-6" d="M174.72,114h-2.66a3.27,3.27,0,0,1-3.26-3.26v-5.07a3.27,3.27,0,0,1,3.26-3.26h2.66a3.29,3.29,0,0,1,3.26,3.26v5.07a3.27,3.27,0,0,1-3.26,3.26Z"/><path class="cls-1" d="M177.33,105.1c-.31.45-2-.13-3.94-.1s-3.64.55-3.95.1,1.31-2.07,3.95-2.07S177.68,104.68,177.33,105.1Z"/><path class="cls-20" d="M80.2,735.4l-1.38.38c-1.57-5.68-4.69-9.43-7.26-8.72s-3.33,5.53-1.76,11.21l-1.38.38c-1.84-6.68-.71-12,2.76-13S78.35,728.72,80.2,735.4Z"/><path class="cls-20" d="M82.22,745.45,71.88,748.3a1.74,1.74,0,0,1-2.23-1l-2.21-8a1.43,1.43,0,0,1,.15-1.09,2,2,0,0,1,1.24-.93l10.34-2.85a2.11,2.11,0,0,1,1.41.09,1.43,1.43,0,0,1,.82.93l2.21,8A1.75,1.75,0,0,1,82.22,745.45Z"/><path class="cls-6" d="M120.18,787.59c.19.68.39,1.38.55,2.1.27,1.13.51,2.31.74,3.53a88.54,88.54,0,0,1,1.2,10.79c1.45,27.68-7.57,61.48-12.51,62.84s-30-23-43-47.53a90.23,90.23,0,0,1-4.49-9.88c-.43-1.16-.83-2.31-1.19-3.44-.22-.69-.41-1.37-.6-2-.26-.94-.49-1.94-.69-3a73,73,0,0,1-1.06-10.27,105.92,105.92,0,0,1,.23-11.19c1.23-16.18,6.34-33.12,16.65-36.3,10.48-2.56,23.55,9.36,32.91,22.63a105.2,105.2,0,0,1,5.93,9.48,71.23,71.23,0,0,1,4.43,9.58C119.65,785.8,119.94,786.71,120.18,787.59Z"/><path class="cls-4" d="M114.87,775.28,59.15,790.66a105.92,105.92,0,0,1,.23-11.19l49.56-13.67A105.2,105.2,0,0,1,114.87,775.28Z"/><path class="cls-4" d="M121.47,793.22a88.54,88.54,0,0,1,1.2,10.79L67.18,819.32a90.23,90.23,0,0,1-4.49-9.88Z"/><circle class="cls-1" cx="71.88" cy="762.98" r="7.85" transform="translate(-82.65 12.36) rotate(-6.25)"/><path class="cls-4" d="M120.18,787.59c.19.68.39,1.38.55,2.1-2.69.36-4.64-1.39-6-2.58s-1.88-1.57-2.47-1.41-.86.73-1.41,2.48-1.45,4.69-4.58,5.55-5.32-1.11-6.78-2.42-1.87-1.57-2.48-1.4-.85.73-1.39,2.47-1.46,4.7-4.59,5.56-5.32-1.12-6.78-2.42S82.4,794,81.8,794.11s-.86.73-1.4,2.48-1.47,4.69-4.58,5.55S70.48,801,69,799.73s-1.88-1.57-2.48-1.41-.86.73-1.4,2.48-1.28,4.09-3.64,5.2c-.22-.69-.41-1.37-.6-2-.26-.94-.49-1.94-.69-3a13.3,13.3,0,0,0,.53-1.5c.57-1.87,1.46-4.7,4.58-5.56s5.33,1.11,6.78,2.42,1.88,1.57,2.49,1.4.85-.72,1.39-2.47,1.47-4.7,4.6-5.56,5.31,1.12,6.78,2.42,1.87,1.58,2.46,1.41.87-.73,1.41-2.48,1.46-4.69,4.57-5.55,5.34,1.11,6.8,2.42,1.87,1.57,2.46,1.41.87-.74,1.41-2.48,1.46-4.7,4.58-5.56,5.32,1.12,6.78,2.42a11,11,0,0,0,1.47,1.19C119.65,785.8,119.94,786.71,120.18,787.59Z"/><path class="cls-21" d="M942.81,358.1a4.12,4.12,0,0,0-4.39-3.84l-15.45,1,16-21a4.12,4.12,0,0,0-6.57-5L912.07,356l-18.48,1.22,12.29-14.73a4.12,4.12,0,1,0-6.33-5.28L882.23,358l-35.16,2.33,23.21-26.5,27-1.14h.1a4.12,4.12,0,0,0-.44-8.23l-19.18.81L890,311.3l33.59.14h.29a4.12,4.12,0,0,0-.26-8.23l-26.43-.11,10.21-11.65a4.12,4.12,0,1,0-6.2-5.43L891,297.66l-3.59-26.18a4.12,4.12,0,0,0-8.16,1.12l4.56,33.27-12.2,13.94-1.73-19.11a4,4,0,0,0-4.48-3.73,4.11,4.11,0,0,0-3.73,4.47l2.43,26.94-23.21,26.5-2.32-35.15,18.29-19.91a4.12,4.12,0,0,0-6.06-5.58l-13,14.13-1.22-18.49,23.84-23.65a4.13,4.13,0,1,0-5.81-5.86L835.85,279l-1-15.46a4.12,4.12,0,1,0-8.22.55l1,15.45-21-16a4.12,4.12,0,1,0-5,6.56l26.76,20.31,1.23,18.48-14.74-12.29a4.12,4.12,0,1,0-5.27,6.33l20.76,17.32,2.33,35.15-26.5-23.2-1.14-27a4.13,4.13,0,0,0-4.29-3.94h-.1a4.12,4.12,0,0,0-3.85,4.28l.81,19.17-13.94-12.2.14-33.59a4.13,4.13,0,0,0-4.11-4.14,4.07,4.07,0,0,0-4.13,4.11l-.11,26.43-11.65-10.21a4.12,4.12,0,0,0-5.44,6.2L770,311.52l-26.19,3.59a4.12,4.12,0,0,0,.83,8.19c.1,0,.2,0,.3,0l33.27-4.56,13.94,12.2L773,332.64a4.12,4.12,0,0,0,.64,8.22h.11l26.93-2.43,26.5,23.21L792.07,364l-19.92-18.29a4.12,4.12,0,1,0-5.57,6.06l14.12,13-18.48,1.22-23.65-23.84a4.12,4.12,0,0,0-5.86,5.8l18.61,18.76-15.45,1a4.12,4.12,0,1,0,.54,8.22l15.46-1-16,21.05a4.13,4.13,0,0,0,.79,5.78,4.13,4.13,0,0,0,5.77-.8l20.3-26.75,18.49-1.23L769,387.67a4.12,4.12,0,0,0,6.33,5.28l17.32-20.77,35.15-2.33-23.21,26.5-27,1.14h-.1a4.12,4.12,0,0,0,.44,8.23l19.17-.81-12.2,13.94-33.59-.14a4.13,4.13,0,0,0,0,8.25l26.43.1-10.2,11.65a4.12,4.12,0,1,0,6.2,5.43l10.21-11.65,3.59,26.18a4.12,4.12,0,0,0,4.35,3.56l.29,0a4.13,4.13,0,0,0,3.52-4.65L791,424.29l12.21-13.94L805,429.46a4.12,4.12,0,0,0,4.38,3.74h.1a4.12,4.12,0,0,0,3.73-4.47l-2.43-26.94,23.2-26.5,2.33,35.15L818,430.35a4.12,4.12,0,1,0,6.07,5.57l13-14.12,1.23,18.48-23.85,23.65a4.13,4.13,0,0,0,5.81,5.86L839,451.18l1,15.45a4.12,4.12,0,0,0,8.23-.54l-1-15.46,21,16a4,4,0,0,0,2.76.83,4.12,4.12,0,0,0,2.22-7.39l-26.76-20.31-1.22-18.48L860,433.54a4.13,4.13,0,0,0,5.81-.52,4.14,4.14,0,0,0-.52-5.81l-20.77-17.32-2.33-35.15,26.5,23.2,1.14,27a4.13,4.13,0,0,0,4.29,4h.1a4.12,4.12,0,0,0,3.85-4.28l-.81-19.17,13.94,12.2-.14,33.59a4.12,4.12,0,0,0,4.1,4.14h.3a4.12,4.12,0,0,0,3.84-4.09l.11-26.44,11.65,10.21a4.12,4.12,0,1,0,5.43-6.2l-11.65-10.2L931,415.06a4.12,4.12,0,0,0-1.12-8.17l-33.28,4.56-13.93-12.2,19.11-1.73a4.13,4.13,0,0,0,3.73-4.48,4,4,0,0,0-4.48-3.73l-26.93,2.44-26.5-23.21,35.15-2.33,19.91,18.3a4.12,4.12,0,0,0,5.58-6.07l-14.13-13,18.49-1.22,23.65,23.85a4.12,4.12,0,1,0,5.85-5.81l-18.61-18.76,15.46-1A4.12,4.12,0,0,0,942.81,358.1Z"/><g class="cls-22"><path class="cls-1" d="M840.71,670.51l-8.17,30.82,2.35-1.37L822,696.55l1.37,2.35,8.16-30.82-2.35,1.37,12.89,3.41a1.93,1.93,0,0,0,1-3.72l-12.89-3.41a2,2,0,0,0-2.36,1.36l-8.16,30.82a2,2,0,0,0,1.36,2.36l12.9,3.41a1.94,1.94,0,0,0,2.35-1.36l8.17-30.82C845.06,669.1,841.34,668.11,840.71,670.51Z"/><path class="cls-1" d="M854.07,561.2c-2.29,7.09-12.68,4.34-11.16-3s12.67-4.31,11.16,3c-.5,2.42,3.21,3.42,3.72,1A9.83,9.83,0,0,0,851,550.43c-5.17-1.68-10.22,2.07-11.76,6.83-1.67,5.17,2.07,10.22,6.84,11.76,5.17,1.68,10.22-2.07,11.76-6.83C858.55,559.83,854.83,558.85,854.07,561.2Z"/><path class="cls-1" d="M876.79,604.64c-2.3,7.09-12.68,4.34-11.16-3s12.67-4.3,11.16,3c-.51,2.42,3.21,3.42,3.72,1a9.84,9.84,0,0,0-6.84-11.77c-5.17-1.67-10.22,2.07-11.76,6.84-1.67,5.17,2.07,10.22,6.84,11.76,5.17,1.67,10.22-2.07,11.76-6.83C881.27,603.26,877.55,602.29,876.79,604.64Z"/><path class="cls-1" d="M841.76,613.67c-2.3,7.09-12.68,4.33-11.16-3s12.67-4.3,11.16,3c-.51,2.42,3.21,3.41,3.72,1a9.84,9.84,0,0,0-6.84-11.76c-5.17-1.67-10.22,2.07-11.76,6.83-1.67,5.18,2.07,10.22,6.83,11.77,5.18,1.67,10.22-2.07,11.77-6.84C846.24,612.29,842.52,611.31,841.76,613.67Z"/><path class="cls-1" d="M876.73,661.94c-2.3,7.09-12.68,4.34-11.16-3s12.67-4.31,11.16,3c-.51,2.42,3.21,3.42,3.72,1a9.83,9.83,0,0,0-6.84-11.76c-5.17-1.68-10.22,2.07-11.76,6.83-1.67,5.17,2.07,10.22,6.83,11.76,5.18,1.68,10.22-2.07,11.77-6.83C881.21,660.57,877.49,659.59,876.73,661.94Z"/><path class="cls-1" d="M883.54,549.11c-2.29,7.09-12.67,4.34-11.15-3s12.67-4.31,11.15,3c-.5,2.42,3.22,3.42,3.72,1a9.84,9.84,0,0,0-6.83-11.76c-5.17-1.68-10.22,2.07-11.76,6.83-1.68,5.17,2.07,10.22,6.83,11.76,5.17,1.68,10.22-2.07,11.76-6.83C888,547.74,884.31,546.76,883.54,549.11Z"/><path class="cls-1" d="M850.28,644.58c-2.29,7.09-12.68,4.34-11.16-3s12.67-4.31,11.16,3c-.5,2.42,3.21,3.42,3.72,1a9.84,9.84,0,0,0-6.83-11.76c-5.18-1.68-10.23,2.07-11.77,6.83-1.67,5.17,2.07,10.22,6.84,11.76,5.17,1.68,10.22-2.07,11.76-6.83C854.76,643.21,851,642.23,850.28,644.58Z"/><path class="cls-1" d="M850.46,552.29a7.1,7.1,0,0,1,2,.91l23.39-33.51q.81,10.14,1.6,20.3a7.57,7.57,0,0,1,2.45.21,7.32,7.32,0,0,1,1.46.55q-1-13.29-2.09-26.57a1.94,1.94,0,0,0-3.58-.95l-27.11,38.82A7.26,7.26,0,0,1,850.46,552.29Z"/><path class="cls-1" d="M896.11,684.47q-1.35-15.47-2.69-30.94a1.87,1.87,0,0,0-.37-1,1.9,1.9,0,0,0-.59-.69l-27.37-20.07,24.33,6.45a1.94,1.94,0,0,0,2.42-1.88l-5-41.34c-.21-1.71-.41-3.41-.62-5.12-.24-2-2.61-4.16-3.75-5.71l-9.4-12.78,8.31,2.2a1.94,1.94,0,0,0,2.41-1.88l-1.41-17.89a7.66,7.66,0,0,1-3.74,1.41q.55,7,1.1,13.94l-10.94-2.9c-1.5-.39-3.2,1.42-2.16,2.83l12.11,16.47c1,1.32,1.94,2.63,2.9,3.95.65.87.91,2,.73.45l.67,5.57q2.28,19.11,4.58,38.23l-31.41-8.32c-2.23-.59-3.14,2.29-1.46,3.52l34.85,25.56q1.19,13.68,2.38,27.36L785.28,653.64l-3.84-1,5.58-7.16,5-6.46,1.56-2,.11-.14,24.19-2.65c2.07-.23,2.69-3.2.47-3.78L801.5,626l19.68-28.17.3-.08,3.62-1L837,593.5l18-4.87a1.94,1.94,0,0,0,0-3.71l-20.75-5.5,9.53-13.65a7.77,7.77,0,0,1-2.4-3.27l-11.94,17.11a1.94,1.94,0,0,0,1.17,2.83L847,586.8l-11,3L824.07,593c-1.57.42-4.7.65-5.73,2.12l-21.65,31a1.93,1.93,0,0,0,1.17,2.83l9.57,2.54-14.75,1.61c-1.36.15-2,1.36-2.73,2.36q-2.6,3.32-5.18,6.65l-8,10.24a2,2,0,0,0,.87,3.23l109.4,29,6.63,1.76A1.94,1.94,0,0,0,896.11,684.47Z"/><path class="cls-1" d="M815.49,649.69c-2.29,7.09-12.68,4.34-11.16-3s12.67-4.31,11.16,3c-.5,2.42,3.21,3.42,3.72,1a9.84,9.84,0,0,0-6.83-11.76c-5.18-1.68-10.23,2.07-11.77,6.83-1.67,5.17,2.07,10.22,6.84,11.76,5.17,1.68,10.22-2.07,11.76-6.83C820,648.32,816.25,647.34,815.49,649.69Z"/></g><path class="cls-20" d="M829.65,402.66l-1.2.36c-1.48-4.92-4.27-8.12-6.5-7.45s-2.78,4.88-1.3,9.8l-1.2.36c-1.74-5.78-.86-10.45,2.14-11.36S827.91,396.88,829.65,402.66Z"/><path class="cls-20" d="M831.62,411.37l-9,2.7a1.53,1.53,0,0,1-2-.84l-2.09-6.94a1.21,1.21,0,0,1,.11-1,1.74,1.74,0,0,1,1.06-.83l9-2.7a1.81,1.81,0,0,1,1.22.05,1.29,1.29,0,0,1,.74.79l2.09,6.94A1.53,1.53,0,0,1,831.62,411.37Z"/><path class="cls-23" d="M863.29,428.1a30.16,30.16,0,1,1-6.89-12A30.21,30.21,0,0,1,863.29,428.1Z"/><circle class="cls-1" cx="816.83" cy="421.55" r="3.35" transform="translate(56.78 938.51) rotate(-61.52)"/><path class="cls-4" d="M863.29,428.1c.17.58.33,1.15.46,1.73a29.92,29.92,0,0,1,.64,10.33l-53.16,16a30,30,0,0,1-5.17-9c-.21-.55-.39-1.12-.57-1.69s-.27-.94-.38-1.41a31.82,31.82,0,0,1-.91-7.48,30.43,30.43,0,0,1,.44-4.88l51.76-15.59a29.8,29.8,0,0,1,3.05,3.83,30.65,30.65,0,0,1,1.65,2.77,29.39,29.39,0,0,1,1.73,4C863,427.17,863.15,427.63,863.29,428.1Z"/><path class="cls-1" d="M862.83,426.72c-2.46,1.23-3.23,3.78-3.87,5.86-.69,2.29-1.2,3.72-2.82,4.21s-2.83-.43-4.67-2-4.26-3.53-7.56-2.53-4.19,3.93-4.91,6.28-1.21,3.72-2.81,4.2-2.82-.42-4.67-1.94-4.27-3.53-7.56-2.53-4.19,3.92-4.91,6.28-1.2,3.72-2.81,4.2-2.82-.42-4.67-1.95c-1.68-1.38-3.73-3.08-6.46-2.75.11.47.24.94.38,1.41s.36,1.14.57,1.69c1.11.12,2.13.92,3.52,2.06,1.9,1.57,4.26,3.53,7.56,2.53s4.19-3.93,4.91-6.28,1.19-3.71,2.81-4.2,2.82.42,4.67,1.95,4.27,3.52,7.56,2.53,4.18-3.93,4.9-6.29,1.21-3.71,2.82-4.2,2.83.42,4.67,1.95,4.27,3.52,7.56,2.53,4.19-3.93,4.91-6.29c.52-1.72.94-2.95,1.8-3.66Z"/><path class="cls-1" d="M861.1,422.75a9.72,9.72,0,0,0-1.41,3.26c-.71,2.36-1.6,5.29-4.9,6.29s-5.66-1-7.56-2.53-3.06-2.44-4.68-1.95-2.11,1.91-2.81,4.2-1.61,5.29-4.91,6.28-5.66-1-7.56-2.53-3-2.43-4.66-1.94-2.13,1.91-2.82,4.2-1.61,5.29-4.9,6.28-5.66-1-7.56-2.53a9.93,9.93,0,0,0-3-1.95,28.77,28.77,0,0,1-.17-3.21c2.08.25,3.73,1.6,5.12,2.75,1.84,1.53,3,2.44,4.67,1.95s2.11-1.91,2.81-4.2,1.61-5.29,4.91-6.29,5.66,1,7.56,2.53,3.05,2.44,4.66,1.95,2.12-1.91,2.82-4.2,1.61-5.29,4.9-6.28,5.67,1,7.57,2.52,3,2.44,4.67,1.95,2.12-1.91,2.82-4.2c.53-1.73,1.14-3.76,2.74-5.12A30.65,30.65,0,0,1,861.1,422.75Z"/><path class="cls-6" d="M814.12,436.43a1.52,1.52,0,1,1-1.88-1A1.52,1.52,0,0,1,814.12,436.43Z"/><path class="cls-6" d="M834.17,430.89a1.52,1.52,0,1,1-1.88-1A1.51,1.51,0,0,1,834.17,430.89Z"/><path class="cls-6" d="M854.54,424.76a1.51,1.51,0,1,1-1.88-1A1.52,1.52,0,0,1,854.54,424.76Z"/><path class="cls-6" d="M827.37,445.19c.24.8.1,1-.7,1.29s-2,.38-2.2-.42a1.51,1.51,0,1,1,2.9-.87Z"/><path class="cls-6" d="M847.74,439.05a1.52,1.52,0,0,1-1,1.89c-.8.24-1.32-.81-1.56-1.61s-.11-1.05.69-1.29A1.52,1.52,0,0,1,847.74,439.05Z"/></g></g></svg>