<svg xmlns="http://www.w3.org/2000/svg" viewBox="0 0 137.62 152.93"><defs><style>.cls-1{fill:#fff;}.cls-2{fill:#0e369e;}.cls-3,.cls-4{fill:none;stroke:#0e369e;stroke-linecap:round;stroke-linejoin:round;}.cls-3{stroke-width:5.42px;}.cls-4{stroke-width:2.32px;}</style></defs><g id="Capa_2" data-name="Capa 2"><g id="Layer_1" data-name="Layer 1"><path class="cls-1" d="M137.62,43.8l-19,109.13L3.5,132.91,18.06,49.18c-.31,0-.63-.07-.94-.13a10.54,10.54,0,0,1-8.56-12A10.54,10.54,0,0,1,.16,24.9a10.5,10.5,0,0,1,12-8.58,10.52,10.52,0,0,1,20.73,3.6,10.43,10.43,0,0,1,1.62.45A22.75,22.75,0,0,1,39.3,8.73a22.82,22.82,0,0,1,36.61,1l6.68,9.49,9.5-6.68a22.83,22.83,0,0,1,33.39,29.19Z"/><polygon class="cls-2" points="126.79 51.44 111.04 142.09 68.36 134.67 57.02 132.71 14.34 125.29 30.09 34.63 72.78 42.05 84.12 44.03 126.79 51.44"/><polygon class="cls-1" points="84.12 44.03 68.36 134.67 57.02 132.71 72.78 42.05 84.12 44.03"/><path class="cls-3" d="M81,37.87,55.4,33.43a10.76,10.76,0,0,1-6.61-17.24h0A10.75,10.75,0,0,1,66,16.64L81,37.87"/><path class="cls-3" d="M77.81,37.32l25.57,4.44a10.75,10.75,0,0,0,12-14h0A10.75,10.75,0,0,0,99,22.38L77.81,37.32"/><line class="cls-4" x1="10.53" y1="26.71" x2="16.96" y2="27.83"/><line class="cls-4" x1="24.51" y1="29.14" x2="30.94" y2="30.26"/><line class="cls-4" x1="18.96" y1="38.69" x2="20.08" y2="32.26"/><line class="cls-4" x1="21.39" y1="24.71" x2="22.51" y2="18.28"/></g></g></svg>