<svg xmlns="http://www.w3.org/2000/svg" xmlns:xlink="http://www.w3.org/1999/xlink" viewBox="0 0 457.32 421.91"><defs><style>.cls-1{fill:#fff;}.cls-2,.cls-6{fill:#00aec7;}.cls-2{opacity:0.1;}.cls-14,.cls-17,.cls-3,.cls-7{fill:none;}.cls-3{stroke:#0033a0;}.cls-14,.cls-3,.cls-7{stroke-miterlimit:10;}.cls-4{fill:#ede937;}.cls-5{fill:#0033a0;}.cls-14,.cls-7{stroke:#00aec7;}.cls-8{fill:url(#radial-gradient);}.cls-9{fill:#00b1e8;}.cls-10{fill:url(#radial-gradient-2);}.cls-11{fill:url(#radial-gradient-3);}.cls-12{fill:url(#radial-gradient-4);}.cls-13{fill:#676565;}.cls-14{stroke-width:0.49px;}.cls-15{fill:#cac8c8;}.cls-16{fill:url(#radial-gradient-5);}.cls-17{stroke:#00b1e8;stroke-linecap:round;stroke-linejoin:round;stroke-width:0.41px;}.cls-18{fill:url(#radial-gradient-6);}</style><radialGradient id="radial-gradient" cx="407.66" cy="348.37" r="4.54" gradientUnits="userSpaceOnUse"><stop offset="0" stop-color="#ede96f"/><stop offset="0.88" stop-color="#ede937"/></radialGradient><radialGradient id="radial-gradient-2" cx="411.22" cy="125.35" r="2.87" xlink:href="#radial-gradient"/><radialGradient id="radial-gradient-3" cx="403.62" cy="116.48" r="2.47" xlink:href="#radial-gradient"/><radialGradient id="radial-gradient-4" cx="394.17" cy="129.8" r="2.83" xlink:href="#radial-gradient"/><radialGradient id="radial-gradient-5" cx="49.19" cy="287.92" r="2.3" xlink:href="#radial-gradient"/><radialGradient id="radial-gradient-6" cx="51.24" cy="276.66" r="5.47" xlink:href="#radial-gradient"/></defs><g id="Capa_2" data-name="Capa 2"><g id="Textos"><rect class="cls-1" x="7.75" y="8.56" width="441.82" height="404.8" rx="16.82" transform="matrix(1, -0.04, 0.04, 1, -8.81, 9.97)"/><path class="cls-2" d="M99.65,390.77a1.27,1.27,0,0,0-.84-1.6l-4.58-1.46,7-4.28a1.28,1.28,0,0,0-1.34-2.18L91,386.68l-5.49-1.74,5.23-2.87a1.28,1.28,0,1,0-1.23-2.24l-7.37,4-10.42-3.31,9.71-5,7.94,2.74h0a1.29,1.29,0,0,0,1.6-.81,1.27,1.27,0,0,0-.79-1.62l-5.64-1.95,5.12-2.64,9.69,3.85.09,0a1.28,1.28,0,0,0,.86-2.41l-7.63-3L97,367.48a1.28,1.28,0,1,0-1.18-2.27l-4.27,2.21,1.93-8a1.28,1.28,0,1,0-2.48-.6L88.51,369l-5.11,2.64,1.67-5.72a1.25,1.25,0,0,0-.87-1.59,1.28,1.28,0,0,0-1.59.87l-2.35,8.07-9.72,5,3.32-10.42,7.55-3.68a1.28,1.28,0,1,0-1.12-2.3l-5.36,2.61L76.67,359l9.58-4.13a1.28,1.28,0,1,0-1-2.35l-7.54,3.25,1.46-4.58a1.28,1.28,0,1,0-2.44-.78L75.26,355,71,348a1.28,1.28,0,0,0-2.19,1.33l5.43,8.91-1.74,5.48-2.87-5.23a1.28,1.28,0,0,0-2.24,1.24l4,7.36L68.1,377.5l-5-9.72,2.74-7.94a1.29,1.29,0,0,0-.79-1.63h0a1.29,1.29,0,0,0-1.6.8l-1.94,5.64-2.65-5.11,3.85-9.7a1.28,1.28,0,0,0-.71-1.66,1.27,1.27,0,0,0-1.67.72l-3,7.63L55,352.24a1.28,1.28,0,1,0-2.27,1.18L55,357.69l-8-1.93a1.28,1.28,0,0,0-.69,2.46l.09,0,10.14,2.45,2.64,5.12-5.72-1.67a1.28,1.28,0,0,0-.74,2.45h0L60.8,369l5,9.71L55.4,375.36l-3.68-7.55a1.28,1.28,0,1,0-2.3,1.12L52,374.29l-5.48-1.75L42.41,363a1.28,1.28,0,0,0-2.35,1l3.25,7.53-4.58-1.45a1.27,1.27,0,0,0-1.61.83A1.29,1.29,0,0,0,38,372.5L42.54,374l-7,4.28a1.27,1.27,0,0,0,.28,2.31,1.27,1.27,0,0,0,1-.13L45.77,375l5.48,1.75L46,379.59a1.28,1.28,0,0,0-.51,1.74,1.23,1.23,0,0,0,.73.6,1.28,1.28,0,0,0,1-.09l7.36-4,10.43,3.31-9.72,5-7.94-2.74h0a1.28,1.28,0,0,0-.8,2.44l5.63,1.94-5.11,2.64-9.69-3.85a1.28,1.28,0,1,0-1,2.38l7.63,3-4.27,2.21a1.28,1.28,0,0,0-.55,1.73,1.26,1.26,0,0,0,.75.63,1.23,1.23,0,0,0,1-.09l4.28-2.21-1.94,8a1.27,1.27,0,0,0,.86,1.52l.09,0a1.29,1.29,0,0,0,1.54-.95l2.46-10.13L53.37,390l-1.67,5.72a1.28,1.28,0,0,0,.84,1.58h0a1.28,1.28,0,0,0,1.59-.87l2.35-8.06,9.72-5-3.32,10.42-7.55,3.68a1.28,1.28,0,0,0,.17,2.37,1.26,1.26,0,0,0,.95-.06l5.36-2.61-1.75,5.48-9.57,4.13a1.28,1.28,0,0,0,.12,2.4,1.25,1.25,0,0,0,.89-.05l7.54-3.25-1.46,4.58a1.28,1.28,0,0,0,2.44.78l1.46-4.58,4.27,7a1.27,1.27,0,0,0,1.76.43,1.29,1.29,0,0,0,.43-1.76l-5.44-8.91L64.28,398l2.86,5.23a1.29,1.29,0,0,0,.74.6A1.28,1.28,0,0,0,69.39,402l-4-7.37,3.32-10.43,5,9.72L71,401.82a1.28,1.28,0,0,0,.79,1.63h0a1.29,1.29,0,0,0,1.6-.8L75.32,397,78,402.13l-3.85,9.7a1.28,1.28,0,0,0,.72,1.66l.09,0a1.28,1.28,0,0,0,1.57-.75l3-7.63,2.21,4.28a1.32,1.32,0,0,0,.75.63A1.28,1.28,0,0,0,84,408.24L81.8,404l8,1.93a1.28,1.28,0,0,0,.61-2.49L80.24,401l-2.65-5.11,5.72,1.67a1.29,1.29,0,0,0,1.59-.88,1.24,1.24,0,0,0-.87-1.58L76,392.71l-5-9.72,10.43,3.31,3.68,7.55a1.27,1.27,0,0,0,1.71.59,1.28,1.28,0,0,0,.59-1.71l-2.61-5.35,5.48,1.74,4.13,9.58a1.31,1.31,0,0,0,.79.71,1.33,1.33,0,0,0,.9,0,1.29,1.29,0,0,0,.66-1.69l-3.25-7.53L98,391.6A1.28,1.28,0,0,0,99.65,390.77Z"/><path class="cls-3" d="M43.74,113.8a5.12,5.12,0,1,1-6.38,3.41A5.12,5.12,0,0,1,43.74,113.8Z"/><polygon class="cls-4" points="47.76 326.55 48.95 333.6 56.02 334.65 49.68 337.96 50.87 345.01 45.77 340 39.42 343.31 42.61 336.91 37.5 331.9 44.58 332.95 47.76 326.55"/><circle class="cls-5" cx="391.32" cy="396.11" r="4.91"/><circle class="cls-5" cx="105.84" cy="403.33" r="4.91"/><path class="cls-5" d="M374.07,153.2l-8.19,3.16,3.56-8a.82.82,0,0,0-1.5-.66l-3.55,8-3.17-8.19a.82.82,0,1,0-1.52.59l3.16,8.19-8-3.56a.81.81,0,1,0-.66,1.49l8,3.56-8.2,3.16a.82.82,0,0,0,.59,1.53l8.2-3.16-3.56,8a.82.82,0,0,0,1,1.09.86.86,0,0,0,.45-.43l3.56-8,3.16,8.19a.82.82,0,0,0,1.53-.59l-3.17-8.19,8,3.56a.81.81,0,0,0,.63,0,.79.79,0,0,0,.45-.43.82.82,0,0,0-.41-1.08l-8-3.55,8.19-3.17a.81.81,0,0,0,.47-1.05A.82.82,0,0,0,374.07,153.2Z"/><path class="cls-5" d="M54,194.24a.33.33,0,0,0-.22-.41l-1.19-.38,1.82-1.11a.34.34,0,0,0,.11-.45.33.33,0,0,0-.46-.11l-2.3,1.4-1.42-.45,1.35-.74a.33.33,0,0,0-.32-.58l-1.91,1-2.7-.85,2.52-1.31,2.06.71h0a.34.34,0,0,0,.42-.21.32.32,0,0,0-.21-.42l-1.46-.51,1.33-.68,2.51,1h0a.33.33,0,0,0,.22-.62l-2-.79,1.1-.57a.32.32,0,0,0,.15-.44.34.34,0,0,0-.45-.15l-1.11.58.5-2.07a.32.32,0,0,0-.24-.4.33.33,0,0,0-.4.24l-.64,2.63-1.32.68.43-1.48a.33.33,0,1,0-.63-.18L49,189.71,46.43,191l.86-2.7,2-1a.32.32,0,0,0,.16-.44.34.34,0,0,0-.45-.15l-1.38.67L48,186,50.5,185a.34.34,0,0,0,.17-.44.33.33,0,0,0-.44-.17l-1.95.84.38-1.19a.32.32,0,0,0-.21-.41.33.33,0,0,0-.42.21L47.65,185l-1.1-1.82a.35.35,0,0,0-.46-.11.33.33,0,0,0-.11.46l1.41,2.3-.46,1.42-.74-1.35a.33.33,0,1,0-.58.32l1,1.91-.86,2.7-1.3-2.52.71-2.06a.34.34,0,0,0-.21-.42h0a.33.33,0,0,0-.41.21l-.5,1.46-.69-1.33,1-2.51a.33.33,0,0,0-.62-.24l-.78,2-.57-1.1a.33.33,0,0,0-.45-.14.32.32,0,0,0-.14.44l.57,1.11-2.07-.5a.33.33,0,0,0-.4.24.35.35,0,0,0,.22.4h0l2.62.64.69,1.32L42,187.35a.33.33,0,0,0-.41.22.32.32,0,0,0,.21.41h0l2.09.6,1.3,2.52-2.7-.86-.95-1.95a.34.34,0,0,0-.45-.16.34.34,0,0,0-.15.45l.68,1.38-1.42-.45L39.15,187a.34.34,0,0,0-.44-.17.33.33,0,0,0-.17.44l.84,1.95-1.19-.38a.32.32,0,0,0-.41.21.33.33,0,0,0,.21.42l1.19.38L37.37,191a.32.32,0,0,0-.11.45.28.28,0,0,0,.18.14.32.32,0,0,0,.27,0L40,190.15l1.42.46-1.36.74a.33.33,0,0,0-.13.45.31.31,0,0,0,.19.15.33.33,0,0,0,.26,0l1.91-1.05,2.7.86L42.49,193l-2.05-.7h0a.33.33,0,0,0-.21.63l1.46.5-1.32.69-2.51-1a.33.33,0,0,0-.43.19.33.33,0,0,0,.18.43l2,.78-1.11.58a.32.32,0,0,0-.14.44.35.35,0,0,0,.19.17.35.35,0,0,0,.26,0l1.1-.57-.5,2.07a.33.33,0,0,0,.22.39h0a.33.33,0,0,0,.39-.25l.64-2.62,1.32-.69-.43,1.48a.33.33,0,0,0,.22.41h0a.33.33,0,0,0,.41-.23l.61-2.09,2.51-1.3-.85,2.7-2,.95a.34.34,0,0,0-.15.45.35.35,0,0,0,.19.17.36.36,0,0,0,.25,0l1.39-.68-.45,1.42-2.48,1.07a.33.33,0,0,0,0,.62.31.31,0,0,0,.23,0l2-.84-.38,1.19a.33.33,0,0,0,.22.41.32.32,0,0,0,.41-.21l.38-1.19,1.11,1.81a.33.33,0,0,0,.18.15.32.32,0,0,0,.27,0,.33.33,0,0,0,.11-.46l-1.4-2.31.45-1.42.74,1.36a.32.32,0,0,0,.19.15.34.34,0,0,0,.26,0,.33.33,0,0,0,.13-.45l-1-1.91.86-2.7,1.3,2.52-.71,2a.34.34,0,0,0,.2.43h0a.34.34,0,0,0,.42-.21l.5-1.46.68,1.32-1,2.51a.32.32,0,0,0,.18.43h0a.32.32,0,0,0,.41-.19l.79-2,.57,1.11a.3.3,0,0,0,.19.16.31.31,0,0,0,.25,0,.32.32,0,0,0,.15-.44l-.58-1.11,2.07.5a.33.33,0,0,0,.16-.64l-2.63-.64-.68-1.32,1.48.43a.33.33,0,0,0,.41-.23.33.33,0,0,0-.23-.41l-2.08-.61-1.31-2.51,2.7.86,1,1.95a.32.32,0,0,0,.19.17.31.31,0,0,0,.25,0,.33.33,0,0,0,.15-.44l-.67-1.39,1.42.45,1.07,2.48a.31.31,0,0,0,.2.19.37.37,0,0,0,.23,0,.33.33,0,0,0,.17-.44l-.84-1.95,1.19.38A.34.34,0,0,0,54,194.24Z"/><path class="cls-6" d="M407.39,271.47,389,278.56l8-18a1.82,1.82,0,0,0-.93-2.41,1.84,1.84,0,0,0-2.42.93l-8,18-7.09-18.37a1.83,1.83,0,0,0-3.42,1.32l7.09,18.37-18-8a1.83,1.83,0,0,0-1.48,3.34l18,8-18.37,7.09a1.83,1.83,0,0,0,1.32,3.42l18.37-7.09-8,18a1.83,1.83,0,0,0,2.34,2.45,1.79,1.79,0,0,0,1-1l8-18L392.52,305a1.83,1.83,0,0,0,3.42-1.31l-7.09-18.38,18,8a1.84,1.84,0,0,0,1.4,0,1.86,1.86,0,0,0,1-1,1.84,1.84,0,0,0-.93-2.42l-18-8,18.37-7.09a1.83,1.83,0,0,0-1.31-3.42Z"/><path class="cls-5" d="M428.93,23a2.37,2.37,0,1,1,2.93,1.64A2.37,2.37,0,0,1,428.93,23Z"/><path class="cls-7" d="M31.64,234.74a2.76,2.76,0,1,1,3.41,1.91A2.75,2.75,0,0,1,31.64,234.74Z"/><path class="cls-4" d="M27.58,39.21l-6.32,2.44L24,35.46a.63.63,0,0,0-.33-.83.62.62,0,0,0-.83.32l-2.74,6.19-2.44-6.32a.63.63,0,1,0-1.17.45l2.43,6.32-6.19-2.74A.63.63,0,0,0,12.23,40l6.19,2.74-6.31,2.44a.63.63,0,1,0,.45,1.18l6.32-2.44-2.75,6.19a.63.63,0,0,0,.81.84.66.66,0,0,0,.35-.33L20,44.43l2.44,6.32a.63.63,0,1,0,1.17-.46L21.2,44l6.2,2.74a.62.62,0,0,0,.48,0,.63.63,0,0,0,0-1.16l-6.19-2.75L28,40.39a.63.63,0,0,0-.45-1.18Z"/><path class="cls-5" d="M413.75,199.46c1.23-3.63-.84-7.09-4.33-8.34l.25.59a5,5,0,1,0-8.08,1.2l.07-.64c-3,2.21-4,6.12-1.73,9.24l.07-.64a10.59,10.59,0,0,0-2.92,11.3,11.13,11.13,0,0,0,8.55,6.89,12.36,12.36,0,0,0,11.06-3.64,10.42,10.42,0,0,0,2.2-10.86,10.82,10.82,0,0,0-5.39-5.69c-.53-.27-.86.58-.34.84a9.56,9.56,0,0,1,5.19,11,11,11,0,0,1-19.56,2.9c-2.54-3.86-1.47-8.95,1.78-12a.46.46,0,0,0,.07-.64c-1.95-2.73-1-6.06,1.59-8a.47.47,0,0,0,.07-.64,4.07,4.07,0,1,1,6.52-1,.46.46,0,0,0,.26.59c3,1.08,4.9,4,3.82,7.16C412.72,199.68,413.56,200,413.75,199.46Z"/><path class="cls-5" d="M403.43,189.26a.46.46,0,0,0-.14-.9.46.46,0,0,0,.14.9Z"/><path class="cls-5" d="M406.87,188.75a.45.45,0,0,0-.13-.9.45.45,0,0,0,.13.9Z"/><path class="cls-5" d="M406.39,197.85a.45.45,0,0,0-.13-.9.45.45,0,0,0,.13.9Z"/><path class="cls-5" d="M407.06,202.35a.45.45,0,0,0-.13-.9.45.45,0,0,0,.13.9Z"/><path class="cls-5" d="M407.76,207a.46.46,0,0,0-.14-.9.46.46,0,0,0,.14.9Z"/><path class="cls-5" d="M403.55,190.91a2.07,2.07,0,0,0,3.54-.53.45.45,0,0,0-.84-.34,1.16,1.16,0,0,1-2,.3c-.38-.45-1.09.12-.71.57Z"/><path class="cls-5" d="M408.34,186.2c.86-.2,1.94-1.11,1.4-2.12s-1.41-1-2.39-.86l.52.38c-.17-1.12-.27-2.27-.52-3.36-.41-1.76-2.32-1.33-3.59-1.14s-3.12.24-3.29,2a7.29,7.29,0,0,0,.22,1.67l.27,1.83.38-.52c-.81.12-1.8.35-2,1.31-.25,1.21.81,1.9,1.9,1.83.59,0,.45-.93-.13-.9-1,.06-1.17-1-.19-1.26.18,0,.37-.05.54-.08a.47.47,0,0,0,.39-.52l-.43-2.85c-.22-1.49,1.22-1.45,2.29-1.61s2.59-.71,2.81.75l.43,2.95a.47.47,0,0,0,.52.39l.49-.07c1-.16,1.26,1,.24,1.25-.57.13-.44,1,.13.9Z"/><path class="cls-8" d="M405.91,345.71l1-1.9a.29.29,0,0,1,.18-.15.33.33,0,0,1,.33.1l1.39,1.66a.23.23,0,0,0,.11.08.28.28,0,0,0,.13,0l2.17,0a.32.32,0,0,1,.14,0,.31.31,0,0,1,.15.38l-.74,2a.29.29,0,0,0,0,.09.37.37,0,0,0,0,.18L412,350a.3.3,0,0,1,0,.29.32.32,0,0,1-.23.17l-2.13.37a.19.19,0,0,0-.09,0,.25.25,0,0,0-.13.12l-1,1.9a.29.29,0,0,1-.19.15.29.29,0,0,1-.31-.1l-1.39-1.66a.39.39,0,0,0-.1-.08.32.32,0,0,0-.14,0l-2.17.05a.32.32,0,0,1-.23-.09.31.31,0,0,1-.07-.32l.75-2a.59.59,0,0,0,0-.13.29.29,0,0,0,0-.13l-1.13-1.85a.33.33,0,0,1,0-.32.31.31,0,0,1,.21-.14l2.14-.38a.18.18,0,0,0,.12-.05A.28.28,0,0,0,405.91,345.71Z"/><path class="cls-9" d="M407.07,346.65h0a.65.65,0,0,0,.39,0,.6.6,0,0,0,.28-.13h0a.7.7,0,0,1,.65-.11.68.68,0,0,1,.45.56h0a.71.71,0,0,0,.14.32.67.67,0,0,0,.28.22h0a.67.67,0,0,1,.43.58.68.68,0,0,1-.26.59h0a.58.58,0,0,0-.21.28.7.7,0,0,0-.05.35h0a.65.65,0,0,1-.23.61.65.65,0,0,1-.7.12h0a.67.67,0,0,0-.37,0,.62.62,0,0,0-.31.14h0a.67.67,0,0,1-.65.1.68.68,0,0,1-.45-.55h0a.55.55,0,0,0-.14-.32.62.62,0,0,0-.28-.22h0a.65.65,0,0,1-.41-.5.67.67,0,0,1,.25-.67h0a.71.71,0,0,0,.22-.3.62.62,0,0,0,0-.33h0a.68.68,0,0,1,.94-.73Z"/><path class="cls-5" d="M407.32,347.38h0a.42.42,0,0,0,.22,0,.4.4,0,0,0,.16-.08h0a.39.39,0,0,1,.37-.06.38.38,0,0,1,.26.31h0a.41.41,0,0,0,.08.19.48.48,0,0,0,.16.12h0a.38.38,0,0,1,.24.33.4.4,0,0,1-.15.34h0a.48.48,0,0,0-.12.16.44.44,0,0,0,0,.2h0a.4.4,0,0,1-.13.35.39.39,0,0,1-.4.06h0a.5.5,0,0,0-.21,0,.37.37,0,0,0-.18.08h0a.38.38,0,0,1-.62-.25h0a.41.41,0,0,0-.08-.19.48.48,0,0,0-.16-.12h0a.37.37,0,0,1-.24-.29.39.39,0,0,1,.14-.38h0a.43.43,0,0,0,.13-.17.41.41,0,0,0,0-.19h0a.36.36,0,0,1,.17-.38A.38.38,0,0,1,407.32,347.38Z"/><path class="cls-9" d="M396.33,119.17l-11.54,24.1a2.56,2.56,0,0,0,4.61,2.21l11.53-24.1a4.52,4.52,0,0,1,2.1-2.13h0a4.64,4.64,0,0,1,4,0,4.85,4.85,0,0,1,.82.5,4.61,4.61,0,0,1,1.51,2.07,4.54,4.54,0,0,1,.06,3,4.24,4.24,0,0,1-.23.59,4.42,4.42,0,0,1-1.24,1.57c-.11.1-.22.2-.32.31a2.56,2.56,0,0,0,3.55,3.65,9.7,9.7,0,0,0,2.61-3.32,8.74,8.74,0,0,0,.49-1.25,9.4,9.4,0,0,0,.46-2.9,9.7,9.7,0,0,0-2.09-6.05,9.27,9.27,0,0,0-2-1.92,9.6,9.6,0,0,0-6.44-1.73,10,10,0,0,0-2.7.65A9.66,9.66,0,0,0,396.33,119.17Z"/><path class="cls-10" d="M407.66,127.22a15.4,15.4,0,0,0,6.65-.92,9.4,9.4,0,0,0,.46-2.9,17.28,17.28,0,0,1-5.32,1.35,4.24,4.24,0,0,1-.23.59,4.42,4.42,0,0,1-1.24,1.57C407.87,127,407.76,127.11,407.66,127.22Z"/><path class="cls-1" d="M407.88,119.72a4.61,4.61,0,0,1,1.51,2.07,10.87,10.87,0,0,0,3.29-4.44,9.27,9.27,0,0,0-2-1.92A8.62,8.62,0,0,1,407.88,119.72Z"/><path class="cls-11" d="M401.51,114.35a5.34,5.34,0,0,1,1.53,4.9,4.44,4.44,0,0,1,2.67-.43,7.31,7.31,0,0,0-1.18-4.63l-.32-.49A10,10,0,0,0,401.51,114.35Z"/><path class="cls-1" d="M396.3,119.23l-1.11,2.32a7.55,7.55,0,0,1,3.53,4.44l1.46-3A11.25,11.25,0,0,0,396.3,119.23Z"/><path class="cls-12" d="M392.71,126.73l-1.11,2.32a9.17,9.17,0,0,1,3.83,3.81l1.31-2.72A13.46,13.46,0,0,0,392.71,126.73Z"/><path class="cls-1" d="M389.24,134l-1.11,2.31a9.37,9.37,0,0,1,3.83,3.82l1.3-2.72A13.17,13.17,0,0,0,389.24,134Z"/><path class="cls-13" d="M384.16,7.63l-.29.08c-.32-1.18-1-2-1.51-1.81s-.69,1.15-.36,2.33l-.29.08c-.38-1.39-.15-2.5.57-2.7S383.78,6.24,384.16,7.63Z"/><path class="cls-13" d="M384.58,9.72l-2.15.6a.36.36,0,0,1-.46-.21l-.46-1.67a.27.27,0,0,1,0-.23.41.41,0,0,1,.25-.19L384,7.43a.47.47,0,0,1,.29,0,.31.31,0,0,1,.17.2l.46,1.67A.35.35,0,0,1,384.58,9.72Z"/><path class="cls-6" d="M392.48,18.49l.12.44c0,.24.1.48.15.74a17.43,17.43,0,0,1,.25,2.24c.3,5.76-1.58,12.8-2.6,13.08s-6.25-4.79-8.95-9.89a17.72,17.72,0,0,1-.93-2.06c-.09-.24-.18-.48-.25-.71s-.09-.29-.13-.43-.1-.4-.14-.63a14.4,14.4,0,0,1-.22-2.14,20.2,20.2,0,0,1,.05-2.32c.25-3.37,1.32-6.9,3.46-7.56s4.9,1.95,6.85,4.71a22.78,22.78,0,0,1,1.24,2,15.57,15.57,0,0,1,.92,2C392.37,18.12,392.43,18.31,392.48,18.49Z"/><path class="cls-4" d="M391.38,15.93l-11.6,3.2a20.2,20.2,0,0,1,.05-2.32L390.14,14A22.78,22.78,0,0,1,391.38,15.93Z"/><path class="cls-4" d="M392.75,19.67a17.43,17.43,0,0,1,.25,2.24L381.45,25.1a17.72,17.72,0,0,1-.93-2.06Z"/><circle class="cls-1" cx="382.43" cy="13.37" r="1.63" transform="translate(0.82 41.72) rotate(-6.25)"/><path class="cls-4" d="M392.48,18.49l.12.44a1.59,1.59,0,0,1-1.25-.53c-.28-.26-.39-.33-.51-.3s-.18.15-.3.52a1.44,1.44,0,0,1-1,1.15,1.47,1.47,0,0,1-1.41-.5c-.28-.25-.39-.33-.52-.29s-.17.15-.29.51a1.3,1.3,0,0,1-2.36.66c-.29-.26-.39-.33-.52-.3s-.18.16-.29.52a1.45,1.45,0,0,1-.95,1.15,1.47,1.47,0,0,1-1.41-.5c-.29-.25-.4-.33-.52-.29s-.18.15-.29.51a1.61,1.61,0,0,1-.76,1.09c0-.15-.09-.29-.13-.43s-.1-.4-.14-.63a2.52,2.52,0,0,0,.11-.31,1.49,1.49,0,0,1,.95-1.16,1.45,1.45,0,0,1,1.41.51c.29.25.4.32.52.29s.18-.15.29-.52a1.49,1.49,0,0,1,1-1.15,1.47,1.47,0,0,1,1.41.5c.28.25.39.33.51.29s.18-.15.3-.51a1.47,1.47,0,0,1,1-1.16,1.45,1.45,0,0,1,1.41.51c.29.25.39.32.52.29s.18-.15.29-.52a1.3,1.3,0,0,1,2.36-.65,3.05,3.05,0,0,0,.31.25C392.37,18.12,392.43,18.31,392.48,18.49Z"/><polyline class="cls-14" points="52.88 310.31 52.88 314.22 49.6 314.22 49.6 310.22"/><path class="cls-14" d="M40.46,297.44c-2.08,2.42-4.66,4.59-7.1,4.4a5.23,5.23,0,0,0,3.29,1.23c-2,1.88-4.2,3.24-6.32,3.07,0,0,1.27,1.41,4.61,1.49a4.72,4.72,0,0,1-2.14,1.23s2.08,1.21,6.13-.84c.35-.18.66-.35.93-.52a5.94,5.94,0,0,1-2.62,2s1.74.76,4.82-.53a4.68,4.68,0,0,1-1.45,2s2.39.25,5.25-3.27a6.81,6.81,0,0,1-2.35,3.76s1.88.26,4.49-1.83a4.71,4.71,0,0,1-.85,2.32,5.28,5.28,0,0,0,3-2.41c.55,1.62,1.07,3.32,1.07,3.3s.55-1.75,1.1-3.4c1.52,2.24,3,2.51,3,2.51a4.71,4.71,0,0,1-.85-2.32c2.61,2.09,4.49,1.83,4.49,1.83a6.81,6.81,0,0,1-2.35-3.76c2.86,3.52,5.25,3.27,5.25,3.27a4.68,4.68,0,0,1-1.45-2c3.08,1.29,4.82.53,4.82.53a6,6,0,0,1-2.62-2c.28.17.58.34.93.52,4,2.05,6.13.84,6.13.84a4.72,4.72,0,0,1-2.14-1.23c3.34-.08,4.61-1.49,4.61-1.49-2.12.17-4.32-1.19-6.32-3.07a5.19,5.19,0,0,0,3.29-1.23c-2.44.19-5-2-7.1-4.4"/><path class="cls-14" d="M47.72,287.74c-1-.21-2.16,1.48-3.67,3.44-2,2.28-4.4,4.33-6.7,4.15,0,0,1,1.13,3.73,1.2-.53.49-3.2,2.59-4.38,2.49,0,0,1,1.1,3.6,1.17a3.78,3.78,0,0,1-1.67,1s1.62.94,4.78-.66a6.8,6.8,0,0,0,.73-.41,4.65,4.65,0,0,1-2,1.58,7.77,7.77,0,0,0,3.76-.79,5.29,5.29,0,0,1-1.13,1.94s1.87,1,4.09-1.79a7.32,7.32,0,0,1-.68,2.17s1,.2,3.1-1.65a4.49,4.49,0,0,0,3.1,1.65,10.42,10.42,0,0,1-.68-2.17c2.23,2.75,4.09,1.79,4.09,1.79a5.29,5.29,0,0,1-1.13-1.94,7.78,7.78,0,0,0,3.76.79,4.65,4.65,0,0,1-2-1.58,6.8,6.8,0,0,0,.73.41c3.16,1.6,4.78.66,4.78.66a3.84,3.84,0,0,1-1.67-1c2.61-.07,3.6-1.17,3.6-1.17-1.18.1-3.85-2-4.38-2.49,2.7-.07,3.73-1.2,3.73-1.2-2.3.18-4.73-1.87-6.7-4.15-1.17-1.49-2.63-3.65-3.67-3.44"/><path class="cls-14" d="M58.82,290.32a3.47,3.47,0,0,0,1.55.9s-1.51.88-4.45-.61c-.25-.13-.48-.26-.67-.38a4.3,4.3,0,0,0,1.89,1.46,7.37,7.37,0,0,1-3.5-.76,5,5,0,0,0,1,1.83c-.19,0-3.15-.56-3.45-1.5a5.3,5.3,0,0,1-3.46,1.5,4.78,4.78,0,0,0,1.06-1.83,7.37,7.37,0,0,1-3.5.76,4.38,4.38,0,0,0,1.9-1.46c-.2.12-.42.25-.68.38-2.94,1.49-4.45.61-4.45.61a3.5,3.5,0,0,0,1.56-.9,4.77,4.77,0,0,1-3.36-1.08c1.63.13,3.34-1,4.85-2.47a4,4,0,0,1-1.8-.77c3.14-.56,6.4-7.79,7.77-10.6,1.38,2.81,4.63,10,7.78,10.6a3.88,3.88,0,0,1-1.63.72c1.53,1.51,3.25,2.65,4.89,2.52A4.76,4.76,0,0,1,58.82,290.32Z"/><path class="cls-15" d="M57.74,295h-.59a.11.11,0,0,1-.11-.11v-.55a.11.11,0,0,1,0-.07.1.1,0,0,1,.08,0h.59a.11.11,0,0,1,.08,0,.09.09,0,0,1,0,.07v.55A.11.11,0,0,1,57.74,295Z"/><path class="cls-9" d="M59.75,297a2.31,2.31,0,1,1-2.3-2.3A2.3,2.3,0,0,1,59.75,297Z"/><circle class="cls-1" cx="56.88" cy="296.22" r="0.87"/><path class="cls-15" d="M49.48,286h-.59a.11.11,0,0,1-.11-.1v-.56a.07.07,0,0,1,0-.06.08.08,0,0,1,.08,0h.59a.11.11,0,0,1,.08,0,.11.11,0,0,1,0,.07v.56A.11.11,0,0,1,49.48,286Z"/><path class="cls-16" d="M51.49,287.92a2.31,2.31,0,1,1-2.3-2.3A2.3,2.3,0,0,1,51.49,287.92Z"/><circle class="cls-1" cx="48.62" cy="287.19" r="0.87"/><path class="cls-15" d="M44.83,302h-.59a.1.1,0,0,1-.11-.1v-.55a.09.09,0,0,1,0-.07.1.1,0,0,1,.08,0h.59a.1.1,0,0,1,.11.11v.55A.1.1,0,0,1,44.83,302Z"/><path class="cls-1" d="M46.84,304a2.31,2.31,0,1,1-2.3-2.3A2.3,2.3,0,0,1,46.84,304Z"/><circle class="cls-17" cx="43.98" cy="303.28" r="0.87"/><polygon class="cls-18" points="51.24 271.26 52.47 274.38 55.68 273.4 54.01 276.31 56.78 278.2 53.46 278.71 53.71 282.06 51.24 279.78 48.78 282.06 49.02 278.71 45.7 278.2 48.47 276.31 46.8 273.4 50.01 274.38 51.24 271.26"/><polygon class="cls-1" points="51.24 278.22 50.13 279.25 50.24 277.74 48.74 277.51 49.99 276.66 49.24 275.34 50.69 275.79 51.24 274.38 51.8 275.79 53.24 275.34 52.49 276.66 53.74 277.51 52.24 277.74 52.35 279.25 51.24 278.22"/></g></g></svg>