<svg xmlns="http://www.w3.org/2000/svg" viewBox="0 0 229.61 37.38"><defs><style>.cls-1{fill:#fff;}</style></defs><g id="Capa_2" data-name="Capa 2"><g id="Textos"><path class="cls-1" d="M9.75,4.5Q17,4.5,20.91,7t3.9,8.2q0,5.76-3.94,8.3T9.61,26.07H7.31V36.73H0V5.33a42.8,42.8,0,0,1,5.06-.65c1.78-.11,3.35-.18,4.69-.18m.47,6.12c-.53,0-1.05,0-1.57,0l-1.34.1V20h2.3a12.8,12.8,0,0,0,5.73-1,3.86,3.86,0,0,0,1.92-3.77,4.48,4.48,0,0,0-.49-2.2,3.67,3.67,0,0,0-1.41-1.41,6.5,6.5,0,0,0-2.23-.74,19.86,19.86,0,0,0-2.91-.2"/><path class="cls-1" d="M44.13,18.62c-.62-.16-1.36-.32-2.21-.49a14.46,14.46,0,0,0-2.72-.25,12.43,12.43,0,0,0-1.57.12,9,9,0,0,0-1.38.25V36.73h-7V13.84a41.8,41.8,0,0,1,4.43-1.22,25.69,25.69,0,0,1,5.7-.58c.38,0,.83,0,1.36.07s1.07.11,1.6.19,1.06.17,1.59.27a7.17,7.17,0,0,1,1.36.4Z"/><path class="cls-1" d="M71.19,24.59a15.49,15.49,0,0,1-.84,5.22,11.19,11.19,0,0,1-2.45,4.05,10.74,10.74,0,0,1-3.82,2.59,13.74,13.74,0,0,1-9.94,0,10.92,10.92,0,0,1-3.82-2.59,12,12,0,0,1-2.49-4.05,14.78,14.78,0,0,1-.89-5.22,14.14,14.14,0,0,1,.92-5.19,11.63,11.63,0,0,1,2.53-4,11.36,11.36,0,0,1,3.85-2.57,12.44,12.44,0,0,1,4.85-.93,12.62,12.62,0,0,1,4.9.93,11,11,0,0,1,3.82,2.57,11.55,11.55,0,0,1,2.49,4,14.57,14.57,0,0,1,.89,5.19m-7.13,0a8.46,8.46,0,0,0-1.29-5,4.25,4.25,0,0,0-3.68-1.82,4.33,4.33,0,0,0-3.71,1.82,8.39,8.39,0,0,0-1.31,5,8.63,8.63,0,0,0,1.31,5,4.29,4.29,0,0,0,3.71,1.86,4.21,4.21,0,0,0,3.68-1.86,8.71,8.71,0,0,0,1.29-5"/><path class="cls-1" d="M75.88,6.53l7-1.11v7.13h8.39v5.7H82.87v8.5a6.73,6.73,0,0,0,.77,3.45q.78,1.29,3.12,1.29a13.43,13.43,0,0,0,2.32-.21,11.94,11.94,0,0,0,2.18-.57l1,5.33a20.41,20.41,0,0,1-2.82.88,17.07,17.07,0,0,1-3.8.36,12.63,12.63,0,0,1-4.73-.76,7.24,7.24,0,0,1-3-2.11,7.77,7.77,0,0,1-1.57-3.28,19,19,0,0,1-.45-4.29Z"/><path class="cls-1" d="M94.36,24.82a14.4,14.4,0,0,1,1-5.63,12.12,12.12,0,0,1,2.64-4,11.32,11.32,0,0,1,3.78-2.44,12,12,0,0,1,4.38-.83,11,11,0,0,1,8.3,3.16q3.06,3.13,3.06,9.26c0,.39,0,.83,0,1.31s-.07.89-.1,1.26H101.53a4.56,4.56,0,0,0,2,3.36,8.2,8.2,0,0,0,4.78,1.24,20.6,20.6,0,0,0,3.78-.35,13.74,13.74,0,0,0,3-.85l.94,5.57a10.2,10.2,0,0,1-1.5.55c-.63.18-1.32.34-2.09.48s-1.58.25-2.46.34a23.06,23.06,0,0,1-2.63.15,15.88,15.88,0,0,1-5.79-1,11.4,11.4,0,0,1-4.08-2.65,10.48,10.48,0,0,1-2.39-4,15.64,15.64,0,0,1-.77-5m16.41-2.62a7,7,0,0,0-.3-1.7,4.21,4.21,0,0,0-.8-1.47A4.37,4.37,0,0,0,108.31,18a4.6,4.6,0,0,0-2-.41,4.67,4.67,0,0,0-2,.4,4.19,4.19,0,0,0-1.41,1,4.63,4.63,0,0,0-.86,1.5,9.47,9.47,0,0,0-.45,1.72Z"/><path class="cls-1" d="M121.27,24.64a14,14,0,0,1,.87-4.94,11.87,11.87,0,0,1,2.51-4,12,12,0,0,1,4-2.73,13.26,13.26,0,0,1,5.35-1,16.76,16.76,0,0,1,6.79,1.33l-1.45,5.47a15.82,15.82,0,0,0-2.16-.64,11.08,11.08,0,0,0-2.62-.28,5.6,5.6,0,0,0-4.62,1.88,7.68,7.68,0,0,0-1.53,5,8,8,0,0,0,1.43,5.06c1,1.19,2.62,1.79,5,1.79a16.73,16.73,0,0,0,2.72-.23,11.36,11.36,0,0,0,2.67-.74l1,5.62a17.6,17.6,0,0,1-3.05.87,20.89,20.89,0,0,1-4,.37,15.25,15.25,0,0,1-5.81-1,10.87,10.87,0,0,1-4-2.68,10.54,10.54,0,0,1-2.3-4,16.84,16.84,0,0,1-.73-5"/><path class="cls-1" d="M143.08,24.64A14,14,0,0,1,144,19.7a11.62,11.62,0,0,1,6.5-6.78,13.25,13.25,0,0,1,5.34-1,16.86,16.86,0,0,1,6.8,1.33l-1.45,5.47a16.72,16.72,0,0,0-2.16-.64,11.14,11.14,0,0,0-2.62-.28,5.59,5.59,0,0,0-4.62,1.88,7.68,7.68,0,0,0-1.53,5,8,8,0,0,0,1.43,5.06c1,1.19,2.62,1.79,5,1.79a16.52,16.52,0,0,0,2.71-.23,11.45,11.45,0,0,0,2.68-.74l1,5.62A17.87,17.87,0,0,1,160,37a21,21,0,0,1-4,.37,15.18,15.18,0,0,1-5.81-1,10.87,10.87,0,0,1-4-2.68,10.41,10.41,0,0,1-2.3-4,16.84,16.84,0,0,1-.73-5"/><path class="cls-1" d="M174.88,5.56a3.75,3.75,0,0,1-1.24,3,4.56,4.56,0,0,1-5.87,0,3.75,3.75,0,0,1-1.24-3,3.75,3.75,0,0,1,1.24-3,4.53,4.53,0,0,1,5.87,0,3.75,3.75,0,0,1,1.24,3m-.66,31.17h-7V12.55h7Z"/><path class="cls-1" d="M203.39,24.59a15.49,15.49,0,0,1-.84,5.22,11.31,11.31,0,0,1-2.44,4.05,10.92,10.92,0,0,1-3.82,2.59,12.86,12.86,0,0,1-5,.93,12.69,12.69,0,0,1-5-.93,10.87,10.87,0,0,1-3.83-2.59A11.84,11.84,0,0,1,180,29.81a14.78,14.78,0,0,1-.89-5.22,14.14,14.14,0,0,1,.91-5.19,11.78,11.78,0,0,1,2.53-4,11.46,11.46,0,0,1,3.85-2.57,13.24,13.24,0,0,1,9.75,0A11.18,11.18,0,0,1,200,15.4a11.67,11.67,0,0,1,2.48,4,14.57,14.57,0,0,1,.89,5.19M197.06,3.86l-7.71,6.39-3.22-2.8L192.77,0Zm-.8,20.73a8.46,8.46,0,0,0-1.28-5,4.66,4.66,0,0,0-7.39,0,8.32,8.32,0,0,0-1.32,5,8.56,8.56,0,0,0,1.32,5,4.6,4.6,0,0,0,7.39,0,8.71,8.71,0,0,0,1.28-5"/><path class="cls-1" d="M208.32,13.38a40.48,40.48,0,0,1,4.59-1,38.76,38.76,0,0,1,5.91-.43,14.56,14.56,0,0,1,5.23.8,8,8,0,0,1,3.31,2.27,8.92,8.92,0,0,1,1.73,3.5,18,18,0,0,1,.52,4.51V36.73h-7V23.9a9.08,9.08,0,0,0-.89-4.68c-.6-.93-1.7-1.39-3.33-1.39-.5,0-1,0-1.59.08s-1.07.1-1.51.16V36.73h-7Z"/><path class="cls-1" d="M208.32,13.38a40.48,40.48,0,0,1,4.59-1,38.76,38.76,0,0,1,5.91-.43,14.56,14.56,0,0,1,5.23.8,8,8,0,0,1,3.31,2.27,8.92,8.92,0,0,1,1.73,3.5,18,18,0,0,1,.52,4.51V36.73h-7V23.9a9.08,9.08,0,0,0-.89-4.68c-.6-.93-1.7-1.39-3.33-1.39-.5,0-1,0-1.59.08s-1.07.1-1.51.16V36.73h-7Z"/></g></g></svg>