<svg xmlns="http://www.w3.org/2000/svg" viewBox="0 0 793.03 301.52"><defs><style>.cls-1{fill:#fff;}.cls-2{fill:#00b1e8;}</style></defs><g id="Capa_2" data-name="Capa 2"><g id="Layer_2" data-name="Layer 2"><path class="cls-1" d="M105.23,57.44a3.27,3.27,0,0,1-2.32.8H92.35a1.17,1.17,0,0,0-1.28,1.12l-2.24,8.48-.16.48c0,.64.38,1,1.12,1h6.08a2.51,2.51,0,0,1,2.08.8,2.93,2.93,0,0,1,.48,2.24L96,91.84a3.4,3.4,0,0,1-1,2.24,3.29,3.29,0,0,1-2.32.8H82.43A1.3,1.3,0,0,0,81.15,96l-4.32,16a3.45,3.45,0,0,1-1.28,2,3.62,3.62,0,0,1-2.24.72H50.11a2.36,2.36,0,0,1-2.16-.88,3,3,0,0,1-.24-2.32l4.16-15.2.16-.48a.78.78,0,0,0-.4-.72,1.42,1.42,0,0,0-.72-.24H42.27c-.64,0-1.06.38-1.28,1.12l-4.32,16A3.65,3.65,0,0,1,33,114.72H10a2.58,2.58,0,0,1-2.24-.88,2.45,2.45,0,0,1-.16-2.32l4.16-15.2.16-.48c0-.64-.43-1-1.28-1H4.35c-2,0-2.93-1-2.72-3L4,72.32a3.28,3.28,0,0,1,1.12-2.24,3.42,3.42,0,0,1,2.24-.8H18a1.55,1.55,0,0,0,1.44-1.12l2.24-8.48.16-.48c0-.64-.43-1-1.28-1H14.59q-3,0-2.72-3l2.56-19.68a3.4,3.4,0,0,1,1-2.24,3.12,3.12,0,0,1,2.16-.8H27.87a1.55,1.55,0,0,0,1.44-1.12l4.32-16a3.45,3.45,0,0,1,1.28-2,3.64,3.64,0,0,1,2.24-.72h23.2a2.41,2.41,0,0,1,2.08.88,2.78,2.78,0,0,1,.32,2.32L58.59,31l-.16.48c0,.64.37,1,1.12,1h8.64a1.29,1.29,0,0,0,1.28-1.12l4.32-16a3.5,3.5,0,0,1,1.28-2,3.64,3.64,0,0,1,2.24-.72h23.2a2.38,2.38,0,0,1,2.16.88,3,3,0,0,1,.24,2.32L98.75,31l-.16.48a.8.8,0,0,0,.4.72,1.45,1.45,0,0,0,.72.24h6.4a2.52,2.52,0,0,1,2.08.8,2.92,2.92,0,0,1,.48,2.24l-2.4,19.68A3.36,3.36,0,0,1,105.23,57.44ZM59.55,68.16l2.24-8.48L62,59.2a.78.78,0,0,0-.4-.72,1.42,1.42,0,0,0-.72-.24H52.19a1.17,1.17,0,0,0-1.28,1.12l-2.4,8.48v.32a1,1,0,0,0,1.12,1.12h8.48A1.55,1.55,0,0,0,59.55,68.16Z"/><path class="cls-2" d="M119.61,111.92q-10.23-9.51-10.23-25.52a45.56,45.56,0,0,1,.31-6.24l4-32.32a46.47,46.47,0,0,1,7.92-21.44A44.19,44.19,0,0,1,138.42,12a51.33,51.33,0,0,1,23.12-5.12q17.76,0,28.07,9T199.94,40c0,1.07-.11,2.88-.33,5.44,0,1-1,1.55-2.88,1.76l-23.52,1.6h-.79c-1.5,0-2.25-.26-2.25-.8l.17-1a13.85,13.85,0,0,0,.16-2.4q0-5.6-3.2-8.8t-8.8-3.2A14.86,14.86,0,0,0,148,36.56,16.43,16.43,0,0,0,143,47l-4.16,34.4a12.87,12.87,0,0,0-.17,2.4,11.5,11.5,0,0,0,3.29,8.64,11.9,11.9,0,0,0,8.71,3.2,14.52,14.52,0,0,0,10.4-3.92,16.47,16.47,0,0,0,5-10.32,2.11,2.11,0,0,1,1.11-1.36,3.57,3.57,0,0,1,2.25-.4L192.57,81c1.82.22,2.73.48,2.73.8l-.17.8a42.39,42.39,0,0,1-24.56,34,53.43,53.43,0,0,1-23.11,4.88Q129.85,121.44,119.61,111.92Z"/><path class="cls-2" d="M257.84,37H281c2,0,2.93,1,2.72,3l-9.6,77.12a3.45,3.45,0,0,1-1,2.24,3.07,3.07,0,0,1-2.16.8H247.6c-1.92,0-2.78-1-2.56-3l.48-3.84V113c0-.42-.14-.67-.4-.72s-.62.14-1,.56q-7.2,8.64-20.32,8.64-10.56,0-16.48-6.32t-5.92-17.68a40.59,40.59,0,0,1,.32-5.92L207.92,40c.32-2,1.44-3,3.36-3h23.2c2,0,2.93,1,2.72,3l-5.6,45a8.37,8.37,0,0,0-.16,1.92,9.63,9.63,0,0,0,2,6.4,6.79,6.79,0,0,0,5.52,2.4,8.8,8.8,0,0,0,5.84-2.08,11.75,11.75,0,0,0,3.6-5.6,1.64,1.64,0,0,0,.32-.88,1.55,1.55,0,0,1,.16-.72l5.6-46.4C254.8,38,255.92,37,257.84,37Z"/><path class="cls-2" d="M286.8,119.36a2.92,2.92,0,0,1-.48-2.24L295.76,40a3.36,3.36,0,0,1,1-2.24,3.32,3.32,0,0,1,2.32-.8h23.2a2.52,2.52,0,0,1,2.08.8,3,3,0,0,1,.48,2.24l-9.44,77.12a3.45,3.45,0,0,1-1,2.24,3.29,3.29,0,0,1-2.32.8h-23.2A2.48,2.48,0,0,1,286.8,119.36Zm13.52-89.68a13.65,13.65,0,0,1-4.08-10.32,18.85,18.85,0,0,1,5.44-13.92A18.43,18.43,0,0,1,315.28,0q6.87,0,10.88,3.92t4,10.48q0,8.49-5.44,13.84a18.62,18.62,0,0,1-13.6,5.36Q304.4,33.6,300.32,29.68Z"/><path class="cls-2" d="M388.65,9a3.32,3.32,0,0,1,2.32-.8h23.2a2.52,2.52,0,0,1,2.08.8,3,3,0,0,1,.48,2.24l-13,105.92a3.4,3.4,0,0,1-1,2.24,3.29,3.29,0,0,1-2.32.8h-23.2a2.48,2.48,0,0,1-2.08-.8,2.92,2.92,0,0,1-.48-2.24l.32-3.36v-.32c0-.42-.13-.64-.4-.64s-.56.22-.88.64q-7.05,8-18.56,8a25.57,25.57,0,0,1-17.76-6.8q-7.51-6.8-9.6-18.48a56.54,56.54,0,0,1-.64-9,81.18,81.18,0,0,1,.48-9,63.88,63.88,0,0,1,6.08-20.48,41.78,41.78,0,0,1,13.52-15.92A33.45,33.45,0,0,1,367,35.68q10.88,0,15.36,6.72a1.32,1.32,0,0,0,.8.48c.42,0,.64-.37.64-1.12l3.84-30.56A3.38,3.38,0,0,1,388.65,9Zm-9.36,69.76c.21-2.13.32-3.68.32-4.64a21.54,21.54,0,0,0-1.28-7.68,7.53,7.53,0,0,0-7.52-5q-5.61,0-8.8,5.28a32.39,32.39,0,0,0-3.84,12c-.21,1.92-.32,3.36-.32,4.32a20.57,20.57,0,0,0,1.28,7.36q2.07,5.28,7.52,5.28,5.28,0,9-5.44A27.61,27.61,0,0,0,379.29,78.72Z"/><path class="cls-2" d="M473.19,37.76a3.34,3.34,0,0,1,2.32-.8h23.2a2.52,2.52,0,0,1,2.08.8,2.92,2.92,0,0,1,.48,2.24l-9.44,77.12a3.4,3.4,0,0,1-1,2.24,3.29,3.29,0,0,1-2.32.8h-23.2a2.49,2.49,0,0,1-2.08-.8,2.92,2.92,0,0,1-.48-2.24l.32-3.36v-.32c0-.42-.13-.64-.4-.64s-.56.22-.88.64q-7,8-18.56,8a25.57,25.57,0,0,1-17.76-6.8q-7.51-6.8-9.6-18.48a56.54,56.54,0,0,1-.64-9,81.18,81.18,0,0,1,.48-9,64.13,64.13,0,0,1,6.08-20.48,41.78,41.78,0,0,1,13.52-15.92A33.45,33.45,0,0,1,455,35.68q10.88,0,15.36,6.72a1.32,1.32,0,0,0,.8.48c.43,0,.64-.37.64-1.12l.32-1.76A3.4,3.4,0,0,1,473.19,37.76Zm-5.84,41c.21-2.13.32-3.68.32-4.64a21.54,21.54,0,0,0-1.28-7.68,7.53,7.53,0,0,0-7.52-5q-5.6,0-8.8,5.28a32.57,32.57,0,0,0-3.84,12c-.21,1.92-.32,3.36-.32,4.32a20.57,20.57,0,0,0,1.28,7.36q2.08,5.28,7.52,5.28,5.28,0,9-5.44A27.61,27.61,0,0,0,467.35,78.72Z"/><path class="cls-2" d="M566.28,37.6a2.52,2.52,0,0,1,1.28,2.24,9.8,9.8,0,0,1-.32,1.6L560.68,65c-.43,1.92-1.6,2.62-3.52,2.08a16.67,16.67,0,0,0-4.32-.48,21.26,21.26,0,0,0-4.48.48A16.24,16.24,0,0,0,541,70.48a10.24,10.24,0,0,0-3.68,7.12l-5,39.52a3.45,3.45,0,0,1-1,2.24,3.07,3.07,0,0,1-2.16.8H505.8a2.49,2.49,0,0,1-2.08-.8,2.92,2.92,0,0,1-.48-2.24L512.68,40c.32-2,1.44-3,3.36-3h23.2a2.52,2.52,0,0,1,2.08.8A3,3,0,0,1,541.8,40l-.16,2.24a1.21,1.21,0,0,0,.16,1.12c.21.22.53.11,1-.32q6.72-7.2,15.84-7.2A14.65,14.65,0,0,1,566.28,37.6Z"/><path class="cls-2" d="M622.71,60.16a3.29,3.29,0,0,1-2.32.8H608.71a1.43,1.43,0,0,0-1.44,1.28l-2.88,23.68a13,13,0,0,0-.16,2.4c0,3.74,1.6,5.6,4.8,5.6h5.12a2.57,2.57,0,0,1,2,.8,2.78,2.78,0,0,1,.56,2.24l-2.4,19.36a3.21,3.21,0,0,1-3.2,3q-5.93.48-11.2.48-12.81,0-19-3.6t-6.24-13.36c0-.85.1-2.34.32-4.48l4.32-36.16v-.32a.85.85,0,0,0-1-1H571a2.48,2.48,0,0,1-2.08-.8,2.92,2.92,0,0,1-.48-2.24L570.63,40a3.36,3.36,0,0,1,1-2.24,3.09,3.09,0,0,1,2.16-.8h7.36c.74,0,1.22-.42,1.44-1.28l2.24-18.08a3.38,3.38,0,0,1,1-2.24,3.09,3.09,0,0,1,2.16-.8h22.08a2.52,2.52,0,0,1,2.08.8,3,3,0,0,1,.48,2.24l-2.24,18.08c0,.86.37,1.28,1.12,1.28h11.84a2.57,2.57,0,0,1,2,.8A2.77,2.77,0,0,1,626,40l-2.24,17.92A3.45,3.45,0,0,1,622.71,60.16Z"/><path class="cls-2" d="M676.26,94.8a22.61,22.61,0,0,0,7-3.28,3.94,3.94,0,0,1,2.24-1,2.2,2.2,0,0,1,1.76,1.28l8.8,15a3.8,3.8,0,0,1,.48,1.6,3.55,3.55,0,0,1-1.44,2.56,39.11,39.11,0,0,1-14.4,7.84,59.2,59.2,0,0,1-17.44,2.56q-11.52,0-20-4.24a30.89,30.89,0,0,1-13.12-12.08,39.75,39.75,0,0,1-5-20.16,52.16,52.16,0,0,1,.48-7,62.11,62.11,0,0,1,3.36-13.44A44.75,44.75,0,0,1,645.7,43.6,43.69,43.69,0,0,1,671,35.68q16,0,24.64,10.64t9.44,29a33.11,33.11,0,0,1,.16,3.84,32.88,32.88,0,0,1-.16,3.84q-.48,3-3.36,3H655.62c-.85,0-1.28.48-1.28,1.44l.48,2.08Q656.91,96,667.46,96A31.6,31.6,0,0,0,676.26,94.8Zm-18.72-27-.64,1.28-.16.48c0,.64.37,1,1.12,1h16.8c.85,0,1.28-.32,1.28-1a2.3,2.3,0,0,0-.16-.88,2.26,2.26,0,0,1-.16-.88q-1.92-6.39-8.48-6.4Q660.9,61.44,657.54,67.84Z"/><path class="cls-1" d="M86,183.92H40.67a1.43,1.43,0,0,0-1.44,1.28l-1.76,14.08c0,.86.37,1.28,1.12,1.28H66.27a2.55,2.55,0,0,1,2,.8,2.74,2.74,0,0,1,.56,2.24l-2.4,19.52q-.48,3-3.36,3H35.39a1.13,1.13,0,0,0-1.28,1.28l-1.92,15.68v.32a.85.85,0,0,0,1,1H78.59a2.57,2.57,0,0,1,2,.8,2.74,2.74,0,0,1,.56,2.24l-2.4,19.68a3.22,3.22,0,0,1-1.12,2.24,3.36,3.36,0,0,1-2.24.8H2.59a2.49,2.49,0,0,1-2.08-.8A3,3,0,0,1,0,267.12L13,161.2c.32-2,1.44-3,3.36-3h72.8a2.55,2.55,0,0,1,2,.8,2.74,2.74,0,0,1,.56,2.24l-2.4,19.68Q88.83,183.93,86,183.92Z"/><path class="cls-1" d="M94.42,265.28q-9.21-6.15-9.2-16.72a18.59,18.59,0,0,1,.16-2.88v-.8q.48-3,3.36-3h22.08c1.92,0,2.88.27,2.88.8l-.16,1a4.07,4.07,0,0,0,2.24,4.16,12.83,12.83,0,0,0,6.88,1.6,12.19,12.19,0,0,0,5.76-1.2,3.64,3.64,0,0,0,2.24-3.28c0-1.28-.83-2.24-2.48-2.88a41.06,41.06,0,0,0-8.08-1.76,101.07,101.07,0,0,1-10.32-1.92,36.26,36.26,0,0,1-8.72-3.36q-10.89-5.91-10.88-17.6a28.55,28.55,0,0,1,5-16.8,32,32,0,0,1,14-11,50.68,50.68,0,0,1,20.16-3.84q15,0,23.92,6.8a21.88,21.88,0,0,1,8.88,18.32,34.52,34.52,0,0,1-.32,3.84,1.44,1.44,0,0,1-.88,1.28,4.48,4.48,0,0,1-2.16.48H137.54a5.71,5.71,0,0,1-2.08-.32c-.54-.21-.8-.42-.8-.64l.16-.8a4.3,4.3,0,0,0-1.76-4.24,10.27,10.27,0,0,0-6.08-1.52,12.62,12.62,0,0,0-6.16,1.36,4.05,4.05,0,0,0-2.48,3.6c0,1.49.93,2.56,2.8,3.2a50,50,0,0,0,9,1.76q.8.16,5.84,1a48.9,48.9,0,0,1,9.68,2.56q7.2,2.73,10.88,7.28a17.91,17.91,0,0,1,3.68,11.6,31.4,31.4,0,0,1-.16,3.52q-1.6,13.13-12.4,19.92t-27.6,6.8Q103.62,271.44,94.42,265.28Z"/><path class="cls-2" d="M165.81,269.36a2.92,2.92,0,0,1-.48-2.24l13-105.92c.32-2,1.44-3,3.36-3h23a3.4,3.4,0,0,1,3.36,2.08l14.88,31.52a.75.75,0,0,0,.8.64,1.38,1.38,0,0,0,1.12-.64l22.56-31.52a4.45,4.45,0,0,1,3.84-2.08h23.2c1.92,0,2.77,1,2.56,3l-13,105.92q-.48,3-3.36,3H237.33a2.52,2.52,0,0,1-2-.8,2.73,2.73,0,0,1-.56-2.24l7-56.48v-.32c0-.53-.16-.8-.48-.8a1.77,1.77,0,0,0-1.12.64l-11.52,16.48a4.45,4.45,0,0,1-3.84,2.08H214a3.4,3.4,0,0,1-3.36-2.08l-7.52-16.48a1.31,1.31,0,0,0-1-.64c-.43,0-.7.38-.8,1.12l-6.88,56.48a3.45,3.45,0,0,1-1,2.24,3.29,3.29,0,0,1-2.32.8h-23.2A2.48,2.48,0,0,1,165.81,269.36Z"/><path class="cls-2" d="M277.09,269.36a2.92,2.92,0,0,1-.48-2.24L286.05,190a3.36,3.36,0,0,1,1-2.24,3.32,3.32,0,0,1,2.32-.8h23.2a2.52,2.52,0,0,1,2.08.8,3,3,0,0,1,.48,2.24l-9.44,77.12a3.45,3.45,0,0,1-1,2.24,3.29,3.29,0,0,1-2.32.8h-23.2A2.48,2.48,0,0,1,277.09,269.36Zm13.52-89.68a13.65,13.65,0,0,1-4.08-10.32A18.85,18.85,0,0,1,292,155.44a18.43,18.43,0,0,1,13.6-5.44q6.87,0,10.88,3.92t4,10.48q0,8.49-5.44,13.84a18.62,18.62,0,0,1-13.6,5.36Q294.69,183.6,290.61,179.68Z"/><path class="cls-1" d="M372.38,267.92l-12-39.84q-.17-1-1.44-1H353.5c-1,0-1.44.43-1.44,1.28l-4.8,38.72a3.4,3.4,0,0,1-1,2.24,3.29,3.29,0,0,1-2.32.8H320.7a2.49,2.49,0,0,1-2.08-.8,2.92,2.92,0,0,1-.48-2.24l13-105.92c.32-2,1.44-3,3.36-3h46.4q14.4,0,22.88,8.16t8.48,22.08c0,1.07-.11,2.88-.32,5.44a37.64,37.64,0,0,1-7.12,18.24,35.24,35.24,0,0,1-15.12,11.68,1.22,1.22,0,0,0-.8,1.6l13.92,41.28a3.44,3.44,0,0,1,.16,1.12c0,1.6-.91,2.4-2.72,2.4h-24.8A2.72,2.72,0,0,1,372.38,267.92Zm-15-82.72L355.1,203c0,.85.37,1.28,1.12,1.28H370.3a13.07,13.07,0,0,0,9-3.2,10.6,10.6,0,0,0,3.6-8.32,8,8,0,0,0-2.8-6.4,10.79,10.79,0,0,0-7.28-2.4H358.78A1.43,1.43,0,0,0,357.34,185.2Z"/><path class="cls-1" d="M462.22,244.8a22.61,22.61,0,0,0,7-3.28,3.94,3.94,0,0,1,2.24-1c.64,0,1.22.43,1.76,1.28l8.8,15a3.8,3.8,0,0,1,.48,1.6A3.55,3.55,0,0,1,481.1,261a39.27,39.27,0,0,1-14.4,7.84,59.2,59.2,0,0,1-17.44,2.56q-11.52,0-20-4.24a30.83,30.83,0,0,1-13.12-12.08,39.75,39.75,0,0,1-5-20.16,52.16,52.16,0,0,1,.48-7A62.11,62.11,0,0,1,415,214.48a44.75,44.75,0,0,1,16.64-20.88,43.66,43.66,0,0,1,25.28-7.92q16,0,24.64,10.64t9.44,29a46.16,46.16,0,0,1,0,7.68q-.48,3-3.36,3H441.58c-.86,0-1.28.48-1.28,1.44l.48,2.08q2.07,6.41,12.64,6.4A31.65,31.65,0,0,0,462.22,244.8Zm-18.72-27-.64,1.28-.16.48c0,.64.37,1,1.12,1h16.8c.85,0,1.28-.32,1.28-1a2.5,2.5,0,0,0-.16-.88,2.26,2.26,0,0,1-.16-.88q-1.92-6.39-8.48-6.4Q446.86,211.44,443.5,217.84Z"/><path class="cls-1" d="M552.33,187.76a3.09,3.09,0,0,1,2.16-.8h23.36a2.52,2.52,0,0,1,2.08.8,3,3,0,0,1,.48,2.24l-8.48,69.28q-2.88,22.88-16.88,32.56t-33.36,9.68A100.41,100.41,0,0,1,506,300.08a2.55,2.55,0,0,1-1.76-1.2,3.5,3.5,0,0,1-.32-2.16l3.52-20.32a2.72,2.72,0,0,1,1.2-2.24,2.82,2.82,0,0,1,2.48-.16,46.67,46.67,0,0,0,11.36,1.44,25.15,25.15,0,0,0,12.08-2.72,15,15,0,0,0,7.12-8.48l.16-.48c0-.43-.24-.69-.72-.8a2,2,0,0,0-1.36.16q-5.76,4.17-14.4,4.16-24.81,0-29.12-20.8a48.84,48.84,0,0,1-1-9.6,73.91,73.91,0,0,1,.64-9.12,61.52,61.52,0,0,1,5.6-20.16,40.44,40.44,0,0,1,13.68-16,33.36,33.36,0,0,1,19.12-5.92q10.23,0,15.36,6.08c.32.43.61.59.88.48s.45-.43.56-1l.16-1.28A3.36,3.36,0,0,1,552.33,187.76Zm-5.68,39.84c.21-2.34.32-3.94.32-4.8a16.94,16.94,0,0,0-.8-5.6,8,8,0,0,0-8.16-5.76q-5.28,0-8.8,5.6a23.71,23.71,0,0,0-3.84,11,40.69,40.69,0,0,0-.32,4.16,18.68,18.68,0,0,0,1,6.24q2.07,5.61,8.32,5.6a10.53,10.53,0,0,0,9.44-5.44A35.62,35.62,0,0,0,546.65,227.6Z"/><path class="cls-1" d="M640.57,187.76a3.32,3.32,0,0,1,2.32-.8h23.2a2.52,2.52,0,0,1,2.08.8,3,3,0,0,1,.48,2.24l-9.44,77.12a3.45,3.45,0,0,1-1,2.24,3.29,3.29,0,0,1-2.32.8h-23.2a2.48,2.48,0,0,1-2.08-.8,2.92,2.92,0,0,1-.48-2.24l.32-3.36v-.32c0-.42-.14-.64-.4-.64s-.56.22-.88.64q-7.05,8-18.56,8a25.57,25.57,0,0,1-17.76-6.8q-7.53-6.79-9.6-18.48a56.54,56.54,0,0,1-.64-9,81.18,81.18,0,0,1,.48-9,63.88,63.88,0,0,1,6.08-20.48,41.69,41.69,0,0,1,13.52-15.92,33.45,33.45,0,0,1,19.76-6.16q10.88,0,15.36,6.72a1.29,1.29,0,0,0,.8.48c.42,0,.64-.37.64-1.12l.32-1.76A3.36,3.36,0,0,1,640.57,187.76Zm-5.84,41c.21-2.13.32-3.68.32-4.64a21.54,21.54,0,0,0-1.28-7.68,7.54,7.54,0,0,0-7.52-5q-5.61,0-8.8,5.28a32.21,32.21,0,0,0-3.84,12,41,41,0,0,0-.32,4.32,20.36,20.36,0,0,0,1.28,7.36q2.07,5.28,7.52,5.28,5.28,0,9-5.44A27.75,27.75,0,0,0,634.73,228.72Z"/><path class="cls-1" d="M671.3,269.36a2.92,2.92,0,0,1-.48-2.24l13-105.92c.32-2,1.44-3,3.36-3h23.2a2.52,2.52,0,0,1,2.08.8,2.93,2.93,0,0,1,.48,2.24l-13,105.92a3.4,3.4,0,0,1-1,2.24,3.29,3.29,0,0,1-2.32.8h-23.2A2.49,2.49,0,0,1,671.3,269.36Z"/><path class="cls-1" d="M723.43,263.28q-9.12-8.16-10.72-22.08a35,35,0,0,1-.48-5.76,52.16,52.16,0,0,1,.48-7,46.84,46.84,0,0,1,3.68-14.24,44.89,44.89,0,0,1,16.24-20.88,43.44,43.44,0,0,1,25.36-7.6q14.4,0,23.36,7.6t11,20.56a69.59,69.59,0,0,1,.64,7.68,46.29,46.29,0,0,1-.48,6.56,81.7,81.7,0,0,1-2.72,12.16A46.48,46.48,0,0,1,773.59,263a42.87,42.87,0,0,1-26.32,8.4Q732.54,271.44,723.43,263.28Zm33.84-20.4a19.18,19.18,0,0,0,4.4-7.44,42.62,42.62,0,0,0,1.44-7.2c.21-2.13.32-3.62.32-4.48q0-5.76-2.16-9a7.42,7.42,0,0,0-6.64-3.28q-7.68,0-10.88,9.44a30.68,30.68,0,0,0-1.76,7.36,41,41,0,0,0-.32,4.32,18.36,18.36,0,0,0,2.16,9.52,7.21,7.21,0,0,0,6.64,3.6A9.26,9.26,0,0,0,757.27,242.88Z"/></g></g></svg>