<svg xmlns="http://www.w3.org/2000/svg" viewBox="0 0 37.52 83.21"><defs><style>.cls-1{fill:#676565;}.cls-2{fill:#ede937;}.cls-3{fill:#00b1e8;}.cls-4{fill:#fff;}</style></defs><g id="Capa_2" data-name="Capa 2"><g id="Elementos"><path class="cls-1" d="M12.42,5.8,11.61,6C10.69,2.69,8.85.48,7.34.9s-2,3.25-1,6.59l-.81.23C4.4,3.79,5.07.65,7.11.08S11.34,1.87,12.42,5.8Z"/><path class="cls-1" d="M13.62,11.72,7.53,13.4a1,1,0,0,1-1.32-.6L4.91,8.08A.85.85,0,0,1,5,7.44a1.21,1.21,0,0,1,.73-.54l6.09-1.68a1.17,1.17,0,0,1,.83,0,.88.88,0,0,1,.48.55l1.3,4.71A1,1,0,0,1,13.62,11.72Z"/><path class="cls-2" d="M36,36.52c.11.4.22.81.32,1.24.16.67.3,1.36.43,2.08a50.31,50.31,0,0,1,.71,6.35c.86,16.29-4.45,36.19-7.36,37s-17.67-13.55-25.3-28a52.23,52.23,0,0,1-2.64-5.82c-.26-.68-.49-1.35-.7-2-.13-.41-.24-.81-.36-1.21S.78,45,.66,44.38A43.16,43.16,0,0,1,0,38.33a61.06,61.06,0,0,1,.14-6.58C.89,22.22,3.9,12.25,10,10.38c6.17-1.51,13.86,5.51,19.37,13.32a61.39,61.39,0,0,1,3.49,5.58,41.6,41.6,0,0,1,2.61,5.64C35.64,35.47,35.82,36,36,36.52Z"/><path class="cls-3" d="M32.83,29.28,0,38.33a61.06,61.06,0,0,1,.14-6.58l29.17-8A61.39,61.39,0,0,1,32.83,29.28Z"/><path class="cls-3" d="M36.71,39.84a50.31,50.31,0,0,1,.71,6.35l-32.66,9a52.23,52.23,0,0,1-2.64-5.82Z"/><circle class="cls-4" cx="7.53" cy="22.04" r="4.62" transform="translate(-2.36 0.95) rotate(-6.25)"/><path class="cls-3" d="M36,36.52c.11.4.22.81.32,1.24a4.46,4.46,0,0,1-3.52-1.52c-.8-.72-1.11-.92-1.46-.83s-.5.43-.82,1.46-.86,2.76-2.7,3.27-3.13-.66-4-1.42-1.1-.93-1.46-.83-.5.43-.82,1.45-.86,2.77-2.7,3.28-3.13-.66-4-1.43-1.1-.92-1.45-.83-.51.43-.83,1.46-.86,2.77-2.69,3.27-3.14-.65-4-1.42-1.11-.93-1.46-.83-.51.43-.83,1.46a4.53,4.53,0,0,1-2.14,3.06c-.13-.41-.24-.81-.36-1.21S.78,45,.66,44.38c.09-.22.19-.5.31-.89.33-1.1.86-2.76,2.69-3.27s3.14.66,4,1.43,1.11.92,1.47.82.5-.43.82-1.45.86-2.77,2.71-3.28,3.13.66,4,1.43,1.1.93,1.45.83.51-.43.82-1.46.87-2.76,2.7-3.27,3.14.65,4,1.42,1.1.93,1.45.83.51-.43.83-1.46.86-2.76,2.69-3.27,3.13.66,4,1.43a7.92,7.92,0,0,0,.87.7C35.64,35.47,35.82,36,36,36.52Z"/></g></g></svg>