<svg xmlns="http://www.w3.org/2000/svg" viewBox="0 0 119.84 191.43"><defs><style>.cls-1{opacity:0.2;}.cls-2{fill:#fff;}</style></defs><g id="Capa_2" data-name="Capa 2"><g id="Elementos"><g class="cls-1"><path class="cls-2" d="M64.43,158.2,56.26,189l2.35-1.37-12.89-3.42,1.37,2.35,8.16-30.82-2.35,1.37,12.9,3.42c2.39.63,3.38-3.09,1-3.72l-12.89-3.42a1.93,1.93,0,0,0-2.35,1.37L43.37,185.6A1.94,1.94,0,0,0,44.73,188l12.9,3.42A2,2,0,0,0,60,190l8.17-30.82A1.92,1.92,0,0,0,64.43,158.2Z"/><path class="cls-2" d="M77.79,48.89c-2.29,7.09-12.68,4.34-11.16-3s12.67-4.3,11.16,3c-.5,2.42,3.21,3.42,3.72,1a9.84,9.84,0,0,0-6.83-11.76c-5.18-1.67-10.23,2.07-11.77,6.83C61.24,50.12,65,55.17,69.75,56.71c5.17,1.67,10.22-2.07,11.76-6.84C82.27,47.51,78.55,46.54,77.79,48.89Z"/><path class="cls-2" d="M100.51,92.33c-2.29,7.08-12.68,4.33-11.16-3s12.67-4.3,11.16,3c-.5,2.41,3.21,3.41,3.72,1a9.84,9.84,0,0,0-6.84-11.76c-5.17-1.67-10.22,2.07-11.76,6.83C84,93.55,87.7,98.6,92.47,100.14c5.17,1.68,10.22-2.07,11.76-6.83C105,91,101.27,90,100.51,92.33Z"/><path class="cls-2" d="M65.48,101.35c-2.3,7.09-12.68,4.34-11.16-3s12.67-4.3,11.16,3c-.51,2.42,3.21,3.42,3.72,1a9.84,9.84,0,0,0-6.84-11.77c-5.17-1.67-10.22,2.07-11.76,6.84-1.67,5.17,2.07,10.22,6.83,11.76,5.18,1.67,10.23-2.07,11.77-6.83C70,100,66.24,99,65.48,101.35Z"/><path class="cls-2" d="M100.45,149.63c-2.3,7.09-12.68,4.33-11.16-3s12.67-4.3,11.16,3c-.51,2.42,3.21,3.41,3.72,1a9.84,9.84,0,0,0-6.84-11.76c-5.17-1.67-10.22,2.07-11.76,6.83-1.67,5.18,2.07,10.23,6.83,11.77,5.18,1.67,10.23-2.07,11.77-6.84C104.93,148.25,101.21,147.28,100.45,149.63Z"/><path class="cls-2" d="M107.27,36.8c-2.3,7.09-12.68,4.34-11.16-3s12.67-4.3,11.16,3c-.51,2.42,3.21,3.42,3.71,1A9.83,9.83,0,0,0,104.15,26C99,24.35,93.93,28.09,92.39,32.85,90.72,38,94.46,43.08,99.22,44.62c5.17,1.67,10.22-2.07,11.76-6.84C111.75,35.42,108,34.45,107.27,36.8Z"/><path class="cls-2" d="M74,132.27c-2.29,7.09-12.68,4.34-11.16-3s12.67-4.3,11.16,3c-.5,2.42,3.21,3.42,3.72,1a9.84,9.84,0,0,0-6.83-11.76c-5.18-1.67-10.22,2.07-11.77,6.84-1.67,5.17,2.07,10.22,6.84,11.76,5.17,1.67,10.22-2.07,11.76-6.84C78.48,130.89,74.76,129.92,74,132.27Z"/><path class="cls-2" d="M74.18,40a7.69,7.69,0,0,1,2,.91L99.61,7.37q.81,10.16,1.6,20.3a7.57,7.57,0,0,1,2.45.21,8,8,0,0,1,1.46.55q-1-13.28-2.09-26.57A1.94,1.94,0,0,0,99.45.91L72.34,39.74A7.73,7.73,0,0,1,74.18,40Z"/><path class="cls-2" d="M119.83,172.16q-1.33-15.48-2.69-30.95a1.88,1.88,0,0,0-.36-1,2,2,0,0,0-.59-.69L88.81,119.49l24.33,6.45a1.94,1.94,0,0,0,2.42-1.88l-5-41.34c-.21-1.7-.41-3.41-.61-5.11-.25-2-2.62-4.17-3.76-5.72l-9.4-12.78,8.31,2.2a1.93,1.93,0,0,0,2.41-1.88q-.7-8.94-1.4-17.89A7.75,7.75,0,0,1,102.42,43q.54,7,1.09,13.94L92.57,54c-1.5-.4-3.19,1.42-2.16,2.82L102.52,73.3l2.9,3.94c.65.88.91,2,.73.46l.67,5.56q2.3,19.13,4.58,38.24L80,113.17c-2.23-.59-3.14,2.3-1.46,3.53l34.85,25.56q1.19,13.68,2.38,27.36L9,141.32l-3.84-1,5.58-7.16,5-6.45,1.56-2,.11-.13,24.19-2.66c2.07-.22,2.69-3.19.47-3.78l-16.87-4.47L44.9,85.47l.3-.08,3.62-1,11.91-3.23,18-4.86a1.94,1.94,0,0,0,0-3.71l-20.75-5.5,9.53-13.66a7.69,7.69,0,0,1-2.39-3.27q-6,8.55-12,17.11a1.94,1.94,0,0,0,1.17,2.83l16.46,4.36-11,3L47.79,80.7c-1.56.42-4.7.65-5.72,2.12l-21.66,31a1.93,1.93,0,0,0,1.17,2.83l9.57,2.54-14.74,1.62c-1.37.15-2,1.36-2.74,2.35l-5.18,6.66-8,10.24a2,2,0,0,0,.87,3.22l109.4,29,6.64,1.76A1.94,1.94,0,0,0,119.83,172.16Z"/><path class="cls-2" d="M39.21,137.38c-2.29,7.09-12.68,4.33-11.16-3s12.67-4.3,11.16,3c-.5,2.42,3.21,3.42,3.72,1A9.84,9.84,0,0,0,36.1,126.6c-5.18-1.67-10.22,2.07-11.77,6.83-1.67,5.18,2.07,10.23,6.84,11.77,5.17,1.67,10.22-2.07,11.76-6.84C43.69,136,40,135,39.21,137.38Z"/></g></g></g></svg>