<svg xmlns="http://www.w3.org/2000/svg" viewBox="0 0 150.51 92.82"><defs><style>.cls-1{fill:#0033a0;}.cls-2{fill:#00aec7;}.cls-3{fill:#fff;}.cls-4{fill:none;stroke:#ede937;stroke-linecap:round;stroke-linejoin:round;stroke-width:1.79px;}.cls-5{fill:#ede937;}.cls-6{fill:#6e6e6e;opacity:0.3;}</style></defs><g id="Capa_2" data-name="Capa 2"><g id="Textos"><path class="cls-1" d="M7.15,87.12,140.06,92.8c4,.18,7.36-1.24,7.44-3.16l3-66.94c.08-1.92-3.12-3.62-7.14-3.79L10.46,13.22c-4-.17-7.37,1.25-7.45,3.17L0,83.33C-.08,85.25,3.12,86.94,7.15,87.12Z"/><path class="cls-2" d="M103.69,35.46h-50a6.88,6.88,0,0,0-6.88,6.88V56.6c0,1.83-.56,8.69-6.39,9.37a.48.48,0,0,0-.29.83,9.3,9.3,0,0,0,6.68,2.44l.36,0a6.89,6.89,0,0,0,6.52,4.68h50A6.88,6.88,0,0,0,110.57,67V42.34A6.88,6.88,0,0,0,103.69,35.46Z"/><path class="cls-3" d="M71.79,44.1a11,11,0,1,0,11,11A11,11,0,0,0,71.79,44.1Zm9,11a9,9,0,1,1-9-9A9,9,0,0,1,80.76,55.07Z"/><path class="cls-3" d="M67.7,54.56a1.63,1.63,0,0,0,1.66-1.7A1.74,1.74,0,0,0,69,51.71a1.6,1.6,0,0,0-1.25-.54,1.7,1.7,0,0,0,0,3.39Z"/><path class="cls-3" d="M75.87,54.56a1.62,1.62,0,0,0,1.65-1.7,1.79,1.79,0,0,0-.4-1.15,1.75,1.75,0,0,0-2.5,0,1.8,1.8,0,0,0-.41,1.16A1.62,1.62,0,0,0,75.87,54.56Z"/><path class="cls-3" d="M77.46,56.09a1,1,0,0,0-.49.59,5.43,5.43,0,0,1-10.37,0,1,1,0,0,0-.49-.59,1,1,0,0,0-.76-.07,1,1,0,0,0-.59.49,1,1,0,0,0-.07.76,7.43,7.43,0,0,0,14.19,0,1,1,0,0,0-.07-.76,1,1,0,0,0-.59-.49A1,1,0,0,0,77.46,56.09Z"/><path class="cls-4" d="M103.69,35.46h-50a6.88,6.88,0,0,0-6.88,6.88V56.6c0,1.83-.56,8.69-6.39,9.37a.48.48,0,0,0-.29.83,9.3,9.3,0,0,0,6.68,2.44l.36,0a6.89,6.89,0,0,0,6.52,4.68h50A6.88,6.88,0,0,0,110.57,67V42.34A6.88,6.88,0,0,0,103.69,35.46Z"/><path class="cls-5" d="M105,70.67a.63.63,0,0,1-.44-1.07l2.13-2.13a.63.63,0,1,1,.89.88l-2.14,2.14A.62.62,0,0,1,105,70.67Z"/><path class="cls-5" d="M101.28,69.88a.62.62,0,0,1-.44-.18.61.61,0,0,1,0-.88l4.28-4.29a.63.63,0,1,1,.88.89l-4.28,4.28A.62.62,0,0,1,101.28,69.88Z"/><path class="cls-5" d="M97.55,69.1A.63.63,0,0,1,97.1,68l6.43-6.43a.63.63,0,0,1,.89.89L98,68.91A.59.59,0,0,1,97.55,69.1Z"/><ellipse class="cls-6" cx="75.26" cy="11.85" rx="10.9" ry="10.96"/><circle class="cls-3" cx="75.26" cy="10.9" r="10.9"/><circle class="cls-2" cx="75.26" cy="10.9" r="8.71"/><path class="cls-3" d="M79.05,7.58a.86.86,0,0,0-.46.14L75.44,10a.32.32,0,0,1-.37,0L71.92,7.72a.79.79,0,0,0-1.07.15.71.71,0,0,0,.15,1l3.49,2.51a1.34,1.34,0,0,0,1.53,0l3.49-2.51a.7.7,0,0,0,.15-1A.78.78,0,0,0,79.05,7.58Z"/><path class="cls-3" d="M79.88,10.94a.75.75,0,0,0-.46.15l-4,2.86a.32.32,0,0,1-.37,0l-4-2.86a.79.79,0,0,0-1.1.19.71.71,0,0,0,.19,1l4.3,3.1a1.31,1.31,0,0,0,1.53,0l4.32-3.11a.71.71,0,0,0,.15-1A.78.78,0,0,0,79.88,10.94Z"/></g></g></svg>